<?xml version="1.0" encoding="UTF-8"?>
<svg id="Layer_1" data-name="Layer 1" xmlns="http://www.w3.org/2000/svg" viewBox="0 0 817.98 382.89">
  <defs>
    <style>
      .cls-1 {
        fill: #34231a;
      }
    </style>
  </defs>
  <g>
    <g>
      <path class="cls-1" d="M115.11,259.66c-1.45-1.02-1.59-4.93-3.91-7.47-3.77-3.99-7.18-6.02-12.76-5.95-2.54.22-1.74,1.88-1.74,4.13-.15,8.92-1.81,51.47.72,56.4,2.32,4.42,6.16,3.77-3.33,4.13-1.02,0-9.21.36-9.64-.07-.43-.51,1.88-3.48,2.25-4.78,1.52-4.86,1.02-13.19,1.09-18.49.15-6.52.44-12.98.36-19.57-.07-4.21-.15-8.41,0-12.61,0-2.25.29-6.96-.94-8.85-1.31-.72-7.03.8-8.41,1.45-4.57,1.96-6.81,5.66-8.19,10.22l-.22.8c-.29,1.16-.65,1.3-1.81,1.02-.22-4.06,1.52-17.62,2.32-17.62,6.53-.15,38.79-.43,44.51,0-.22,3.91.36,15.08-.29,17.25Z"/>
      <path class="cls-1" d="M196.97,307.22c1.52,2.03,1.52.94,1.23,3.77-1.81.07-13.85.72-14.57-.07-.58-.58,1.81-2.61,2.32-4.13,2.1-6.6,1.45-28.42,1.38-36.39v-1.38c.07-3.99.87-20.95-1.67-23.13-4.28-3.77-2.25-3.41,2.54-3.33,3.12.07,6.16.29,9.28,0,4.13-.29.58,1.74-.43,4.57-1.88,5.08-1.45,16.02-1.52,21.97-.14,6.6-1.52,34.07,1.45,38.13Z"/>
      <path class="cls-1" d="M256.34,246.61c-1.16,1.95-.8,1.88-.94,4.57-.44,6.38-.58,12.76-.8,19.14-.51,10.44-.29,20.37-.58,30.81,0,2.54-.14,5.07-.22,7.61-.07,1.31-1.52,2.47-2.97,1.88-.36-.14-1.09-1.96-1.23-2.25-2.39-4.28-4.57-7.98-6.81-12.33l-3.04-6.31c-5.66-10.8-12.47-20.88-18.49-31.54-4.13-7.4-3.55-6.16-3.26,1.81.36,11.24.36,22.04.14,33.2-.07,5.07-.22,12.83,3.7,16.67,2.68,2.32-9.42,1.89-10.37,1.31-.8-.51.07-.94.8-1.74,3.77-4.64,3.34-11.09,3.41-16.82.15-9.35-.14-18.63-.14-27.98,0-3.19.14-13.92-1.02-16.53-1.02-1.3-3.62-2.61-3.91-4.28,1.02-.72,8.85-.87,10.15-.36,3.12,1.67,8.12,11.38,10,14.86,5.66,10.37,10.66,20.95,16.17,31.25.87,1.74,1.52,2.68,2.76,4.13,1.09-9.21,1.02-19.14,1.31-27.91.07-3.33.94-16.97-.22-19.14-.87-1.59-2.68-2.75-2.83-3.62-.22-1.02,3.12-.72,3.84-.72,10.66-.07,6.96.14,4.57,4.28Z"/>
      <path class="cls-1" d="M169.51,307c-4.78-6.67-5.07-9.71-8.12-16.75-1.09-2.39-2.9-6.52-4.21-8.7-2.32-3.04-5.44-3.55-1.31-5.15,10.95-2.83,14.21-7.32,13.92-18.63-.43-3.05-1.16-5.8-3.12-8.26-4.57-5.51-13.27-6.45-19.94-6.74l-.72-.07c-4.79-.15-9.57-.07-14.36.14-3.99.22-5.44-.58-3.33,3.19,2.68,4.93,2.1,18.49,2.1,26.53-.07,5.22,0,10.51,0,15.73,0,4.21.22,13.7-1.16,17.33-.94,2.61-4.93,4.49-4.28,5,.65.58,14.14.44,15.88.44,2.54,0,2.83-.07,1.52-1.96-4.57-6.6-3.48-11.96-3.33-19.57,0-2.97-.22-8.34.15-11.17l.04-4.71c-.06-.36.03-1.01.03-2.24,0-.25-.01-.51-.02-.76,1.03.57,5.23,3.09,8.58,8.09.3.83.71,1.45.71,1.45,3.55,5.73,5.87,13.12,7.83,19.5,1.23,4.35,1.38,9.21,6.02,11.24,1.59.65,9.21,1.31,9.5-.07.07-.43-2.1-3.41-2.39-3.84ZM139.01,260.8c-.11-3.86-.18-7.72-.03-11.58,0-1.74-.51-2.68,1.02-3.05,4.64-1.09,9.79-.72,14.35.36,3.05,1.23,5.08,2.9,6.45,5.87,1.74,4.49,2.03,9.28.29,13.77-1.87,4.67-4.77,6.82-8.26,7.73-1.72.24-4.25-.15-7.07-3.06-5.11-5.29-6.3-7.15-6.76-10.06Z"/>
      <path class="cls-1" d="M311.31,297.14c-3.7-8.77-5.95-17.33-9.28-26.1-1.89-4.93-8.05-26.97-11.53-28.71-.44,0-3.34,2.54-3.84,2.97-.6.66-1.09,1.59-1.53,2.57l3.76,9.94h0c-7.7,12.38-14.3,16.11-22.02,28.45-.38.61-2.19,3.56-2.5,7.93-.22,3.16-.22,5.41.92,8.36,2.92,7.55,7.61,9.91,17.29,9.66,3.05-.43,5.8-1.16,8.26-3.12,5.51-4.57,6.45-13.27,6.74-19.94l.07-.72c.05-1.53.04-3.05.04-4.58l2,5.55c.46.78.85,1.89,1.24,3.46,1.09,4.35,3.12,9.06,2.32,13.56-.51,2.83-4.28,2.83-4.57,4.57,1.31.36,18.12.8,18.34-.36.22-1.09-4.93-11.52-5.73-13.48ZM293.82,296.77c-1.23,3.05-2.9,5.08-5.87,6.45-4.49,1.74-9.28,2.03-13.77.29-.05-.02-.1-.04-.15-.06-5.82-2.38-7.68-9.78-4.01-14.89.56-.78,3.21-5.12,3.21-5.12l.11-.2c1.75-3.3,10.05-12.35,14.67-17.75,1.18-1.37,3.41-.91,3.95.81.99,3.12,1.6,5.19,1.81,5.76.22.65.43,1.29.64,1.92,1.08,4.74.49,18.23-.59,22.79Z"/>
    </g>
    <g>
      <path class="cls-1" d="M451.89,290.9c-1.09.07-3.62,8.12-4.06,8.99-1.59,3.19-1.81,3.91-4.78,6.23-2.54,1.88-21.86,3.26-24.61,1.67-.8-.65-.72-27.69.22-30.52,1.15-3.12,7.76-2.18,8.92-2.03,1.45.14,3.34.14,4.64.87,1.74.87,1.52,3.33,3.19,3.55.8.07,1.52-10.66.94-11.89-1.02-2.03-2.54,2.54-3.7,3.26-1.1.72-7.17.97-10.84.86-1.63-.05-2.96-1.31-3.11-2.94-.24-2.71-.29-6.58-.34-7.42-.07-3.7-.51-10.88-.14-14.36,2.17-1.09,8.12-1.09,10.73-1.16,5.07-.14,9.5,2.25,11.82,6.89,1.09,2.25.8,2.9,1.38,4.86.36,1.45,1.96,2.9,2.9,1.45.8-1.31-.29-8.63-.51-10.29-.58-4.71-.43-6.74-5.8-6.31-9.43.72-18.92.43-28.35,0-2.18-.07-3.55-.51-2.76,1.88,1.23,3.63,1.96,4.28,2.1,8.34v.65c.36,13.77.36,27.47.15,41.25,0,3.7.65,8.55-1.02,11.89-.51,1.09-3.12,3.33-2.97,3.77,1.02.8,24.9.65,27.08.65,2.97,0,15.59.29,17.47-.72,1.38-.8,1.6-6.67,1.81-8.12.36-2.17.36-3.12.51-5.29.07-1.52,1.09-6.24-.87-6.02Z"/>
      <path class="cls-1" d="M570.03,242.83c-.58.65,1.81,4.57,1.96,6.45.65,7.97.72,17.25.65,25.23-.07,6.31.14,14.42-.65,20.37-.65,4.79-4.21,9.64-9.06,10.66-4.93.72-10.29-.14-13.99-3.7-5.08-6.24-3.55-26.61-3.34-34.73v-.51c.15-4.79-.22-9.93.22-14.72.44-4.21,2.18-5.22,2.18-9.28-4.13-.07-8.27-.14-12.33,0-2.1,0-3.77-.36-1.88,1.45,3.33,3.05,4.06,4.57,4.13,9.06.07,8.12-.22,16.53-.22,24.72,0,2.97-.07,5.87-.07,8.85.07,4.2.22,8.55,1.59,12.61,2.03,5.66,3.41,6.38,8.48,9.35l.65.36c9.21,4.5,19.86.94,24.43-8.12l.65-1.45c3.84-10.37,1.52-35.09,2.32-47.34.58-8.63,3.91-7.97,4.28-9.42.07-.43-9.35-.65-10,.14Z"/>
      <path class="cls-1" d="M634.39,290.9c-1.09.07-3.62,8.12-4.06,8.99-1.59,3.19-1.81,3.91-4.78,6.23-2.54,1.88-21.86,3.26-24.61,1.67-.8-.65-.72-29.51.22-32.33.51-1.31,7.76-.36,8.92-.22,1.45.14,3.34.14,4.64.87,1.74.87,1.52,3.33,3.19,3.55.8.07,1.52-10.66.94-11.89-1.02-2.03-2.54,2.54-3.7,3.26-1.45.94-11.45,1.09-13.34.65-.8-.29-.87-8.85-.94-10.15-.07-3.7-.51-10.88-.14-14.36,2.17-1.09,8.12-1.09,10.73-1.16,5.07-.14,9.5,2.25,11.82,6.89,1.09,2.25.8,2.9,1.38,4.86.36,1.45,1.96,2.9,2.9,1.45.8-1.31-.29-8.63-.51-10.29-.58-4.71-.43-6.74-5.8-6.31-9.43.72-18.92.43-28.35,0-2.17-.07-3.55-.51-2.76,1.88,1.23,3.63,1.96,4.28,2.1,8.34v.65c.36,13.77.36,27.47.15,41.25,0,3.7.65,8.55-1.02,11.89-.51,1.09-3.12,3.33-2.97,3.77,1.02.8,17.4.65,19.57.65,2.97,0,23.09.29,24.97-.72,1.38-.8,1.6-6.67,1.81-8.12.36-2.17.36-3.12.51-5.29.07-1.52,1.09-6.24-.87-6.02Z"/>
      <path class="cls-1" d="M683.82,242.4c-.72,0-4.06-.29-3.84.72.15.87,1.96,2.03,2.83,3.62,1.16,2.17.29,15.81.22,19.14-.29,8.77-.22,18.7-1.31,27.91-1.23-1.45-1.88-2.39-2.76-4.13-5.51-10.29-10.51-20.88-16.17-31.25-1.88-3.48-6.89-13.19-10-14.86-1.3-.51-9.13-.36-10.15.36.29,1.67,2.9,2.97,3.91,4.28,1.16,2.61,1.02,13.34,1.02,16.53,0,9.35.29,18.63.14,27.98-.07,5.73.36,12.18-3.41,16.82-.72.8-1.59,1.23-.8,1.74.94.58,13.05,1.02,10.37-1.31-3.91-3.84-3.77-11.6-3.7-16.67.22-11.17.22-21.97-.14-33.2-.29-7.98-.87-9.21,3.26-1.81,6.02,10.66,12.83,20.73,18.49,31.54l3.04,6.31c2.25,4.35,4.42,8.05,6.81,12.33.15.29.87,2.1,1.23,2.25,1.45.58,2.9-.58,2.97-1.88.07-2.54.22-5.07.22-7.61.29-10.44.07-20.37.58-30.81.22-6.38.36-12.76.8-19.14.14-2.68-.22-2.61.94-4.57,2.39-4.13,6.09-4.35-4.57-4.28Z"/>
      <path class="cls-1" d="M387.02,290.32c-1.09-2.39-2.9-6.52-4.21-8.7-2.32-3.04-5.44-3.55-1.31-5.15,10.95-2.83,14.21-7.32,13.92-18.63-.43-3.05-1.16-5.8-3.12-8.26-4.57-5.51-13.27-6.45-19.94-6.74l-.72-.07c-4.79-.15-9.57-.07-14.36.14-3.99.22-5.44-.58-3.33,3.19,2.68,4.93,2.1,18.49,2.1,26.53-.07,5.22,0,10.51,0,15.73,0,4.21.22,13.7-1.16,17.33-.94,2.61-4.93,4.49-4.28,5,.65.58,14.14.44,15.88.44,2.54,0,2.83-.07,1.52-1.96-4.57-6.6-3.48-11.96-3.33-19.57,0-2.97-.22-8.34.15-11.17l.04-4.71c-.06-.36.03-1.01.03-2.24,0-.25-.01-.51-.02-.76,1.03.57,5.23,3.09,8.58,8.09.3.83.71,1.45.71,1.45,3.55,5.73,5.87,13.12,7.83,19.5,1.23,4.35,1.38,9.21,6.02,11.24,1.59.65,9.21,1.31,9.5-.07.07-.43-2.1-3.41-2.39-3.84-4.78-6.67-5.07-9.71-8.12-16.75ZM371.4,270.92c-5.11-5.29-6.3-7.15-6.76-10.06-.11-3.86-.18-7.72-.03-11.58,0-1.74-.51-2.68,1.02-3.05,4.64-1.09,9.79-.72,14.35.36,3.05,1.23,5.08,2.9,6.45,5.87,1.74,4.49,2.03,9.28.29,13.77-1.87,4.67-4.77,6.82-8.26,7.73-1.72.24-4.25-.15-7.07-3.06Z"/>
      <path class="cls-1" d="M743.69,297.21c-3.7-8.77-5.95-17.33-9.28-26.1-1.89-4.93-8.05-26.97-11.53-28.71-.44,0-3.34,2.54-3.84,2.97-.6.66-1.09,1.59-1.53,2.57l3.76,9.94c-7.7,12.38-14.3,16.11-22.02,28.45-.38.61-2.19,3.56-2.5,7.93-.22,3.16-.22,5.41.92,8.36,2.92,7.55,7.61,9.91,17.29,9.66,3.05-.43,5.8-1.16,8.26-3.12,5.51-4.57,6.45-13.27,6.74-19.94l.07-.72c.05-1.53.04-3.05.04-4.58l2,5.55c.46.78.85,1.89,1.24,3.46,1.09,4.35,3.12,9.06,2.32,13.56-.51,2.83-4.28,2.83-4.57,4.57,1.31.36,18.12.8,18.34-.36.22-1.09-4.93-11.52-5.73-13.48ZM726.2,296.83c-1.23,3.05-2.9,5.08-5.87,6.45-4.49,1.74-9.28,2.03-13.77.29-.05-.02-.1-.04-.15-.06-5.82-2.38-7.68-9.78-4.01-14.89.56-.78,3.21-5.12,3.21-5.12l.11-.2c1.75-3.3,10.05-12.35,14.67-17.75,1.18-1.37,3.41-.91,3.95.81.99,3.12,1.6,5.19,1.81,5.76.22.65.43,1.29.64,1.92,1.08,4.74.49,18.23-.59,22.79Z"/>
      <path class="cls-1" d="M493.53,240.5c-8.64.19-16.59,4.61-23.23,10.62-19.42,17.6-11.8,49.38,10.65,58.6.81.33,1.63.61,2.45.87-.32.08-.65.16-.99.27-1.75.77-2.73,2.07-3.65,2.68,0,0-1.87,2.93,2.99,2.21.66-.05,1.19-.06,1.65-.04.14,0,.29.02.43.04.37.04.71.1,1.03.19,3.92.86,6.73,4.12,8.44,5.75,0,0,1.1,1.01,1.88,1.78,3.12,3.08,11.37,3.83,15.63,2.07,2.03-.84,5.2-4.2,4.53-5.43-2.43-.03-6.91,4.05-13.29.26-2.22-1.32-5.7-5.2-8.02-7.07-.53-.32-1.08-.74-1.68-1.16,18.37.64,35.08-14.19,35.13-35.63-.2-18.78-16.34-36.09-33.94-36.01ZM482.6,305.88c-15.03-8.79-19.08-31.56-11.28-47.01.21,1.23.49,2.42.55,3.38.1,1.58.05,3.17.02,4.75-.27,16.51,12.16,33.84,30.92,29.15,8.87-3.74,7.23-13.86-2.41-6.09-10.53,4.01-18.5-2.3-22.77-11.17-3.75-7.78-3.99-16.79-1.38-25.02,0-.03.02-.05.02-.08.71-2.24,2.14-4.17,4.07-5.51.69-.48,1.42-.93,2.17-1.34,10.26-5.33,25.18-3.06,30.74,7.56,3.82,7.29,6,14.33,6.05,22,.81,19.98-18.06,40.65-36.71,29.37Z"/>
    </g>
  </g>
  <g>
    <path class="cls-1" d="M420.52,145.4c.65.92,1.93,3.42,2.15,4.54,1.09,5.59-1.49,7.11-5.06,7.97-3.33.81-6.79.85-10.16.23-5.48-1.02-10.35-1.36-15.1-5.66-6.79-6.13-10.88-13.32-13.46-22.04-2.46-8.29-3.35-13.89-.05-22.31.65-1.65,2.58-7.13,8.86-13.61,2.93-3.03,13.22-8.49,17.28-8.98,3.27-.4,13.03.3,15.79-.68,2.51-.89,4.28-2.51,4.07-3.61-.28-1.49-3.56-6.25-22.05-5.53-6.1.24-13.98,3.42-18.71,6.97-3.88,2.9-8.49,6.6-11.22,10.65-.68,1.01-1.33,4.03-2.84,3.33-.7-.32.12-3.61.37-4.35.41-1.22,2.09-2.98,2.79-4.16.96-1.64.84-3.1,2.5-4.53,10.37-8.9,15.06-10.36,26.58-12.43,9.3-1.68,16.91.11,26.34,3.53,7.38,2.68,11.06,5.66,16.44,10.93.44.44,2.09,4.7,2.06,5.31-.09,1.97-1.62,4.34-3.62,4.84-5.2,1.29-9.91.1-14.84-1.21-3.16-.84-5.93-2.16-8.89-2.76-5.74-1.18-11.8-2.39-17.96-.9-1.96.47-9.73,4.19-11.23,5.43-1.05.87-4.69,4.36-5.48,5.32-1.55,1.9-4.17,8.42-4.66,10.87-1.38,6.95.91,17.91,3.95,24.35,3.16,6.68,10.97,13.04,18.52,13.23,2.3.06,6.22-.99,6.45-3.36.18-1.94-.36-5.06-3.28-8.3-2.69-2.97-15.87-14.34-11.91-25.01,2.54-6.82,11.58-12.28,18.98-11.72,1.76.13,3.39.68,5.18.91.88.11,3.44,1.23,4.17,1.52,4.26,1.71,5.19,5.25,1.99,4.25-.5-.16-5.02-2.06-5.67-2.3-6.21-2.39-18.15-.06-21.69,5.96-5.08,8.64,7.04,19.45,13.88,25.5,3.12,2.76,7.02,4.29,9.52,7.82Z"/>
    <path class="cls-1" d="M366.88,107.25h0c.4.08.74.4.77.81.06.88-.42,1.82-.62,2.64-.33,1.34-.51,4.42-.64,5.52-.33,2.77.51,11.66.99,14.79,1.95,12.83,10.01,24.78,20.58,31.92,15.81,10.68,32.27,5.84,32.87,5.69,5.91-1.42,12.05-5.71,15.31-7.53,1.37-.76,4.71-3.5,5.83-3.83,2.1-.62,3.75-.66,5.94-1.96,3.04-1.8,7.22-8.89,8.94-12.12,1.84-3.47,3.52-10.57,3.64-14.57.13-3.98-.47-8.67-2.66-12.05-2.77-4.27-6.97-1.54-7.57,3.39-.26,2.11-.93,3.86-1.55,5.71-1.33,3.97-3.48,8.19-6.2,11.37-.99,1.15-3.31,5.14-10.82,4.89-1.23-.04-5.5-.46-5.45-1.77.06-1.73,1.54-.78,2.25-.84,3.33-.32,7.91-.78,10.32-3.43,5.66-6.21,5.54-9.15,5.78-11.23.11-.89-.3-3.76-.41-4.7-1.1-9.88,3.1-15.89,5.54-16.79,2.62-.97,5.44-1.25,7.9.07,1.9,1.02,3.58,2.11,4.6,4.53,5.55,13.08,2.47,32.11-5.47,43.65-5.77,8.39-12.52,13.46-21.03,18.77-6.58,4.11-23.65,5.26-31.11,3.61-9.34-2.06-15.69-5.94-22.89-12.01-13.38-11.27-21.56-31.88-17.69-49.24.34-1.5,1.33-3.27,1.96-4.83.14-.35.52-.55.89-.48Z"/>
    <path class="cls-1" d="M431.12,112c1.27.17,2.3,2.49,2.62,3.64,1.29,4.7-1.48,10.77-5.72,13.08-.96.52-3.42,1.16-6.37.8-2.96-.36-7.49-2.48-9.63-4.53-3.72-3.55.22-10.27,5.1-7,2.37,1.59,1.73,4.52,3.44,5.27.53.23,1.81,1.32,4.87.63,2.75-.62,5.59-5,5.24-7.68-.18-1.37-1.38-2.38-.33-3.78.23-.3.37-.48.79-.43Z"/>
    <circle class="cls-1" cx="459.4" cy="91.38" r="3.99"/>
    <circle class="cls-1" cx="356.92" cy="99.69" r="3.99"/>
    <circle class="cls-1" cx="407.33" cy="182.6" r="3.99"/>
  </g>
</svg>