<?xml version="1.0" encoding="UTF-8"?>
<svg id="Layer_1" data-name="Layer 1" xmlns="http://www.w3.org/2000/svg" viewBox="0 0 493.63 254.61">
  <defs>
    <style>
      .cls-1 {
        fill: #34231a;
      }
    </style>
  </defs>
  <g>
    <path class="cls-1" d="M169.06,64.25c-1.45-1.02-1.6-4.93-3.92-7.47-3.77-3.99-7.18-6.02-12.77-5.95-2.54.22-1.74,1.89-1.74,4.14-.15,8.93-1.82,51.52.73,56.45,2.32,4.43,6.17,3.77-3.34,4.14-1.02,0-9.22.36-9.65-.07-.43-.51,1.89-3.48,2.25-4.79,1.52-4.86,1.02-13.21,1.09-18.5.15-6.53.44-12.99.36-19.59-.07-4.21-.15-8.42,0-12.62,0-2.25.29-6.97-.94-8.85-1.31-.73-7.04.8-8.42,1.45-4.57,1.96-6.82,5.66-8.2,10.23l-.22.8c-.29,1.16-.65,1.3-1.82,1.02-.22-4.06,1.52-17.63,2.32-17.63,6.53-.15,38.82-.43,44.55,0-.22,3.92.36,15.09-.29,17.27Z"/>
    <path class="cls-1" d="M250.99,111.85c1.52,2.03,1.52.94,1.23,3.77-1.81.07-13.86.73-14.58-.07-.58-.58,1.81-2.61,2.32-4.14,2.11-6.6,1.45-28.44,1.38-36.43v-1.38c.07-3.99.87-20.97-1.67-23.15-4.28-3.77-2.25-3.41,2.54-3.34,3.12.07,6.17.29,9.29,0,4.14-.29.58,1.74-.43,4.57-1.89,5.08-1.45,16.04-1.52,21.99-.14,6.6-1.52,34.11,1.45,38.17Z"/>
    <path class="cls-1" d="M310.41,51.19c-1.16,1.96-.8,1.89-.94,4.57-.44,6.39-.58,12.77-.8,19.15-.51,10.45-.29,20.39-.58,30.84,0,2.54-.14,5.08-.22,7.62-.07,1.31-1.52,2.47-2.98,1.89-.36-.14-1.09-1.96-1.23-2.25-2.39-4.28-4.57-7.98-6.82-12.34l-3.05-6.31c-5.66-10.81-12.48-20.9-18.5-31.56-4.14-7.4-3.55-6.17-3.26,1.82.36,11.25.36,22.06.14,33.23-.07,5.08-.22,12.84,3.7,16.69,2.68,2.32-9.43,1.89-10.38,1.31-.8-.51.07-.94.8-1.74,3.77-4.64,3.34-11.1,3.41-16.83.15-9.36-.14-18.65-.14-28.01,0-3.19.14-13.93-1.02-16.55-1.02-1.3-3.63-2.61-3.92-4.28,1.02-.73,8.85-.87,10.16-.36,3.12,1.67,8.13,11.39,10.01,14.87,5.66,10.38,10.67,20.97,16.18,31.27.87,1.74,1.52,2.68,2.76,4.14,1.09-9.22,1.02-19.16,1.31-27.94.07-3.34.94-16.98-.22-19.16-.87-1.6-2.68-2.76-2.83-3.63-.22-1.02,3.12-.73,3.85-.73,10.67-.07,6.97.14,4.57,4.28Z"/>
    <path class="cls-1" d="M223.5,111.64c-4.79-6.67-5.08-9.72-8.13-16.76-1.09-2.39-2.9-6.53-4.21-8.71-2.32-3.05-5.44-3.55-1.31-5.15,10.96-2.83,14.22-7.33,13.93-18.65-.43-3.05-1.16-5.8-3.12-8.27-4.57-5.52-13.28-6.46-19.95-6.75l-.73-.07c-4.79-.15-9.58-.07-14.37.14-3.99.22-5.44-.58-3.34,3.19,2.68,4.93,2.1,18.5,2.1,26.56-.07,5.23,0,10.52,0,15.75,0,4.21.22,13.71-1.16,17.34-.94,2.61-4.93,4.5-4.28,5.01.65.58,14.15.44,15.89.44,2.54,0,2.83-.07,1.52-1.96-4.57-6.6-3.48-11.97-3.34-19.59,0-2.98-.22-8.34.15-11.18l.04-4.72c-.06-.36.03-1.01.03-2.25,0-.25-.01-.51-.02-.76,1.03.57,5.23,3.1,8.59,8.09.3.83.71,1.45.71,1.45,3.56,5.73,5.88,13.13,7.84,19.52,1.23,4.35,1.38,9.22,6.02,11.25,1.6.65,9.21,1.31,9.51-.07.07-.43-2.11-3.41-2.4-3.85ZM192.98,65.4c-.11-3.86-.18-7.73-.03-11.59,0-1.74-.51-2.68,1.02-3.05,4.64-1.09,9.8-.73,14.37.36,3.05,1.23,5.08,2.9,6.46,5.88,1.74,4.5,2.03,9.29.29,13.79-1.87,4.68-4.78,6.83-8.27,7.74-1.72.24-4.26-.15-7.07-3.06-5.12-5.29-6.3-7.16-6.77-10.07Z"/>
    <path class="cls-1" d="M365.44,101.77c-3.7-8.78-5.95-17.34-9.29-26.12-1.89-4.93-8.06-26.99-11.54-28.73-.44,0-3.34,2.54-3.85,2.98-.6.66-1.09,1.59-1.54,2.57l3.77,9.94h0c-7.71,12.39-14.31,16.12-22.04,28.48-.38.61-2.19,3.56-2.5,7.93-.22,3.16-.22,5.41.92,8.37,2.92,7.56,7.62,9.92,17.31,9.67,3.05-.43,5.8-1.16,8.27-3.12,5.52-4.57,6.46-13.28,6.75-19.95l.07-.73c.05-1.53.04-3.06.04-4.58l2,5.56c.46.78.85,1.89,1.25,3.46,1.09,4.35,3.12,9.07,2.32,13.57-.51,2.83-4.28,2.83-4.57,4.57,1.31.36,18.14.8,18.36-.36.22-1.09-4.93-11.54-5.73-13.49ZM347.92,101.39c-1.23,3.05-2.9,5.08-5.88,6.46-4.5,1.74-9.29,2.03-13.79.29-.05-.02-.1-.04-.15-.06-5.83-2.39-7.69-9.79-4.02-14.91.56-.78,3.22-5.12,3.22-5.12l.11-.2c1.75-3.3,10.05-12.36,14.69-17.76,1.18-1.38,3.41-.91,3.95.81.99,3.13,1.6,5.2,1.81,5.76.22.65.43,1.29.64,1.92,1.08,4.74.49,18.24-.6,22.81Z"/>
  </g>
  <g>
    <path class="cls-1" d="M148.63,186c-1.09.07-3.63,8.13-4.06,9-1.6,3.19-1.82,3.92-4.79,6.24-2.54,1.89-21.88,3.27-24.63,1.67-.8-.65-.73-27.71.22-30.54,1.15-3.12,7.76-2.18,8.92-2.04,1.45.14,3.34.14,4.64.87,1.74.87,1.52,3.34,3.19,3.55.8.07,1.52-10.67.94-11.9-1.02-2.03-2.54,2.54-3.7,3.27-1.11.72-7.18.97-10.85.86-1.63-.05-2.97-1.32-3.11-2.94-.24-2.71-.29-6.58-.34-7.42-.07-3.7-.51-10.89-.14-14.37,2.18-1.09,8.13-1.09,10.74-1.16,5.08-.14,9.51,2.25,11.83,6.89,1.09,2.25.8,2.9,1.38,4.86.36,1.45,1.96,2.9,2.9,1.45.8-1.31-.29-8.64-.51-10.3-.58-4.71-.43-6.75-5.8-6.31-9.43.73-18.94.43-28.37,0-2.18-.07-3.56-.51-2.76,1.89,1.23,3.63,1.96,4.28,2.1,8.34v.65c.36,13.79.36,27.5.15,41.29,0,3.7.65,8.56-1.02,11.9-.51,1.09-3.12,3.34-2.98,3.77,1.02.8,24.92.65,27.1.65,2.98,0,15.6.29,17.49-.73,1.38-.8,1.6-6.68,1.82-8.13.36-2.18.36-3.12.51-5.3.07-1.52,1.09-6.24-.87-6.02Z"/>
    <path class="cls-1" d="M266.87,137.89c-.58.65,1.82,4.57,1.96,6.46.65,7.98.73,17.27.65,25.25-.07,6.31.14,14.44-.65,20.39-.65,4.79-4.21,9.65-9.07,10.67-4.93.73-10.3-.14-14-3.7-5.08-6.24-3.56-26.63-3.34-34.76v-.51c.15-4.79-.22-9.94.22-14.73.44-4.21,2.18-5.22,2.18-9.29-4.14-.07-8.27-.14-12.34,0-2.1,0-3.77-.36-1.89,1.45,3.34,3.05,4.06,4.57,4.14,9.07.07,8.13-.22,16.54-.22,24.74,0,2.98-.07,5.88-.07,8.85.07,4.21.22,8.56,1.6,12.62,2.03,5.66,3.41,6.39,8.49,9.36l.65.36c9.21,4.5,19.88.94,24.45-8.13l.65-1.45c3.85-10.37,1.52-35.12,2.32-47.38.58-8.63,3.92-7.98,4.28-9.43.07-.43-9.36-.65-10.01.14Z"/>
    <path class="cls-1" d="M331.29,186c-1.09.07-3.63,8.13-4.06,9-1.6,3.19-1.82,3.92-4.79,6.24-2.54,1.89-21.88,3.27-24.63,1.67-.8-.65-.73-29.53.22-32.36.51-1.31,7.76-.36,8.92-.22,1.45.14,3.34.14,4.64.87,1.74.87,1.52,3.34,3.19,3.55.8.07,1.52-10.67.94-11.9-1.02-2.03-2.54,2.54-3.7,3.27-1.45.94-11.46,1.09-13.35.65-.8-.29-.87-8.85-.94-10.16-.07-3.7-.51-10.89-.14-14.37,2.18-1.09,8.13-1.09,10.74-1.16,5.08-.14,9.51,2.25,11.83,6.89,1.09,2.25.8,2.9,1.38,4.86.36,1.45,1.96,2.9,2.9,1.45.8-1.31-.29-8.64-.51-10.3-.58-4.71-.43-6.75-5.8-6.31-9.43.73-18.94.43-28.37,0-2.18-.07-3.56-.51-2.76,1.89,1.23,3.63,1.96,4.28,2.1,8.34v.65c.36,13.79.36,27.5.15,41.29,0,3.7.65,8.56-1.02,11.9-.51,1.09-3.12,3.34-2.98,3.77,1.02.8,17.42.65,19.59.65,2.98,0,23.11.29,25-.73,1.38-.8,1.6-6.68,1.82-8.13.36-2.18.36-3.12.51-5.3.07-1.52,1.09-6.24-.87-6.02Z"/>
    <path class="cls-1" d="M380.77,137.45c-.73,0-4.06-.29-3.85.73.15.87,1.96,2.03,2.83,3.63,1.16,2.18.29,15.82.22,19.16-.29,8.78-.22,18.72-1.31,27.94-1.23-1.45-1.89-2.4-2.76-4.14-5.51-10.3-10.52-20.9-16.18-31.27-1.89-3.48-6.89-13.21-10.01-14.87-1.3-.51-9.14-.36-10.16.36.29,1.67,2.9,2.98,3.92,4.28,1.16,2.61,1.02,13.35,1.02,16.55,0,9.36.29,18.65.14,28.01-.07,5.73.36,12.19-3.41,16.83-.73.8-1.6,1.23-.8,1.74.95.58,13.06,1.02,10.38-1.31-3.92-3.85-3.77-11.61-3.7-16.69.22-11.18.22-21.99-.14-33.23-.29-7.98-.87-9.22,3.26-1.82,6.02,10.67,12.84,20.75,18.5,31.56l3.05,6.31c2.25,4.35,4.43,8.05,6.82,12.34.15.29.87,2.1,1.23,2.25,1.45.58,2.9-.58,2.98-1.89.07-2.54.22-5.08.22-7.62.29-10.45.07-20.39.58-30.84.22-6.38.36-12.77.8-19.15.14-2.68-.22-2.61.94-4.57,2.39-4.14,6.09-4.36-4.57-4.28Z"/>
    <path class="cls-1" d="M83.7,185.42c-1.09-2.39-2.9-6.53-4.21-8.71-2.32-3.05-5.44-3.55-1.31-5.15,10.96-2.83,14.22-7.33,13.93-18.65-.43-3.05-1.16-5.8-3.12-8.27-4.57-5.52-13.28-6.46-19.95-6.75l-.73-.07c-4.79-.15-9.58-.07-14.37.14-3.99.22-5.44-.58-3.34,3.19,2.68,4.93,2.1,18.5,2.1,26.56-.07,5.23,0,10.52,0,15.75,0,4.21.22,13.71-1.16,17.34-.94,2.61-4.93,4.5-4.28,5.01.65.58,14.15.44,15.89.44,2.54,0,2.83-.07,1.52-1.96-4.57-6.6-3.48-11.97-3.34-19.59,0-2.98-.22-8.34.15-11.18l.04-4.72c-.06-.36.03-1.01.03-2.25,0-.25-.01-.51-.02-.76,1.03.57,5.23,3.1,8.59,8.09.3.83.71,1.45.71,1.45,3.56,5.73,5.88,13.13,7.84,19.52,1.23,4.35,1.38,9.22,6.02,11.25,1.6.65,9.21,1.31,9.51-.07.07-.43-2.11-3.41-2.4-3.85-4.79-6.67-5.08-9.72-8.13-16.76ZM68.07,166c-5.12-5.29-6.3-7.16-6.77-10.07-.11-3.86-.18-7.73-.03-11.59,0-1.74-.51-2.68,1.02-3.05,4.64-1.09,9.8-.73,14.37.36,3.05,1.23,5.08,2.9,6.46,5.88,1.74,4.5,2.03,9.29.29,13.79-1.87,4.68-4.78,6.83-8.27,7.74-1.72.24-4.26-.15-7.07-3.06Z"/>
    <path class="cls-1" d="M440.69,192.31c-3.7-8.78-5.95-17.34-9.29-26.12-1.89-4.93-8.06-26.99-11.54-28.73-.44,0-3.34,2.54-3.85,2.98-.6.66-1.09,1.59-1.54,2.57l3.77,9.94c-7.71,12.39-14.31,16.12-22.04,28.48-.38.61-2.19,3.56-2.5,7.93-.22,3.16-.22,5.41.92,8.37,2.92,7.56,7.62,9.92,17.31,9.67,3.05-.43,5.8-1.16,8.27-3.12,5.52-4.57,6.46-13.28,6.75-19.95l.07-.73c.05-1.53.04-3.06.04-4.58l2,5.56c.46.78.85,1.89,1.25,3.46,1.09,4.35,3.12,9.07,2.32,13.57-.51,2.83-4.28,2.83-4.57,4.57,1.31.36,18.14.8,18.36-.36.22-1.09-4.93-11.54-5.73-13.49ZM423.18,191.94c-1.23,3.05-2.9,5.08-5.88,6.46-4.5,1.74-9.29,2.03-13.79.29-.05-.02-.1-.04-.15-.06-5.83-2.39-7.69-9.79-4.02-14.91.56-.78,3.22-5.12,3.22-5.12l.11-.2c1.75-3.3,10.05-12.36,14.69-17.76,1.18-1.38,3.41-.91,3.95.81.99,3.13,1.6,5.2,1.81,5.76.22.65.43,1.29.64,1.92,1.08,4.74.49,18.24-.6,22.81Z"/>
    <path class="cls-1" d="M190.31,135.55c-8.65.19-16.61,4.62-23.25,10.63-19.43,17.61-11.81,49.42,10.65,58.65.82.33,1.63.61,2.45.87-.32.08-.65.17-.99.27-1.75.77-2.73,2.07-3.65,2.68,0,0-1.87,2.93,2.99,2.21.66-.05,1.19-.06,1.65-.04.14,0,.29.02.43.04.37.04.71.1,1.03.19,3.92.86,6.73,4.12,8.45,5.76,0,0,1.1,1.01,1.89,1.78,3.12,3.08,11.38,3.83,15.65,2.07,2.03-.84,5.21-4.2,4.54-5.44-2.43-.03-6.91,4.06-13.31.26-2.22-1.32-5.7-5.2-8.03-7.07-.53-.32-1.08-.74-1.68-1.16,18.38.64,35.11-14.2,35.16-35.66-.2-18.8-16.36-36.12-33.97-36.04ZM179.37,200.99c-15.04-8.8-19.09-31.59-11.29-47.05.21,1.23.49,2.42.55,3.39.1,1.58.05,3.17.02,4.76-.27,16.53,12.17,33.87,30.95,29.18,8.87-3.75,7.24-13.87-2.41-6.09-10.54,4.01-18.52-2.3-22.8-11.18-3.75-7.78-4-16.8-1.38-25.04,0-.03.02-.05.02-.08.71-2.24,2.14-4.18,4.07-5.51.69-.48,1.42-.93,2.17-1.35,10.27-5.33,25.2-3.07,30.76,7.57,3.82,7.3,6,14.34,6.06,22.02.81,20-18.08,40.68-36.74,29.39Z"/>
  </g>
</svg>