<?xml version="1.0" encoding="UTF-8"?>
<svg id="Layer_1" data-name="Layer 1" xmlns="http://www.w3.org/2000/svg" viewBox="0 0 531.32 554.18">
  <defs>
    <style>
      .cls-1 {
        fill: #34231a;
      }
    </style>
  </defs>
  <g>
    <path class="cls-1" d="M277.18,143.39c.65.92,1.93,3.42,2.15,4.54,1.09,5.59-1.49,7.11-5.06,7.97-3.33.81-6.79.85-10.16.23-5.48-1.02-10.35-1.36-15.1-5.66-6.79-6.13-10.88-13.32-13.46-22.04-2.46-8.29-3.35-13.89-.05-22.31.65-1.65,2.58-7.13,8.86-13.61,2.93-3.03,13.22-8.49,17.28-8.98,3.27-.4,13.03.3,15.79-.68,2.51-.89,4.28-2.51,4.07-3.61-.28-1.49-3.56-6.25-22.05-5.53-6.1.24-13.98,3.42-18.71,6.97-3.88,2.9-8.49,6.6-11.22,10.65-.68,1.01-1.33,4.03-2.84,3.33-.7-.32.12-3.61.37-4.35.41-1.22,2.09-2.98,2.79-4.16.96-1.64.84-3.1,2.5-4.53,10.37-8.9,15.06-10.36,26.58-12.43,9.3-1.68,16.91.11,26.34,3.53,7.38,2.68,11.06,5.66,16.44,10.93.44.44,2.09,4.7,2.06,5.31-.09,1.97-1.62,4.34-3.62,4.84-5.2,1.29-9.91.1-14.84-1.21-3.16-.84-5.93-2.16-8.89-2.76-5.74-1.18-11.8-2.39-17.96-.9-1.96.47-9.73,4.19-11.23,5.43-1.05.87-4.69,4.36-5.48,5.32-1.55,1.9-4.17,8.42-4.66,10.87-1.38,6.95.91,17.91,3.95,24.35,3.16,6.68,10.97,13.04,18.52,13.23,2.3.06,6.22-.99,6.45-3.36.18-1.94-.36-5.06-3.28-8.3-2.69-2.97-15.87-14.34-11.91-25.01,2.54-6.82,11.58-12.28,18.98-11.72,1.76.13,3.39.68,5.18.91.88.11,3.44,1.23,4.17,1.52,4.26,1.71,5.19,5.25,1.99,4.25-.5-.16-5.02-2.06-5.67-2.3-6.21-2.39-18.15-.06-21.69,5.96-5.08,8.64,7.04,19.45,13.88,25.5,3.12,2.76,7.02,4.29,9.52,7.82Z"/>
    <path class="cls-1" d="M223.55,105.24h0c.4.08.74.4.77.81.06.88-.42,1.82-.62,2.64-.33,1.34-.51,4.42-.64,5.52-.33,2.77.51,11.66.99,14.79,1.95,12.83,10.01,24.78,20.58,31.92,15.81,10.68,32.27,5.84,32.87,5.69,5.91-1.42,12.05-5.71,15.31-7.53,1.37-.76,4.71-3.5,5.83-3.83,2.1-.62,3.75-.66,5.94-1.96,3.04-1.8,7.22-8.89,8.94-12.12,1.84-3.47,3.52-10.57,3.64-14.57.13-3.98-.47-8.67-2.66-12.05-2.77-4.27-6.97-1.54-7.57,3.39-.26,2.11-.93,3.86-1.55,5.71-1.33,3.97-3.48,8.19-6.2,11.37-.99,1.15-3.31,5.14-10.82,4.89-1.23-.04-5.5-.46-5.45-1.77.06-1.73,1.54-.78,2.25-.84,3.33-.32,7.91-.78,10.32-3.43,5.66-6.21,5.54-9.15,5.78-11.23.11-.89-.3-3.76-.41-4.7-1.1-9.88,3.1-15.89,5.54-16.79,2.62-.97,5.44-1.25,7.9.07,1.9,1.02,3.58,2.11,4.6,4.53,5.55,13.08,2.47,32.11-5.47,43.65-5.77,8.39-12.52,13.46-21.03,18.77-6.58,4.11-23.65,5.26-31.11,3.61-9.34-2.06-15.69-5.94-22.89-12.01-13.38-11.27-21.56-31.88-17.69-49.24.34-1.5,1.33-3.27,1.96-4.83.14-.35.52-.55.89-.48Z"/>
    <path class="cls-1" d="M287.78,109.99c1.27.17,2.3,2.49,2.62,3.64,1.29,4.7-1.48,10.77-5.72,13.08-.96.52-3.42,1.16-6.37.8-2.96-.36-7.49-2.48-9.63-4.53-3.72-3.55.22-10.27,5.1-7,2.37,1.59,1.73,4.52,3.44,5.27.53.23,1.81,1.32,4.87.63,2.75-.62,5.59-5,5.24-7.68-.18-1.37-1.38-2.38-.33-3.78.23-.3.37-.48.79-.43Z"/>
    <circle class="cls-1" cx="316.07" cy="89.37" r="3.99"/>
    <circle class="cls-1" cx="213.59" cy="97.67" r="3.99"/>
    <circle class="cls-1" cx="264" cy="180.59" r="3.99"/>
  </g>
  <g>
    <path class="cls-1" d="M149.22,467.08h1.94l-3.01,14.17h-1.94l3.01-14.17Z"/>
    <path class="cls-1" d="M153.23,470.92h1.65l-.31,1.47c.62-.6,1.23-1.04,1.83-1.3.6-.26,1.24-.4,1.91-.4,1.47,0,2.35.51,2.64,1.53.17.56.14,1.36-.08,2.4l-1.41,6.63h-1.77l1.38-6.51c.14-.63.15-1.14.05-1.52-.17-.64-.67-.96-1.48-.96-.41,0-.76.04-1.04.12-.51.14-.99.42-1.44.85-.36.34-.62.69-.79,1.06s-.32.88-.46,1.56l-1.15,5.41h-1.74l2.19-10.33Z"/>
    <path class="cls-1" d="M165.18,468.04h1.76l-.62,2.88h1.65l-.3,1.42h-1.65l-1.44,6.74c-.08.36,0,.6.21.72.12.07.34.11.66.11.08,0,.17,0,.27,0,.1,0,.21-.01.35-.02l-.29,1.37c-.21.06-.43.1-.65.12-.22.03-.46.04-.71.04-.81,0-1.32-.21-1.52-.62-.2-.42-.23-.95-.09-1.62l1.46-6.84h-1.4l.3-1.42h1.4l.62-2.88Z"/>
    <path class="cls-1" d="M177.37,472.55c.24.52.34,1.13.31,1.82,0,.48-.1,1.23-.33,2.28h-7.57c-.19,1.05-.12,1.89.21,2.52.33.63.98.95,1.95.95.91,0,1.69-.3,2.35-.9.39-.35.69-.75.92-1.21h1.71c-.13.38-.37.8-.72,1.27-.35.47-.71.85-1.09,1.14-.64.51-1.36.86-2.18,1.04-.44.1-.93.15-1.46.15-1.29,0-2.28-.47-2.97-1.4s-.86-2.25-.5-3.93c.35-1.66,1.09-3.01,2.21-4.04s2.41-1.55,3.86-1.55c.73,0,1.41.17,2.03.52.62.34,1.04.79,1.28,1.34ZM175.85,475.27c.09-.75.05-1.35-.11-1.8-.3-.84-1-1.25-2.11-1.25-.8,0-1.53.29-2.19.86-.66.58-1.11,1.31-1.33,2.19h5.74Z"/>
    <path class="cls-1" d="M186.38,471.34c.28.23.55.55.79.98l.28-1.3h1.6l-2,9.4c-.28,1.31-.69,2.35-1.24,3.11-1.02,1.4-2.53,2.1-4.53,2.1-1.11,0-2-.25-2.65-.75-.65-.5-.91-1.28-.78-2.34h1.77c-.01.46.08.82.28,1.07.31.39.88.58,1.73.58,1.33,0,2.3-.47,2.91-1.41.36-.55.68-1.54.96-2.96-.46.53-.96.92-1.5,1.18-.54.26-1.22.39-2.02.39-1.12,0-2.01-.4-2.69-1.19-.67-.79-.81-2.11-.42-3.94.37-1.73,1.08-3.08,2.13-4.05,1.05-.97,2.18-1.46,3.37-1.46.81,0,1.48.2,2,.6ZM184.37,472.28c-1.22,0-2.18.57-2.87,1.72-.37.61-.66,1.41-.87,2.4-.25,1.17-.2,2.05.14,2.66.34.61.92.91,1.71.91,1.25,0,2.24-.56,2.99-1.69.42-.64.72-1.38.9-2.23.28-1.28.22-2.23-.18-2.85-.4-.62-1.01-.93-1.82-.93Z"/>
    <path class="cls-1" d="M191.74,470.92h1.65l-.38,1.79c.21-.35.62-.77,1.26-1.27s1.29-.75,1.98-.75c.03,0,.09,0,.16,0,.08,0,.21.02.39.04l-.39,1.83c-.1-.02-.2-.03-.28-.04-.08,0-.18,0-.28,0-.88,0-1.61.28-2.2.84-.59.56-.96,1.21-1.12,1.94l-1.25,5.94h-1.74l2.19-10.33Z"/>
    <path class="cls-1" d="M202.94,475c.41-.05.72-.22.92-.5.11-.15.19-.38.25-.67.13-.59,0-1.02-.36-1.29-.37-.27-.94-.4-1.73-.4-.91,0-1.6.25-2.08.73-.27.27-.49.67-.67,1.21h-1.62c.3-1.27.9-2.16,1.8-2.66.9-.5,1.88-.75,2.92-.75,1.22,0,2.15.23,2.81.7s.88,1.18.68,2.16l-1.26,5.95c-.04.18-.03.33.01.43.05.11.19.16.43.16.08,0,.17,0,.27-.01.1,0,.21-.02.32-.04l-.28,1.28c-.28.08-.5.13-.64.15-.14.02-.34.03-.58.03-.6,0-.99-.21-1.17-.64-.1-.22-.13-.54-.1-.96-.46.46-1.05.87-1.79,1.21s-1.5.51-2.3.51c-.96,0-1.68-.29-2.17-.87-.49-.58-.64-1.31-.45-2.19.21-.96.66-1.7,1.38-2.23.71-.53,1.56-.85,2.56-.97l2.84-.35ZM199.49,480.13c.61,0,1.23-.14,1.87-.42,1.06-.47,1.71-1.24,1.94-2.31l.29-1.4c-.24.14-.53.25-.89.34s-.7.15-1.02.19l-1.08.13c-.65.08-1.15.22-1.5.4-.6.3-.97.79-1.11,1.45-.11.5-.01.9.29,1.19.31.29.71.43,1.21.43Z"/>
    <path class="cls-1" d="M210.22,468.04h1.76l-.62,2.88h1.65l-.3,1.42h-1.65l-1.44,6.74c-.08.36,0,.6.21.72.12.07.34.11.66.11.08,0,.17,0,.27,0,.1,0,.21-.01.35-.02l-.29,1.37c-.21.06-.43.1-.65.12-.22.03-.46.04-.71.04-.81,0-1.32-.21-1.52-.62-.2-.42-.23-.95-.09-1.62l1.46-6.84h-1.4l.3-1.42h1.4l.62-2.88Z"/>
    <path class="cls-1" d="M214.74,470.97h1.77l-2.18,10.29h-1.77l2.18-10.29ZM215.57,467.08h1.77l-.42,1.97h-1.77l.42-1.97Z"/>
    <path class="cls-1" d="M219.99,470.92l.97,8.41,4.67-8.41h1.9l-6.09,10.33h-1.85l-1.62-10.33h2.02Z"/>
    <path class="cls-1" d="M236.68,472.55c.24.52.34,1.13.31,1.82,0,.48-.1,1.23-.33,2.28h-7.57c-.19,1.05-.12,1.89.21,2.52.33.63.98.95,1.95.95.91,0,1.69-.3,2.35-.9.39-.35.69-.75.92-1.21h1.71c-.13.38-.37.8-.72,1.27-.35.47-.71.85-1.09,1.14-.64.51-1.36.86-2.18,1.04-.44.1-.93.15-1.46.15-1.29,0-2.28-.47-2.97-1.4s-.86-2.25-.5-3.93c.35-1.66,1.09-3.01,2.21-4.04s2.41-1.55,3.86-1.55c.73,0,1.41.17,2.03.52.62.34,1.04.79,1.28,1.34ZM235.16,475.27c.09-.75.05-1.35-.11-1.8-.3-.84-1-1.25-2.11-1.25-.8,0-1.53.29-2.19.86-.66.58-1.11,1.31-1.33,2.19h5.74Z"/>
    <path class="cls-1" d="M249.59,467.08h2.17l2.13,14.17h-2.1l-.54-4.25h-5.61l-2.43,4.25h-1.97l8.35-14.17ZM250.96,475.45l-.82-6.26-3.62,6.26h4.44Z"/>
    <path class="cls-1" d="M258.46,467.08h1.74l-3.01,14.17h-1.74l3.01-14.17Z"/>
    <path class="cls-1" d="M261.98,470.97h1.77l-2.18,10.29h-1.77l2.18-10.29ZM262.81,467.08h1.77l-.42,1.97h-1.77l.42-1.97Z"/>
    <path class="cls-1" d="M272.06,471.34c.28.23.55.55.79.98l.28-1.3h1.6l-2,9.4c-.28,1.31-.69,2.35-1.24,3.11-1.02,1.4-2.53,2.1-4.53,2.1-1.11,0-2-.25-2.65-.75-.65-.5-.91-1.28-.78-2.34h1.77c-.01.46.08.82.28,1.07.31.39.88.58,1.73.58,1.33,0,2.3-.47,2.91-1.41.36-.55.68-1.54.96-2.96-.46.53-.96.92-1.5,1.18-.54.26-1.22.39-2.02.39-1.12,0-2.01-.4-2.69-1.19-.67-.79-.81-2.11-.42-3.94.37-1.73,1.08-3.08,2.13-4.05,1.05-.97,2.18-1.46,3.37-1.46.81,0,1.48.2,2,.6ZM270.05,472.28c-1.22,0-2.18.57-2.87,1.72-.37.61-.66,1.41-.87,2.4-.25,1.17-.2,2.05.14,2.66.34.61.92.91,1.71.91,1.25,0,2.24-.56,2.99-1.69.42-.64.72-1.38.9-2.23.28-1.28.22-2.23-.18-2.85-.4-.62-1.01-.93-1.82-.93Z"/>
    <path class="cls-1" d="M277.37,470.92h1.65l-.31,1.47c.62-.6,1.23-1.04,1.83-1.3.6-.26,1.24-.4,1.91-.4,1.47,0,2.35.51,2.64,1.53.17.56.14,1.36-.08,2.4l-1.41,6.63h-1.77l1.38-6.51c.14-.63.15-1.14.05-1.52-.17-.64-.67-.96-1.48-.96-.41,0-.76.04-1.04.12-.51.14-.99.42-1.44.85-.36.34-.62.69-.79,1.06s-.32.88-.46,1.56l-1.15,5.41h-1.74l2.19-10.33Z"/>
    <path class="cls-1" d="M288.36,470.92h1.72l-.31,1.47c.52-.51.97-.88,1.35-1.11.66-.39,1.35-.59,2.07-.59.82,0,1.44.2,1.86.61.23.23.42.57.55,1.02.51-.55,1.05-.96,1.63-1.23.58-.27,1.19-.4,1.84-.4,1.39,0,2.23.5,2.52,1.51.15.54.13,1.27-.06,2.18l-1.46,6.88h-1.8l1.52-7.18c.14-.69.07-1.16-.22-1.42-.29-.26-.68-.39-1.18-.39-.68,0-1.32.23-1.91.68s-1,1.22-1.22,2.29l-1.27,6.01h-1.77l1.43-6.74c.15-.7.17-1.21.08-1.53-.16-.48-.6-.72-1.32-.72-.66,0-1.31.25-1.95.76-.65.51-1.11,1.43-1.39,2.76l-1.16,5.48h-1.74l2.19-10.33Z"/>
    <path class="cls-1" d="M312.48,472.55c.24.52.34,1.13.31,1.82,0,.48-.1,1.23-.33,2.28h-7.57c-.19,1.05-.12,1.89.21,2.52.33.63.98.95,1.95.95.91,0,1.69-.3,2.35-.9.39-.35.69-.75.92-1.21h1.71c-.13.38-.37.8-.72,1.27-.35.47-.71.85-1.09,1.14-.64.51-1.36.86-2.18,1.04-.44.1-.93.15-1.46.15-1.29,0-2.28-.47-2.97-1.4s-.86-2.25-.5-3.93c.35-1.66,1.09-3.01,2.21-4.04s2.41-1.55,3.86-1.55c.73,0,1.41.17,2.03.52.62.34,1.04.79,1.28,1.34ZM310.96,475.27c.09-.75.05-1.35-.11-1.8-.3-.84-1-1.25-2.11-1.25-.8,0-1.53.29-2.19.86-.66.58-1.11,1.31-1.33,2.19h5.74Z"/>
    <path class="cls-1" d="M315.81,470.92h1.65l-.31,1.47c.62-.6,1.23-1.04,1.83-1.3.6-.26,1.24-.4,1.91-.4,1.47,0,2.35.51,2.64,1.53.17.56.14,1.36-.08,2.4l-1.41,6.63h-1.77l1.38-6.51c.14-.63.15-1.14.05-1.52-.17-.64-.67-.96-1.48-.96-.41,0-.76.04-1.04.12-.51.14-.99.42-1.44.85-.36.34-.62.69-.79,1.06s-.32.88-.46,1.56l-1.15,5.41h-1.74l2.19-10.33Z"/>
    <path class="cls-1" d="M327.76,468.04h1.76l-.62,2.88h1.65l-.3,1.42h-1.65l-1.44,6.74c-.08.36,0,.6.21.72.12.07.34.11.66.11.08,0,.17,0,.27,0,.1,0,.21-.01.35-.02l-.29,1.37c-.21.06-.43.1-.65.12-.22.03-.46.04-.71.04-.81,0-1.32-.21-1.52-.62-.2-.42-.23-.95-.09-1.62l1.46-6.84h-1.4l.3-1.42h1.4l.62-2.88Z"/>
    <path class="cls-1" d="M348.32,467.49c1.25.74,1.83,2.04,1.76,3.89h-1.9c-.01-1.04-.33-1.79-.96-2.26-.62-.47-1.49-.71-2.6-.71-1.31,0-2.52.49-3.63,1.47s-1.87,2.45-2.29,4.4c-.36,1.68-.28,3.05.24,4.11.52,1.06,1.61,1.59,3.29,1.59,1.28,0,2.42-.37,3.42-1.11s1.68-1.94,2.05-3.6h-4.44l.35-1.59h6.22l-1.61,7.58h-1.23l-.08-1.82c-.8.71-1.49,1.21-2.05,1.49-.95.48-2.07.71-3.37.71-1.68,0-3.01-.54-3.99-1.63-1.03-1.36-1.29-3.24-.78-5.62.5-2.37,1.55-4.26,3.14-5.66,1.5-1.34,3.23-2.01,5.17-2.01,1.33,0,2.43.26,3.29.77Z"/>
    <path class="cls-1" d="M354.88,470.92l-1.46,6.86c-.11.53-.12.96-.02,1.29.17.62.68.93,1.52.93,1.21,0,2.15-.54,2.82-1.62.36-.58.65-1.37.86-2.38l1.08-5.08h1.74l-2.19,10.33h-1.64l.34-1.52c-.31.39-.66.72-1.05.99-.78.54-1.64.81-2.59.81-1.47,0-2.37-.49-2.69-1.48-.18-.53-.18-1.23,0-2.11l1.5-7.02h1.78Z"/>
    <path class="cls-1" d="M364.13,470.97h1.77l-2.18,10.29h-1.77l2.18-10.29ZM364.96,467.08h1.77l-.42,1.97h-1.77l.42-1.97Z"/>
    <path class="cls-1" d="M374.16,471.24c.27.19.55.53.84,1.01l1.11-5.22h1.67l-3.02,14.22h-1.56l.3-1.44c-.54.64-1.12,1.1-1.73,1.38-.61.28-1.28.42-1.99.42-1.15,0-2.05-.48-2.68-1.45-.64-.97-.78-2.26-.43-3.86.32-1.5.97-2.81,1.98-3.91,1-1.1,2.22-1.65,3.65-1.65.79,0,1.42.17,1.88.5ZM370.64,480.11c.8,0,1.54-.35,2.2-1.04.66-.69,1.13-1.68,1.41-2.98.28-1.31.22-2.27-.18-2.9-.4-.63-.99-.94-1.78-.94-.88,0-1.65.33-2.34,1-.68.67-1.17,1.65-1.44,2.95-.24,1.11-.2,2.03.11,2.78.31.75.99,1.12,2.02,1.12Z"/>
    <path class="cls-1" d="M387.18,472.55c.24.52.34,1.13.31,1.82,0,.48-.1,1.23-.33,2.28h-7.57c-.19,1.05-.12,1.89.21,2.52.33.63.98.95,1.95.95.91,0,1.69-.3,2.35-.9.39-.35.69-.75.92-1.21h1.71c-.13.38-.37.8-.72,1.27-.35.47-.71.85-1.09,1.14-.64.51-1.36.86-2.18,1.04-.44.1-.93.15-1.46.15-1.29,0-2.28-.47-2.97-1.4s-.86-2.25-.5-3.93c.35-1.66,1.09-3.01,2.21-4.04s2.41-1.55,3.86-1.55c.73,0,1.41.17,2.03.52.62.34,1.04.79,1.28,1.34ZM385.66,475.27c.09-.75.05-1.35-.11-1.8-.3-.84-1-1.25-2.11-1.25-.8,0-1.53.29-2.19.86-.66.58-1.11,1.31-1.33,2.19h5.74Z"/>
  </g>
  <g>
    <g>
      <path class="cls-1" d="M188.88,258.16c-1.43-1-1.58-4.87-3.87-7.38-3.72-3.94-7.09-5.95-12.61-5.88-2.51.21-1.72,1.86-1.72,4.08-.14,8.81-1.79,50.87.72,55.74,2.29,4.37,6.09,3.73-3.29,4.08-1,0-9.1.36-9.53-.07-.43-.5,1.86-3.44,2.22-4.73,1.51-4.8,1-13.04,1.07-18.27.14-6.45.43-12.83.36-19.35-.07-4.16-.14-8.31,0-12.47,0-2.22.29-6.88-.93-8.74-1.29-.72-6.95.79-8.31,1.43-4.51,1.93-6.73,5.59-8.1,10.1l-.21.79c-.29,1.15-.65,1.29-1.79,1-.21-4.01,1.51-17.41,2.29-17.41,6.45-.14,38.33-.43,43.99,0-.21,3.87.36,14.9-.29,17.05Z"/>
      <path class="cls-1" d="M269.78,305.16c1.51,2.01,1.51.93,1.22,3.73-1.79.07-13.68.72-14.4-.07-.57-.57,1.79-2.58,2.29-4.08,2.08-6.52,1.43-28.09,1.36-35.97v-1.36c.07-3.94.86-20.71-1.65-22.86-4.23-3.72-2.22-3.37,2.51-3.29,3.08.07,6.09.29,9.17,0,4.08-.29.57,1.72-.43,4.51-1.86,5.02-1.43,15.84-1.51,21.71-.14,6.52-1.51,33.68,1.43,37.69Z"/>
      <path class="cls-1" d="M328.45,245.26c-1.15,1.93-.79,1.86-.93,4.51-.43,6.31-.57,12.61-.79,18.91-.5,10.32-.29,20.13-.57,30.45,0,2.51-.14,5.01-.21,7.52-.07,1.29-1.51,2.44-2.94,1.86-.36-.14-1.07-1.93-1.22-2.22-2.36-4.23-4.51-7.88-6.73-12.18l-3.01-6.23c-5.59-10.68-12.32-20.64-18.27-31.17-4.08-7.31-3.51-6.09-3.22,1.79.36,11.11.36,21.78.14,32.81-.07,5.01-.21,12.68,3.65,16.48,2.65,2.29-9.31,1.86-10.25,1.29-.79-.5.07-.93.79-1.72,3.73-4.59,3.3-10.96,3.37-16.62.14-9.24-.14-18.41-.14-27.66,0-3.15.14-13.76-1-16.34-1-1.29-3.58-2.58-3.87-4.23,1-.72,8.74-.86,10.03-.36,3.08,1.65,8.03,11.25,9.89,14.69,5.59,10.25,10.53,20.71,15.98,30.88.86,1.72,1.51,2.65,2.72,4.09,1.08-9.1,1-18.92,1.29-27.59.07-3.29.93-16.77-.21-18.92-.86-1.58-2.65-2.72-2.8-3.58-.21-1,3.08-.72,3.8-.72,10.53-.07,6.88.14,4.52,4.23Z"/>
      <path class="cls-1" d="M242.64,304.94c-4.73-6.59-5.01-9.6-8.02-16.55-1.08-2.36-2.87-6.45-4.16-8.6-2.29-3.01-5.37-3.51-1.29-5.09,10.82-2.79,14.04-7.24,13.76-18.41-.43-3.01-1.15-5.73-3.08-8.17-4.51-5.45-13.11-6.38-19.7-6.66l-.72-.07c-4.73-.14-9.46-.07-14.19.14-3.94.21-5.37-.57-3.29,3.15,2.65,4.87,2.08,18.27,2.08,26.22-.07,5.16,0,10.39,0,15.55,0,4.16.22,13.54-1.15,17.12-.93,2.58-4.87,4.44-4.23,4.94.64.57,13.97.43,15.69.43,2.51,0,2.79-.07,1.5-1.93-4.51-6.52-3.44-11.82-3.29-19.35,0-2.94-.21-8.24.14-11.04l.04-4.66c-.06-.36.03-1,.03-2.22,0-.25-.01-.5-.02-.76,1.02.56,5.16,3.06,8.48,7.99.3.82.7,1.43.7,1.43,3.51,5.66,5.8,12.97,7.74,19.27,1.22,4.3,1.36,9.1,5.95,11.11,1.58.65,9.1,1.29,9.39-.07.07-.43-2.08-3.37-2.37-3.8ZM212.5,259.29c-.11-3.81-.17-7.63-.02-11.45,0-1.72-.5-2.65,1-3.01,4.59-1.07,9.67-.72,14.19.36,3.01,1.22,5.02,2.87,6.38,5.8,1.72,4.44,2.01,9.17.29,13.61-1.85,4.62-4.72,6.74-8.16,7.64-1.7.23-4.2-.15-6.98-3.02-5.05-5.23-6.22-7.07-6.68-9.94Z"/>
      <path class="cls-1" d="M382.78,295.2c-3.65-8.67-5.88-17.12-9.17-25.8-1.86-4.87-7.96-26.65-11.39-28.37-.43,0-3.3,2.51-3.8,2.94-.59.65-1.08,1.57-1.52,2.54l3.72,9.82h0c-7.61,12.23-14.13,15.92-21.76,28.12-.38.6-2.17,3.52-2.47,7.83-.22,3.12-.22,5.35.91,8.26,2.89,7.46,7.52,9.79,17.09,9.55,3.01-.43,5.73-1.15,8.17-3.08,5.45-4.51,6.38-13.11,6.66-19.7l.07-.72c.05-1.51.04-3.02.04-4.53l1.98,5.49c.45.77.84,1.86,1.23,3.41,1.08,4.3,3.08,8.96,2.29,13.4-.5,2.79-4.23,2.79-4.51,4.51,1.29.36,17.91.79,18.13-.36.21-1.07-4.87-11.39-5.66-13.32ZM365.49,294.83c-1.22,3.01-2.87,5.02-5.8,6.38-4.44,1.72-9.17,2.01-13.61.29-.05-.02-.1-.04-.15-.06-5.75-2.36-7.59-9.67-3.97-14.72.56-.77,3.18-5.06,3.18-5.06l.11-.2c1.73-3.26,9.93-12.2,14.5-17.54,1.16-1.36,3.37-.9,3.9.8.97,3.09,1.58,5.13,1.79,5.69.22.64.43,1.27.64,1.89,1.07,4.68.49,18.01-.59,22.53Z"/>
    </g>
    <g>
      <path class="cls-1" d="M168.71,378.37c-1.07.07-3.58,8.03-4.01,8.89-1.58,3.15-1.79,3.87-4.73,6.16-2.51,1.86-21.6,3.23-24.32,1.65-.79-.64-.72-27.37.21-30.16,1.13-3.08,7.67-2.15,8.81-2.01,1.43.14,3.3.14,4.59.86,1.72.86,1.51,3.29,3.15,3.51.79.07,1.51-10.53.93-11.75-1-2.01-2.51,2.51-3.65,3.23-1.09.71-7.09.96-10.71.85-1.61-.05-2.93-1.3-3.07-2.91-.24-2.68-.28-6.5-.33-7.33-.07-3.65-.5-10.75-.14-14.19,2.15-1.07,8.02-1.07,10.6-1.15,5.01-.14,9.39,2.22,11.68,6.81,1.08,2.22.79,2.87,1.36,4.8.36,1.43,1.93,2.87,2.87,1.43.79-1.29-.29-8.53-.5-10.17-.57-4.66-.43-6.66-5.73-6.23-9.32.72-18.7.43-28.01,0-2.15-.07-3.51-.5-2.72,1.86,1.22,3.58,1.93,4.23,2.08,8.24v.65c.36,13.61.36,27.15.14,40.77,0,3.65.64,8.45-1,11.75-.5,1.08-3.08,3.29-2.94,3.73,1,.79,24.61.64,26.76.64,2.94,0,15.4.29,17.27-.72,1.36-.79,1.58-6.59,1.79-8.03.36-2.15.36-3.08.5-5.23.07-1.51,1.07-6.16-.86-5.95Z"/>
      <path class="cls-1" d="M285.46,330.86c-.57.65,1.79,4.52,1.93,6.38.65,7.88.72,17.05.65,24.93-.07,6.23.14,14.26-.65,20.13-.64,4.73-4.16,9.53-8.96,10.53-4.87.72-10.17-.14-13.83-3.65-5.02-6.16-3.51-26.29-3.3-34.32v-.5c.14-4.73-.21-9.82.21-14.55.43-4.16,2.15-5.16,2.15-9.17-4.09-.07-8.17-.14-12.18,0-2.08,0-3.73-.36-1.86,1.43,3.29,3.01,4.01,4.51,4.08,8.96.07,8.03-.21,16.34-.21,24.43,0,2.94-.07,5.8-.07,8.74.07,4.15.21,8.45,1.58,12.47,2.01,5.59,3.37,6.31,8.38,9.24l.64.36c9.1,4.44,19.63.93,24.15-8.03l.64-1.43c3.8-10.24,1.51-34.68,2.29-46.79.57-8.52,3.87-7.88,4.23-9.31.07-.43-9.24-.64-9.89.14Z"/>
      <path class="cls-1" d="M349.07,378.37c-1.07.07-3.58,8.03-4.01,8.89-1.58,3.15-1.79,3.87-4.73,6.16-2.51,1.86-21.6,3.23-24.32,1.65-.79-.64-.72-29.16.21-31.95.5-1.29,7.67-.36,8.81-.21,1.43.14,3.3.14,4.59.86,1.72.86,1.51,3.29,3.15,3.51.79.07,1.51-10.53.93-11.75-1-2.01-2.51,2.51-3.65,3.23-1.43.93-11.32,1.07-13.18.64-.79-.29-.86-8.74-.93-10.03-.07-3.65-.5-10.75-.14-14.19,2.15-1.07,8.02-1.07,10.6-1.15,5.01-.14,9.39,2.22,11.68,6.81,1.08,2.22.79,2.87,1.36,4.8.36,1.43,1.93,2.87,2.87,1.43.79-1.29-.29-8.53-.5-10.17-.57-4.66-.43-6.66-5.73-6.23-9.32.72-18.7.43-28.01,0-2.15-.07-3.51-.5-2.72,1.86,1.22,3.58,1.93,4.23,2.08,8.24v.65c.36,13.61.36,27.15.14,40.77,0,3.65.64,8.45-1,11.75-.5,1.08-3.08,3.29-2.94,3.73,1,.79,17.2.64,19.35.64,2.94,0,22.82.29,24.68-.72,1.36-.79,1.58-6.59,1.79-8.03.36-2.15.36-3.08.5-5.23.07-1.51,1.07-6.16-.86-5.95Z"/>
      <path class="cls-1" d="M397.92,330.44c-.72,0-4.01-.29-3.8.72.14.86,1.93,2.01,2.8,3.58,1.15,2.15.28,15.62.21,18.92-.29,8.67-.21,18.48-1.29,27.59-1.22-1.44-1.86-2.37-2.72-4.09-5.44-10.17-10.39-20.63-15.98-30.88-1.86-3.44-6.8-13.04-9.89-14.69-1.29-.5-9.03-.36-10.03.36.29,1.65,2.87,2.94,3.87,4.23,1.15,2.58,1,13.18,1,16.34,0,9.24.29,18.41.14,27.66-.07,5.66.36,12.04-3.37,16.62-.72.79-1.58,1.22-.79,1.72.93.57,12.9,1,10.25-1.29-3.87-3.8-3.73-11.46-3.65-16.48.21-11.04.21-21.71-.14-32.81-.29-7.88-.86-9.1,3.22-1.79,5.95,10.53,12.68,20.49,18.27,31.17l3.01,6.23c2.22,4.3,4.37,7.95,6.73,12.18.14.28.86,2.08,1.22,2.22,1.43.57,2.87-.57,2.94-1.86.07-2.51.21-5.01.21-7.52.29-10.32.07-20.13.57-30.45.21-6.3.36-12.61.79-18.91.14-2.65-.22-2.58.93-4.51,2.36-4.09,6.02-4.3-4.52-4.23Z"/>
      <path class="cls-1" d="M104.59,377.8c-1.08-2.36-2.87-6.45-4.16-8.6-2.29-3.01-5.37-3.51-1.29-5.09,10.82-2.79,14.04-7.24,13.76-18.41-.43-3.01-1.15-5.73-3.08-8.17-4.51-5.45-13.11-6.38-19.7-6.66l-.72-.07c-4.73-.14-9.46-.07-14.19.14-3.94.21-5.37-.57-3.29,3.15,2.65,4.87,2.08,18.27,2.08,26.22-.07,5.16,0,10.39,0,15.55,0,4.16.22,13.54-1.15,17.12-.93,2.58-4.87,4.44-4.23,4.94.64.57,13.97.43,15.69.43,2.51,0,2.79-.07,1.5-1.93-4.51-6.52-3.44-11.82-3.29-19.35,0-2.94-.21-8.24.14-11.04l.04-4.66c-.06-.36.03-1,.03-2.22,0-.25-.01-.5-.02-.76,1.02.56,5.16,3.06,8.48,7.99.3.82.7,1.43.7,1.43,3.51,5.66,5.8,12.97,7.74,19.27,1.22,4.3,1.36,9.1,5.95,11.11,1.58.65,9.1,1.29,9.39-.07.07-.43-2.08-3.37-2.37-3.8-4.73-6.59-5.01-9.6-8.02-16.55ZM89.16,358.63c-5.05-5.23-6.22-7.07-6.68-9.94-.11-3.81-.17-7.63-.02-11.45,0-1.72-.5-2.65,1-3.01,4.59-1.07,9.67-.72,14.19.36,3.01,1.22,5.02,2.87,6.38,5.8,1.72,4.44,2.01,9.17.29,13.61-1.85,4.62-4.72,6.74-8.16,7.64-1.7.23-4.2-.15-6.98-3.02Z"/>
      <path class="cls-1" d="M457.1,384.6c-3.65-8.67-5.88-17.12-9.17-25.8-1.86-4.87-7.96-26.65-11.39-28.37-.43,0-3.3,2.51-3.8,2.94-.59.65-1.08,1.57-1.52,2.54l3.72,9.82c-7.61,12.23-14.13,15.92-21.76,28.12-.38.6-2.17,3.52-2.47,7.83-.22,3.12-.22,5.35.91,8.26,2.89,7.46,7.52,9.79,17.09,9.55,3.01-.43,5.73-1.15,8.17-3.08,5.45-4.51,6.38-13.11,6.66-19.7l.07-.72c.05-1.51.04-3.02.04-4.53l1.98,5.49c.45.77.84,1.86,1.23,3.41,1.08,4.3,3.08,8.96,2.29,13.4-.5,2.79-4.23,2.79-4.51,4.51,1.29.36,17.91.79,18.13-.36.21-1.07-4.87-11.39-5.66-13.32ZM439.8,384.23c-1.22,3.01-2.87,5.02-5.8,6.38-4.44,1.72-9.17,2.01-13.61.29-.05-.02-.1-.04-.15-.06-5.75-2.36-7.59-9.67-3.97-14.72.56-.77,3.18-5.06,3.18-5.06l.11-.2c1.73-3.26,9.93-12.2,14.5-17.54,1.16-1.36,3.37-.9,3.9.8.97,3.09,1.58,5.13,1.79,5.69.22.64.43,1.27.64,1.89,1.07,4.68.49,18.01-.59,22.53Z"/>
      <path class="cls-1" d="M209.86,328.56c-8.54.19-16.4,4.56-22.95,10.5-19.19,17.39-11.66,48.8,10.52,57.92.81.32,1.61.6,2.42.86-.32.08-.64.16-.98.27-1.73.76-2.7,2.05-3.61,2.65,0,0-1.84,2.9,2.96,2.18.65-.05,1.17-.06,1.63-.04.14,0,.28.02.42.04.37.04.7.1,1.01.19,3.87.85,6.65,4.07,8.34,5.69,0,0,1.08,1,1.86,1.76,3.08,3.04,11.24,3.79,15.45,2.05,2.01-.83,5.14-4.15,4.48-5.37-2.4-.03-6.83,4-13.14.25-2.2-1.3-5.63-5.14-7.93-6.98-.52-.31-1.07-.73-1.66-1.15,18.15.63,34.67-14.03,34.71-35.21-.2-18.56-16.15-35.67-33.54-35.59ZM199.06,393.17c-14.85-8.69-18.85-31.2-11.14-46.46.21,1.21.48,2.39.54,3.34.1,1.56.05,3.13.02,4.7-.27,16.32,12.01,33.44,30.56,28.81,8.76-3.7,7.15-13.7-2.38-6.02-10.4,3.96-18.28-2.27-22.51-11.04-3.7-7.68-3.95-16.59-1.36-24.72,0-.03.02-.05.02-.08.7-2.21,2.11-4.12,4.02-5.44.69-.47,1.4-.92,2.14-1.33,10.14-5.27,24.88-3.03,30.38,7.47,3.77,7.21,5.93,14.16,5.98,21.74.8,19.74-17.85,40.17-36.28,29.02Z"/>
    </g>
  </g>
</svg>