<?xml version="1.0" encoding="UTF-8"?>
<svg id="Layer_1" data-name="Layer 1" xmlns="http://www.w3.org/2000/svg" viewBox="0 0 195.59 198.07">
  <defs>
    <style>
      .cls-1 {
        fill: #34231a;
      }
    </style>
  </defs>
  <g>
    <path class="cls-1" d="M104.49,121.82c.65.92,1.93,3.41,2.15,4.52,1.08,5.58-1.49,7.09-5.05,7.95-3.32.8-6.78.85-10.13.23-5.47-1.01-10.32-1.36-15.06-5.65-6.77-6.12-10.85-13.29-13.42-21.98-2.45-8.27-3.35-13.85-.05-22.25.64-1.64,2.58-7.11,8.83-13.58,2.93-3.02,13.18-8.46,17.23-8.96,3.26-.4,12.99.3,15.75-.68,2.5-.89,4.26-2.51,4.06-3.6-.28-1.49-3.55-6.23-21.99-5.51-6.08.24-13.94,3.41-18.66,6.95-3.87,2.9-8.46,6.58-11.19,10.62-.68,1.01-1.32,4.02-2.83,3.32-.7-.32.12-3.6.37-4.33.41-1.21,2.09-2.97,2.78-4.15.96-1.63.84-3.09,2.49-4.51,10.34-8.88,15.02-10.33,26.5-12.39,9.28-1.67,16.86.11,26.27,3.52,7.36,2.67,11.03,5.64,16.39,10.9.44.43,2.08,4.69,2.05,5.29-.09,1.96-1.61,4.33-3.61,4.82-5.18,1.29-9.88.1-14.8-1.21-3.16-.84-5.91-2.15-8.86-2.76-5.72-1.17-11.77-2.39-17.91-.9-1.95.47-9.71,4.17-11.2,5.41-1.05.87-4.67,4.35-5.46,5.31-1.55,1.89-4.16,8.39-4.65,10.84-1.38,6.93.91,17.85,3.94,24.28,3.15,6.66,10.94,13,18.47,13.19,2.29.06,6.2-.99,6.43-3.35.18-1.93-.36-5.05-3.27-8.27-2.68-2.96-15.83-14.3-11.87-24.94,2.53-6.8,11.55-12.25,18.93-11.69,1.76.13,3.38.68,5.17.91.87.11,3.43,1.22,4.16,1.52,4.25,1.71,5.17,5.24,1.98,4.24-.5-.16-5-2.05-5.65-2.3-6.19-2.38-18.1-.06-21.63,5.94-5.07,8.62,7.02,19.4,13.84,25.43,3.11,2.75,7,4.28,9.49,7.8Z"/>
    <path class="cls-1" d="M51,83.78h0c.4.08.74.4.77.81.06.88-.42,1.81-.62,2.63-.32,1.33-.51,4.41-.64,5.51-.33,2.77.51,11.63.99,14.75,1.94,12.79,9.99,24.71,20.52,31.83,15.77,10.65,32.18,5.82,32.78,5.68,5.89-1.42,12.01-5.7,15.27-7.51,1.37-.76,4.69-3.49,5.82-3.82,2.09-.62,3.74-.66,5.92-1.95,3.03-1.79,7.2-8.86,8.91-12.09,1.83-3.46,3.51-10.54,3.63-14.53s-.47-8.65-2.66-12.01c-2.77-4.26-6.95-1.54-7.55,3.38-.26,2.1-.93,3.85-1.55,5.7-1.33,3.96-3.47,8.17-6.18,11.34-.98,1.15-3.3,5.12-10.79,4.88-1.22-.04-5.48-.46-5.44-1.76.06-1.73,1.54-.77,2.24-.84,3.32-.32,7.89-.78,10.3-3.42,5.64-6.2,5.52-9.12,5.77-11.2.1-.89-.3-3.75-.41-4.69-1.09-9.85,3.09-15.84,5.53-16.75,2.61-.97,5.43-1.25,7.88.07,1.9,1.02,3.57,2.1,4.59,4.52,5.53,13.04,2.46,32.02-5.45,43.53-5.76,8.37-12.48,13.42-20.97,18.72-6.57,4.1-23.58,5.25-31.03,3.6-9.31-2.06-15.65-5.93-22.83-11.97-13.34-11.24-21.5-31.79-17.64-49.1.33-1.5,1.32-3.26,1.95-4.82.14-.35.52-.55.89-.48Z"/>
    <path class="cls-1" d="M115.06,88.52c1.27.17,2.29,2.48,2.61,3.63,1.28,4.68-1.48,10.74-5.7,13.04-.96.52-3.41,1.15-6.36.8-2.95-.35-7.47-2.48-9.6-4.52-3.71-3.54.22-10.24,5.09-6.98,2.36,1.58,1.72,4.51,3.43,5.26.52.23,1.8,1.31,4.85.63,2.75-.62,5.57-4.99,5.23-7.66-.18-1.37-1.38-2.38-.33-3.77.23-.3.37-.48.78-.43Z"/>
  </g>
  <circle class="cls-1" cx="143.26" cy="67.96" r="3.97"/>
  <circle class="cls-1" cx="41.07" cy="76.24" r="3.97"/>
  <circle class="cls-1" cx="91.33" cy="158.93" r="3.97"/>
</svg>