<?xml version="1.0" encoding="UTF-8"?>
<svg id="Layer_1" data-name="Layer 1" xmlns="http://www.w3.org/2000/svg" viewBox="0 0 210.92 158.4">
  <defs>
    <style>
      .cls-1 {
        fill: #34231a;
      }
    </style>
  </defs>
  <g>
    <path class="cls-1" d="M82.83,64.56c.14.2.41.73.46.97.23,1.2-.32,1.52-1.08,1.71-.71.17-1.46.18-2.18.05-1.17-.22-2.22-.29-3.24-1.21-1.45-1.31-2.33-2.85-2.88-4.72-.53-1.78-.72-2.98-.01-4.78.14-.35.55-1.53,1.9-2.92.63-.65,2.83-1.82,3.7-1.92.7-.09,2.79.06,3.38-.15.54-.19.92-.54.87-.77-.06-.32-.76-1.34-4.72-1.18-1.31.05-2.99.73-4.01,1.49-.83.62-1.82,1.41-2.4,2.28-.15.22-.28.86-.61.71-.15-.07.03-.77.08-.93.09-.26.45-.64.6-.89.21-.35.18-.66.54-.97,2.22-1.91,3.23-2.22,5.69-2.66,1.99-.36,3.62.02,5.64.76,1.58.57,2.37,1.21,3.52,2.34.1.09.45,1.01.44,1.14-.02.42-.35.93-.77,1.04-1.11.28-2.12.02-3.18-.26-.68-.18-1.27-.46-1.9-.59-1.23-.25-2.53-.51-3.85-.19-.42.1-2.09.9-2.41,1.16-.23.19-1,.93-1.17,1.14-.33.41-.89,1.8-1,2.33-.3,1.49.19,3.84.85,5.22.68,1.43,2.35,2.79,3.97,2.83.49.01,1.33-.21,1.38-.72.04-.41-.08-1.09-.7-1.78-.58-.64-3.4-3.07-2.55-5.36.54-1.46,2.48-2.63,4.07-2.51.38.03.73.15,1.11.2.19.02.74.26.89.33.91.37,1.11,1.12.43.91-.11-.03-1.07-.44-1.21-.49-1.33-.51-3.89-.01-4.65,1.28-1.09,1.85,1.51,4.17,2.97,5.46.67.59,1.5.92,2.04,1.68Z"/>
    <path class="cls-1" d="M71.34,56.39h0c.09.02.16.09.17.17.01.19-.09.39-.13.57-.07.29-.11.95-.14,1.18-.07.59.11,2.5.21,3.17.42,2.75,2.15,5.31,4.41,6.84,3.39,2.29,6.91,1.25,7.04,1.22,1.27-.3,2.58-1.22,3.28-1.61.29-.16,1.01-.75,1.25-.82.45-.13.8-.14,1.27-.42.65-.39,1.55-1.9,1.91-2.6.39-.74.75-2.26.78-3.12.03-.85-.1-1.86-.57-2.58-.59-.91-1.49-.33-1.62.73-.06.45-.2.83-.33,1.22-.29.85-.74,1.75-1.33,2.44-.21.25-.71,1.1-2.32,1.05-.26,0-1.18-.1-1.17-.38.01-.37.33-.17.48-.18.71-.07,1.7-.17,2.21-.73,1.21-1.33,1.19-1.96,1.24-2.41.02-.19-.06-.81-.09-1.01-.23-2.12.66-3.4,1.19-3.6.56-.21,1.17-.27,1.69.02.41.22.77.45.99.97,1.19,2.8.53,6.88-1.17,9.35-1.24,1.8-2.68,2.88-4.51,4.02-1.41.88-5.07,1.13-6.67.77-2-.44-3.36-1.27-4.9-2.57-2.87-2.41-4.62-6.83-3.79-10.55.07-.32.28-.7.42-1.03.03-.08.11-.12.19-.1Z"/>
    <path class="cls-1" d="M85.1,57.41c.27.04.49.53.56.78.28,1.01-.32,2.31-1.22,2.8-.21.11-.73.25-1.37.17s-1.6-.53-2.06-.97c-.8-.76.05-2.2,1.09-1.5.51.34.37.97.74,1.13.11.05.39.28,1.04.14.59-.13,1.2-1.07,1.12-1.65-.04-.29-.3-.51-.07-.81.05-.06.08-.1.17-.09Z"/>
    <circle class="cls-1" cx="91.16" cy="52.99" r=".85"/>
    <circle class="cls-1" cx="69.21" cy="54.77" r=".85"/>
    <circle class="cls-1" cx="80.01" cy="72.53" r=".85"/>
  </g>
  <g>
    <path class="cls-1" d="M103.13,84.09l-2.84-4.23.61-.41,3.89,2.8h.01s-1.14-4.65-1.14-4.65l.6-.41,2.84,4.23-.4.27-2.53-3.77h-.01s1.14,4.71,1.14,4.71l-.38.25-3.92-2.84h-.01s2.53,3.78,2.53,3.78l-.4.27Z"/>
    <path class="cls-1" d="M108.06,77.68c.05-.06.11-.14.18-.23.07-.09.12-.17.15-.24.03-.07.02-.14-.02-.21-.04-.07-.08-.13-.13-.17-.15-.16-.32-.24-.52-.25-.2,0-.42.1-.66.33-.11.1-.2.2-.27.3-.07.1-.12.21-.14.32-.02.11-.02.22,0,.34.03.12.09.24.19.37l-.31.29c-.14-.17-.23-.34-.27-.51-.04-.17-.05-.34-.02-.5.03-.16.1-.32.2-.47.1-.15.22-.3.36-.43.13-.13.27-.23.42-.31.15-.08.29-.13.44-.15.15-.02.3,0,.45.06.15.06.3.17.44.32l1.36,1.46c.11.12.21.18.28.17.07,0,.15-.1.24-.27l.23.24s-.04.07-.08.13c-.03.06-.07.11-.12.15-.05.04-.1.08-.15.12-.06.04-.12.06-.17.07-.05,0-.11,0-.16-.02-.05-.02-.1-.05-.15-.08-.05-.04-.09-.08-.14-.13,0,.27-.04.52-.14.75-.1.23-.24.44-.44.63-.12.11-.24.2-.38.27-.14.07-.28.11-.42.12-.14.01-.28,0-.42-.06-.14-.05-.27-.14-.39-.27-.43-.45-.37-1.01.18-1.68l.38-.46ZM108.72,77.35c-.08.18-.18.34-.3.48-.12.14-.24.28-.36.42-.22.24-.36.47-.41.68-.05.21.01.41.18.59.08.08.16.14.25.17.09.03.18.04.27.03s.18-.04.27-.09c.09-.05.17-.1.24-.17.12-.12.23-.24.32-.39.09-.14.15-.29.18-.43.03-.15.03-.3,0-.45-.04-.15-.12-.29-.24-.43l-.39-.42Z"/>
    <path class="cls-1" d="M112.1,78.04s.09-.08.13-.11c.04-.04.09-.08.12-.13.08-.09.11-.19.1-.29,0-.11-.04-.21-.09-.32s-.11-.21-.18-.31c-.07-.1-.12-.19-.15-.27l-3.74-1.26.3-.36,3.17,1.11-1.67-2.91.29-.35,1.91,3.36c.12.21.23.41.32.59.09.18.16.34.2.49.04.15.06.29.04.41-.02.12-.07.24-.16.36-.05.06-.1.11-.15.16-.05.05-.1.09-.15.12l-.31-.26Z"/>
    <path class="cls-1" d="M113.44,69.77l-1.47-2.49.26-.5,1.7,2.96,1.97,1.02-.22.43-1.94-1.01-3.42.28.25-.49,2.87-.2Z"/>
    <path class="cls-1" d="M117.67,66.77c-.08.22-.19.42-.33.59-.14.17-.31.3-.51.4-.2.1-.43.15-.69.16-.26,0-.54-.04-.84-.14-.25-.08-.48-.2-.68-.34-.2-.14-.36-.31-.48-.49-.12-.19-.2-.4-.23-.63-.03-.23,0-.48.09-.75.09-.27.22-.49.38-.66.16-.17.35-.29.56-.37.21-.08.44-.12.68-.11.25,0,.5.06.75.14.28.09.51.21.71.36.2.15.35.32.47.52.11.2.18.41.2.64.02.23,0,.46-.09.7ZM116.23,64.98c-.21-.07-.41-.11-.6-.12-.19-.01-.37,0-.54.05-.16.05-.31.14-.43.26-.12.12-.22.29-.29.51-.07.21-.09.4-.06.58.03.18.1.34.21.47.11.14.24.26.4.36.16.1.34.19.53.25.21.07.42.11.62.12.2,0,.38-.02.54-.07.16-.05.3-.14.42-.27.12-.12.21-.28.28-.47.07-.21.09-.4.05-.58-.03-.18-.1-.34-.21-.47-.11-.14-.24-.26-.4-.36-.16-.1-.33-.19-.52-.25Z"/>
    <path class="cls-1" d="M115.21,60.85l.07-.42,3.61.63-.07.42-.5-.09c.06.07.11.14.17.22.06.08.11.17.15.27.04.1.07.21.09.34.02.13.01.27-.01.43-.04.24-.11.44-.21.59-.1.15-.21.27-.35.34-.14.08-.29.13-.46.14-.17.02-.35,0-.54-.03l-2.38-.41.07-.42,2.37.41c.31.05.56.02.75-.09.19-.12.31-.34.37-.67.03-.17.02-.33-.02-.48s-.12-.28-.22-.39c-.1-.11-.24-.21-.39-.29-.16-.08-.34-.14-.54-.17l-1.96-.34Z"/>
    <path class="cls-1" d="M119.04,59.25l-.03.42-3.66-.23.03-.42.68.04h0c-.29-.15-.48-.31-.58-.51-.1-.19-.15-.44-.13-.75l.46.03c-.02.24,0,.44.08.6.07.16.17.29.3.39.13.1.29.17.47.22s.38.08.58.09l1.79.11Z"/>
    <path class="cls-1" d="M119.08,54.84l-5.07.5-.33-3.37.41-.04.28,2.89,1.83-.18-.26-2.61.41-.04.26,2.61,2.01-.2-.29-2.96.41-.04.34,3.44Z"/>
    <path class="cls-1" d="M119.5,50.07c0-.06,0-.12,0-.17,0-.06-.01-.12-.02-.18-.03-.11-.08-.2-.17-.26-.09-.06-.19-.1-.31-.12-.11-.03-.23-.04-.35-.05-.12,0-.22-.02-.31-.05l-3.3,2.17-.1-.46,2.83-1.81-3.32-.48-.1-.45,3.82.57c.24.03.46.07.66.11.2.04.37.08.51.14.15.06.26.13.35.22.09.09.15.2.18.35.02.07.03.15.03.21,0,.07,0,.13,0,.19l-.39.09Z"/>
    <path class="cls-1" d="M115.9,46.75c.19-.07.35-.15.5-.26.15-.11.27-.23.36-.37.09-.14.14-.29.17-.47.02-.17,0-.35-.07-.54-.09-.26-.24-.46-.44-.6-.2-.14-.44-.2-.72-.17l-.16-.45c.18,0,.36,0,.53.03s.33.09.47.17c.15.08.28.2.39.34.12.14.21.33.29.54.1.28.13.53.11.76-.02.23-.09.44-.21.63-.12.19-.27.35-.47.49-.2.14-.42.25-.68.34-.25.09-.5.14-.75.14-.25,0-.48-.03-.69-.11-.21-.08-.4-.2-.57-.36-.16-.16-.29-.37-.38-.62-.17-.48-.13-.91.1-1.29.23-.39.66-.69,1.29-.9l.94,2.68ZM114.78,44.61c-.17.06-.32.14-.45.24-.13.1-.24.21-.32.34-.08.13-.12.27-.14.43-.02.16,0,.33.07.51.06.18.15.32.26.44.11.11.24.2.39.25.14.06.3.09.47.1.17,0,.33-.01.51-.05l-.79-2.26Z"/>
    <path class="cls-1" d="M114.96,42.68c.25-.2.4-.41.43-.62.04-.21-.02-.46-.16-.75-.07-.14-.15-.25-.23-.33s-.17-.14-.26-.18c-.09-.04-.18-.05-.27-.05-.09,0-.17.02-.25.06-.16.08-.25.19-.28.34-.03.14-.02.3.01.48.03.18.08.36.14.56s.1.39.11.58c.02.19,0,.36-.07.53s-.21.3-.42.41c-.27.14-.55.15-.82.04-.28-.11-.51-.35-.69-.72-.18-.35-.25-.68-.2-.98.04-.3.24-.57.59-.8l.2.39c-.23.16-.36.35-.39.56-.02.21.03.44.15.67.12.24.27.4.43.47.17.07.33.07.5-.02.15-.07.23-.18.26-.33.02-.14.02-.3,0-.48-.03-.18-.07-.37-.13-.57-.05-.2-.09-.39-.1-.59,0-.19.02-.37.08-.53.07-.16.2-.3.41-.41.16-.08.31-.12.46-.11.15,0,.3.05.44.12.14.08.27.19.39.33.12.14.23.31.33.5.1.19.16.38.18.56.02.18,0,.34-.04.5-.05.16-.12.3-.23.42-.1.13-.23.23-.38.32l-.2-.38Z"/>
    <path class="cls-1" d="M112.93,36.97l-3.88,3.29-1.19-1.4c-.19-.23-.33-.44-.42-.64-.09-.2-.14-.39-.14-.56s.04-.34.12-.49c.08-.15.19-.28.34-.41.14-.12.27-.2.4-.25.13-.05.25-.07.37-.07.12,0,.22.02.32.06.1.04.19.1.27.16h.01c-.19-.31-.25-.6-.19-.88.06-.28.22-.53.48-.75.2-.17.4-.28.59-.34.19-.06.38-.07.56-.03s.36.12.53.24c.17.12.33.28.49.46l1.34,1.58ZM110.45,38.44l-.79-.93c-.16-.19-.31-.34-.46-.44-.14-.1-.28-.17-.41-.19s-.26-.02-.38.03c-.12.04-.24.12-.36.22-.12.1-.21.21-.26.32s-.07.23-.04.36c.02.13.08.28.17.43.09.16.23.34.4.54l.72.85,1.4-1.19ZM112.3,36.87l-.79-.93c-.17-.2-.33-.37-.47-.5-.14-.13-.29-.23-.42-.28-.14-.05-.28-.05-.42-.02-.14.04-.3.13-.47.27-.16.14-.27.27-.32.41s-.06.28-.03.43c.03.15.1.3.2.45.1.16.22.32.37.49l.83.98,1.54-1.31Z"/>
    <path class="cls-1" d="M108.16,34.3c.13-.15.23-.31.31-.48.08-.17.12-.33.12-.5,0-.17-.02-.33-.09-.49-.07-.16-.18-.31-.33-.44-.21-.18-.44-.28-.69-.3-.25-.02-.48.05-.71.22l-.36-.31c.15-.1.31-.18.47-.24.16-.06.33-.09.49-.09.17,0,.34.03.51.1.17.07.35.18.52.32.22.19.38.39.48.6.1.21.14.43.13.65,0,.22-.06.44-.16.66-.1.22-.24.43-.41.64-.17.21-.37.37-.58.5-.21.13-.43.21-.65.26-.22.04-.45.03-.67-.02-.22-.06-.44-.17-.64-.34-.38-.33-.57-.72-.57-1.17,0-.45.22-.93.66-1.42l2.16,1.84ZM106.11,33.02c-.12.14-.21.28-.27.43-.06.15-.1.3-.1.45,0,.15.03.3.1.45.07.15.17.28.32.4.14.12.29.2.45.24s.31.05.46.02c.15-.02.3-.08.45-.15.15-.08.29-.18.41-.3l-1.82-1.55Z"/>
    <path class="cls-1" d="M104.21,29.14l-2.39,4.49-1.54-.82c-.12-.07-.25-.14-.36-.21s-.23-.15-.33-.23c-.1-.08-.2-.18-.28-.28-.09-.1-.16-.22-.23-.35-.09-.19-.14-.39-.16-.59-.01-.21,0-.41.04-.61.04-.2.09-.4.16-.59.07-.19.15-.36.23-.51.08-.15.17-.3.27-.44.1-.14.21-.28.33-.4.12-.13.25-.24.39-.33.14-.1.29-.18.46-.23.17-.06.33-.09.49-.1.16,0,.32,0,.48.04.16.03.31.08.46.14.15.06.3.13.46.21l1.54.82ZM103.6,29.27l-1.02-.54c-.19-.1-.38-.19-.56-.25-.18-.07-.38-.1-.61-.1-.19,0-.37.03-.53.11-.16.08-.32.18-.45.3-.14.12-.26.26-.37.42-.11.15-.21.31-.29.46-.09.16-.16.33-.23.51-.07.18-.11.36-.14.54-.02.18-.02.36.01.54.03.18.11.35.22.52.09.14.23.27.4.39.17.12.35.23.54.33l1.02.54,2.01-3.77Z"/>
    <path class="cls-1" d="M98.5,28.23c.07-.19.11-.37.12-.55.01-.18,0-.35-.05-.51s-.13-.3-.25-.43c-.12-.13-.27-.23-.46-.3-.26-.1-.51-.11-.75-.05-.24.07-.43.22-.59.44l-.44-.17c.11-.15.23-.27.36-.38.13-.11.28-.19.44-.25.16-.06.33-.09.51-.08.19,0,.39.05.6.13.27.1.49.24.66.4.16.17.28.36.35.56.07.21.09.43.07.68s-.08.49-.17.74c-.09.25-.22.47-.38.67-.16.19-.33.35-.53.46-.2.12-.41.18-.64.21-.23.02-.47-.01-.71-.11-.47-.18-.78-.48-.93-.91-.15-.43-.1-.95.13-1.56l2.66,1ZM96.14,27.72c-.06.17-.1.33-.11.5,0,.17.01.32.06.46.05.14.13.27.24.39.11.12.26.21.43.27.18.07.34.09.5.08.16-.02.31-.06.44-.14.14-.07.26-.17.37-.3.11-.12.21-.26.29-.42l-2.24-.84Z"/>
    <path class="cls-1" d="M94.66,26.88c.05-.19.07-.38.07-.56,0-.18-.04-.35-.1-.5-.07-.15-.16-.28-.29-.4-.13-.12-.29-.2-.49-.25-.27-.07-.52-.06-.75.03-.23.09-.41.26-.54.5l-.46-.12c.09-.16.2-.29.32-.42s.26-.22.41-.3.32-.12.5-.14c.18-.01.39,0,.61.07.28.07.51.19.69.34.18.15.31.33.4.53.09.2.13.42.14.67,0,.24-.03.49-.1.75s-.17.49-.31.7c-.14.21-.29.38-.48.51-.18.13-.39.22-.62.27-.23.04-.47.03-.72-.03-.49-.13-.83-.4-1.02-.81-.19-.41-.2-.93-.03-1.57l2.75.73ZM92.26,26.61c-.05.17-.07.34-.06.51,0,.16.04.32.11.45.06.14.16.26.28.36.12.1.28.18.46.23.18.05.35.06.51.02.16-.03.3-.09.43-.18.13-.09.24-.2.34-.33.1-.13.18-.28.24-.45l-2.31-.61Z"/>
    <path class="cls-1" d="M91.01,22.75l.42.07-.81,5.04-.42-.07.1-.64h-.01c-.08.1-.17.2-.28.27-.11.08-.23.14-.35.18-.12.04-.25.07-.37.08-.13.01-.25.01-.36,0-.29-.05-.53-.14-.72-.27-.19-.13-.34-.29-.44-.48-.11-.19-.17-.41-.19-.65-.02-.24-.01-.5.03-.76.04-.25.11-.49.21-.71.1-.22.23-.41.39-.56.16-.15.35-.27.57-.34.22-.07.47-.09.74-.04.26.04.49.14.71.29.22.15.38.35.47.59l.32-2ZM90.49,25.97c.03-.21.04-.4,0-.6-.03-.19-.08-.37-.16-.52-.08-.15-.19-.28-.33-.39-.14-.11-.3-.17-.49-.2-.21-.03-.41-.02-.58.04-.17.06-.33.16-.45.29-.13.13-.23.29-.31.48-.08.19-.13.4-.16.63-.04.23-.04.43,0,.62.04.18.1.35.19.48.09.14.21.25.35.34.14.09.3.14.47.17.2.03.38.02.54-.04.17-.05.31-.14.44-.26.12-.12.23-.27.31-.45.08-.18.14-.38.18-.6Z"/>
    <path class="cls-1" d="M84.51,23.44l-.07,5.09h-.48s.07-4.69.07-4.69l-2.73-.04v-.41s3.21.05,3.21.05Z"/>
    <path class="cls-1" d="M80.36,23.47l.2,3.66-.42.02-.2-3.66.42-.02ZM80.63,27.92l.04.63-.47.03-.04-.63.47-.03Z"/>
    <path class="cls-1" d="M78.66,23.57l.66,5.05-.42.05-.41-3.14-1.55,1.96-.57.08,1.19-1.49-1.83-2.12.47-.06,1.62,1.85.6-.74-.18-1.37.42-.06Z"/>
    <path class="cls-1" d="M74.97,25.9c-.05-.19-.11-.37-.2-.53-.09-.16-.2-.29-.33-.4-.13-.1-.28-.17-.45-.22-.17-.04-.35-.04-.55,0-.27.06-.49.19-.65.38-.16.19-.24.42-.24.7l-.46.11c.01-.18.04-.35.09-.52.05-.16.12-.31.22-.45.1-.14.23-.25.38-.35s.35-.18.57-.23c.28-.07.54-.08.77-.03.23.05.43.14.6.28.17.14.32.31.43.52.12.21.21.45.27.71.06.26.08.52.06.76-.02.25-.08.47-.18.68-.1.21-.24.38-.42.53-.18.15-.4.25-.65.31-.49.11-.92.04-1.28-.23-.36-.27-.61-.73-.76-1.37l2.77-.65ZM72.73,26.79c.04.17.1.33.19.47s.19.26.31.35c.12.09.26.15.42.18.16.03.33.03.51-.01.18-.04.34-.12.46-.22.12-.1.22-.22.29-.36.07-.14.12-.29.14-.45.02-.17.03-.34,0-.51l-2.33.55Z"/>
    <path class="cls-1" d="M70.9,30.43l-3.49,1.24-.14-.39,1.52-.54-1.57-4.41.45-.16,1.57,4.41,1.52-.54.14.39Z"/>
    <path class="cls-1" d="M64.9,27.2l2.04,4.67-.39.17-.77-1.77c-.08.23-.19.44-.31.61-.12.18-.3.32-.53.42-.21.09-.42.14-.62.14-.21,0-.41-.05-.61-.18-.13-.09-.24-.19-.31-.31-.07-.12-.14-.25-.2-.39l-.96-2.2.39-.17.96,2.19c.13.3.3.5.5.59.2.09.46.07.77-.06.12-.05.22-.12.31-.2.08-.08.15-.17.21-.26.05-.1.09-.19.11-.3.02-.1.03-.2.02-.3,0-.12-.03-.24-.06-.34-.03-.1-.08-.21-.13-.33l-.79-1.81.39-.17Z"/>
    <path class="cls-1" d="M61.71,30.54c-.09-.18-.2-.33-.33-.46-.13-.13-.27-.23-.42-.3-.15-.07-.31-.1-.49-.1-.17,0-.35.05-.53.14-.25.13-.42.3-.53.52s-.13.47-.06.73l-.42.22c-.04-.18-.05-.35-.04-.52,0-.17.04-.34.1-.49.06-.16.16-.3.28-.44.13-.13.29-.26.5-.36.26-.14.51-.21.74-.22.23-.01.45.03.65.12.2.09.38.22.55.4.17.18.31.38.44.62.12.24.21.48.25.73s.04.48,0,.7c-.05.22-.14.43-.27.61-.14.19-.32.34-.56.46-.45.23-.88.26-1.29.09-.42-.17-.77-.55-1.07-1.14l2.52-1.31ZM59.75,31.96c.08.16.18.3.3.41.12.12.25.21.38.26.14.06.29.08.45.08.16,0,.33-.06.49-.14.17-.09.3-.2.39-.33.09-.13.16-.27.2-.42.04-.15.04-.31.03-.48-.02-.17-.06-.33-.12-.49l-2.12,1.1Z"/>
    <path class="cls-1" d="M56.32,33.32c-.14-.18-.29-.31-.45-.4-.16-.08-.32-.13-.48-.14-.16,0-.33.01-.49.07-.17.06-.33.14-.49.25-.19.13-.34.26-.44.4-.11.14-.17.28-.21.42-.03.14-.03.27,0,.41s.08.26.16.38c.11.17.24.27.38.32.14.05.29.07.46.06.16-.01.33-.05.52-.12.18-.06.37-.13.55-.2s.38-.13.56-.19c.19-.05.37-.08.55-.07.18,0,.35.05.51.14s.32.23.46.44c.1.15.16.31.19.48.03.18.02.36-.03.55-.05.18-.14.37-.28.55-.14.18-.32.35-.56.51-.24.16-.47.27-.69.32-.22.05-.43.06-.63.02-.2-.04-.37-.11-.53-.23-.16-.11-.3-.26-.41-.43l.38-.25c.11.16.23.28.36.36.14.08.28.12.42.13.15,0,.3-.01.45-.06.15-.05.29-.12.42-.21.2-.14.36-.28.46-.43.1-.15.16-.3.18-.44.02-.15.01-.28-.03-.42-.04-.13-.11-.24-.2-.34-.12-.12-.24-.19-.39-.22-.14-.02-.29-.02-.45,0-.16.03-.33.08-.5.15-.17.07-.35.13-.53.2-.18.07-.36.12-.54.17-.18.05-.36.07-.53.06-.17,0-.34-.06-.5-.15-.16-.09-.31-.24-.44-.44-.26-.39-.33-.79-.2-1.18.13-.4.43-.76.92-1.09.22-.15.44-.25.67-.32.23-.07.45-.09.66-.07.21.02.42.1.61.22.19.12.36.29.52.53l-.39.26Z"/>
    <path class="cls-1" d="M52.81,36.01c-.12-.16-.26-.29-.41-.39-.15-.11-.3-.18-.46-.22-.16-.04-.33-.04-.5,0-.17.04-.34.12-.5.24-.22.17-.36.38-.43.61-.07.24-.04.48.07.73l-.37.29c-.07-.17-.11-.34-.14-.51-.02-.17-.02-.34.01-.5.03-.17.1-.33.2-.48.1-.16.24-.31.42-.45.23-.18.46-.3.69-.35.23-.05.45-.05.66,0,.21.05.42.15.61.29s.38.32.54.53c.17.21.29.43.38.67.08.23.12.46.12.69,0,.23-.06.45-.16.65-.1.21-.25.39-.46.56-.4.31-.81.42-1.25.32-.44-.09-.86-.4-1.26-.92l2.24-1.76ZM51.15,37.76c.11.14.23.26.37.35.14.09.28.16.43.19.15.03.3.03.46,0,.16-.04.31-.11.46-.23.15-.12.26-.25.33-.39.07-.14.11-.29.11-.45,0-.16-.01-.31-.06-.47-.05-.16-.12-.31-.21-.46l-1.88,1.48Z"/>
    <path class="cls-1" d="M48.9,39.8c-.05.06-.11.14-.18.22-.07.09-.12.17-.15.24-.03.07-.02.14.02.21.04.07.08.13.13.18.15.16.32.24.51.25.2,0,.42-.1.66-.32.11-.1.2-.2.27-.3.07-.1.12-.21.15-.32s.02-.22,0-.34c-.03-.12-.09-.24-.18-.37l.32-.29c.14.17.22.34.27.51.04.17.04.34,0,.5-.03.16-.1.32-.2.47-.1.15-.22.3-.37.43-.14.12-.28.23-.42.31-.15.08-.29.13-.44.15-.15.02-.29,0-.44-.07-.15-.06-.3-.17-.44-.33l-1.35-1.47c-.11-.12-.2-.18-.28-.17s-.15.1-.24.26l-.22-.25s.04-.07.08-.13c.03-.06.07-.11.12-.15.05-.04.1-.08.15-.11.06-.04.12-.06.17-.06s.11,0,.16.02c.05.02.1.05.15.08.05.04.09.08.14.13,0-.27.05-.52.15-.75.1-.23.25-.44.45-.62.12-.11.25-.2.38-.27.14-.07.28-.11.42-.12.14-.01.28,0,.42.06.14.05.26.14.38.27.42.46.35,1.02-.2,1.68l-.38.45ZM48.23,40.12c.08-.18.18-.34.3-.48.12-.14.24-.28.37-.41.22-.24.36-.46.41-.68.05-.21,0-.41-.18-.6-.08-.08-.16-.14-.25-.17-.09-.03-.18-.04-.27-.03-.09,0-.18.04-.27.08-.09.05-.17.1-.24.17-.12.11-.23.24-.32.38-.09.14-.15.28-.18.43-.03.15-.03.3,0,.45.04.15.11.29.24.43l.39.42Z"/>
    <path class="cls-1" d="M45.04,40.3c-.15-.14-.23-.29-.26-.45-.02-.16,0-.31.07-.45l.19.18c-.01.07-.01.14,0,.23.01.08.07.17.17.27l.17.17.17-.17.45.43-.36.37-.6-.58Z"/>
    <path class="cls-1" d="M43.9,45.95l.99,2.72-.34.44-1.13-3.22-1.75-1.37.3-.38,1.72,1.34,3.41.36-.34.43-2.86-.33Z"/>
    <path class="cls-1" d="M39.18,47.88c.13-.2.29-.36.46-.49s.38-.21.59-.26c.22-.04.45-.04.7.02.25.06.51.17.78.34.22.15.42.31.58.5.16.19.27.39.34.6.07.21.09.44.06.67s-.12.47-.27.71c-.16.24-.33.42-.53.55-.2.12-.41.2-.63.22-.22.03-.45,0-.68-.07-.24-.07-.47-.18-.69-.32-.25-.16-.45-.33-.6-.53-.15-.2-.26-.4-.32-.62-.06-.22-.08-.44-.04-.66.04-.23.12-.45.26-.66ZM40.12,49.97c.18.12.37.21.55.27.18.06.36.09.53.08.17,0,.33-.06.48-.14.15-.09.29-.23.41-.42.12-.19.19-.37.2-.55.01-.18-.02-.35-.08-.51-.07-.16-.17-.31-.3-.45s-.28-.26-.45-.37c-.19-.12-.38-.21-.57-.27-.19-.06-.37-.08-.54-.07-.17.01-.33.07-.48.16-.15.09-.28.22-.39.39-.12.19-.19.37-.2.55-.01.18.02.35.08.51.07.16.17.31.3.45.13.14.28.26.44.37Z"/>
    <path class="cls-1" d="M39.9,54.17l-.2.38-3.24-1.7.2-.37.45.24c-.03-.08-.06-.17-.09-.26-.03-.1-.05-.2-.06-.31,0-.11,0-.23.02-.35.02-.13.07-.26.14-.4.11-.22.24-.38.38-.5.14-.11.28-.19.44-.22.16-.03.32-.03.48,0,.17.03.33.1.5.19l2.13,1.12-.2.38-2.13-1.12c-.28-.15-.53-.19-.74-.14-.22.05-.4.23-.56.52-.08.15-.12.31-.13.46,0,.16.03.3.09.44.06.14.16.27.29.4.13.12.28.24.46.33l1.76.93Z"/>
    <path class="cls-1" d="M35.77,54.39l.17-.39,3.36,1.46-.17.39-.63-.27h0c.22.24.35.46.38.68.03.22-.01.47-.14.75l-.42-.18c.1-.22.14-.42.13-.59-.01-.18-.06-.33-.15-.47-.09-.14-.21-.26-.37-.37-.16-.11-.33-.2-.51-.28l-1.65-.72Z"/>
    <path class="cls-1" d="M34.17,58.43l4.89,1.41-.13.46-2.1-.6-.83,2.9,2.1.6-.13.46-4.89-1.41.13-.46,2.4.69.83-2.9-2.4-.69.13-.46Z"/>
    <path class="cls-1" d="M34.44,64.15c-.2-.03-.38-.04-.57-.02-.18.02-.35.07-.49.14-.15.08-.27.18-.37.32-.1.14-.17.31-.21.51-.05.27-.02.52.09.74.11.22.29.39.54.5l-.08.47c-.16-.08-.31-.18-.44-.29-.13-.11-.24-.24-.33-.38-.09-.15-.14-.31-.17-.49s-.02-.39.02-.61c.05-.29.15-.53.28-.72.13-.19.3-.34.49-.44.19-.1.41-.17.65-.19.24-.02.49-.01.76.04.27.05.51.13.72.25.22.12.4.26.55.44.15.17.25.37.32.59.06.22.07.46.02.72-.09.5-.33.85-.72,1.08-.39.22-.91.27-1.56.15l.5-2.8ZM34.37,66.57c.18.03.35.04.51.02.16-.02.31-.07.44-.14.13-.07.24-.18.34-.31.09-.13.16-.29.19-.48.03-.18.03-.36-.02-.51s-.12-.29-.21-.41c-.1-.12-.22-.23-.36-.31-.14-.09-.3-.16-.47-.21l-.42,2.35Z"/>
    <path class="cls-1" d="M34.06,69.59c0,.08,0,.18.02.29s.03.21.05.28c.03.07.08.12.15.15.08.02.15.04.21.04.22.02.4-.03.55-.16.15-.12.24-.35.27-.68.01-.15.01-.28,0-.4-.01-.13-.05-.24-.1-.33-.06-.1-.13-.18-.23-.25-.1-.07-.23-.12-.39-.15l.04-.43c.21.03.39.1.54.2.14.1.26.22.34.36.08.14.14.3.17.49.03.18.03.37.01.57-.02.18-.05.35-.11.51-.06.16-.13.29-.23.4-.1.11-.22.19-.38.25-.15.05-.33.07-.54.05l-1.98-.19c-.17-.02-.27,0-.32.06-.05.05-.05.17,0,.36l-.33-.03s-.02-.08-.03-.15c-.01-.07-.02-.13,0-.19,0-.07.02-.13.04-.19.02-.07.04-.12.08-.16.04-.04.08-.07.14-.09.05-.02.11-.03.17-.04s.12,0,.19,0c-.18-.2-.31-.42-.39-.66-.08-.24-.11-.49-.08-.76.01-.16.05-.31.11-.45.06-.15.13-.27.23-.37.1-.1.22-.18.35-.24.14-.05.29-.07.47-.05.62.06.95.52.98,1.38l.02.59ZM33.78,70.28c-.06-.19-.09-.37-.1-.56,0-.18,0-.37,0-.55,0-.33-.04-.59-.15-.78-.11-.19-.28-.3-.53-.32-.11-.01-.21,0-.3.04-.09.04-.16.09-.22.16-.06.07-.11.15-.14.24-.03.09-.06.19-.07.29-.02.17,0,.34.02.5.03.16.08.31.15.44.08.13.18.24.3.33.13.09.28.14.46.16l.57.05Z"/>
    <path class="cls-1" d="M31.76,72.3v-.42s3.67.11,3.67.11v.42s-.7-.02-.7-.02h0c.29.14.49.3.6.49.11.19.16.44.15.74h-.46c.01-.25-.02-.45-.1-.61-.08-.16-.18-.29-.31-.38-.13-.1-.29-.16-.48-.2s-.38-.06-.58-.07l-1.79-.05Z"/>
    <path class="cls-1" d="M31.73,75.6c-.01-.05-.03-.12-.05-.2-.02-.08-.04-.18-.04-.28,0-.21.05-.37.15-.48.11-.11.29-.17.57-.17l2.68-.02v-.52s.35,0,.35,0v.52s1.02,0,1.02,0v.42s-1.01,0-1.01,0v.69s-.35,0-.35,0v-.69s-2.52.02-2.52.02c-.09,0-.17,0-.23,0-.07,0-.12.02-.16.04-.04.02-.07.06-.09.11-.02.05-.03.12-.03.21,0,.06,0,.11.02.17,0,.06.02.12.04.17h-.35Z"/>
    <path class="cls-1" d="M31.83,78.51l5.07-.41.15,1.83c.02.3.01.55-.03.77-.04.22-.12.39-.22.54-.1.14-.23.25-.38.33s-.32.12-.51.13c-.18.01-.33,0-.47-.03-.13-.04-.25-.09-.34-.16-.09-.07-.17-.15-.23-.24-.06-.09-.1-.19-.13-.29h-.01c-.02.36-.14.63-.35.82-.21.19-.49.3-.82.33-.26.02-.49,0-.68-.07-.19-.07-.35-.17-.47-.3s-.22-.3-.29-.51c-.07-.2-.11-.42-.13-.66l-.17-2.07ZM32.28,78.96l.1,1.22c.02.26.05.49.09.68.04.19.1.35.18.47.08.12.19.21.33.26.14.05.32.07.54.05.21-.02.38-.07.5-.15.12-.08.22-.19.27-.33.06-.14.1-.3.11-.48.01-.19,0-.39-.01-.62l-.1-1.28-2.01.17ZM34.71,78.76l.1,1.21c.02.25.06.46.11.62.06.17.13.3.22.39.09.1.2.16.32.2.12.03.26.05.42.03.16-.01.29-.05.4-.11.11-.06.19-.15.25-.27.06-.12.1-.27.11-.45.02-.18.01-.41,0-.67l-.09-1.11-1.83.15Z"/>
    <path class="cls-1" d="M34.03,83.35c-.2.03-.38.08-.54.16-.17.08-.31.17-.42.29-.11.12-.2.26-.25.42-.05.17-.07.35-.04.55.04.28.14.5.32.68.17.18.4.28.67.3l.07.47c-.18-.03-.35-.07-.51-.14-.16-.06-.3-.15-.43-.26s-.23-.25-.32-.41c-.08-.16-.14-.36-.18-.59-.04-.29-.03-.55.04-.77.07-.22.18-.42.33-.58.15-.16.34-.29.56-.39.22-.1.46-.17.73-.2.27-.04.52-.04.76,0,.25.04.46.12.66.24s.36.27.49.46c.13.19.21.42.25.68.07.5-.04.92-.35,1.25-.3.33-.78.55-1.43.63l-.4-2.81ZM34.72,85.67c.18-.02.34-.07.49-.15s.27-.16.38-.27c.1-.11.17-.25.22-.4.05-.15.06-.32.03-.51-.03-.19-.09-.35-.18-.48-.09-.13-.2-.24-.33-.32-.13-.08-.28-.14-.44-.18-.16-.04-.33-.05-.51-.05l.34,2.37Z"/>
    <path class="cls-1" d="M34.81,89.31c-.22.07-.39.16-.53.28-.13.12-.24.25-.3.4-.07.15-.1.31-.11.49,0,.18.01.36.06.54.05.22.12.41.22.55s.2.26.32.34c.12.08.24.13.38.15.13.02.27.01.41-.02.19-.04.34-.12.44-.24.1-.11.17-.25.21-.41.04-.16.07-.33.07-.52,0-.19,0-.39,0-.59,0-.2,0-.4.03-.59.02-.19.06-.37.13-.54.07-.16.17-.31.31-.43.14-.12.33-.21.57-.27.17-.04.34-.04.52,0,.18.03.34.11.5.22.16.11.3.26.42.46.12.19.22.43.28.71.06.28.08.53.05.76-.03.23-.1.43-.2.6-.1.17-.24.31-.4.42-.16.11-.35.19-.55.24l-.1-.45c.19-.04.34-.12.47-.21.12-.1.21-.22.28-.35.06-.14.09-.28.1-.44,0-.16,0-.31-.04-.47-.06-.24-.14-.43-.24-.58-.1-.15-.22-.26-.35-.33-.13-.07-.26-.11-.4-.12-.14,0-.27.02-.39.07-.15.07-.27.16-.34.28-.07.12-.12.27-.15.43-.03.16-.04.33-.04.52,0,.19,0,.38,0,.57,0,.19-.01.38-.03.57-.02.19-.06.36-.13.51-.07.16-.17.29-.31.41-.14.12-.33.2-.57.26-.46.11-.85.03-1.18-.23-.33-.26-.56-.67-.69-1.25-.06-.26-.08-.5-.07-.74.01-.23.07-.45.17-.64.1-.19.24-.35.42-.49s.4-.24.67-.3l.11.45Z"/>
    <path class="cls-1" d="M34.65,95.2c-.06-.23-.08-.45-.07-.67s.08-.43.19-.62c.11-.19.27-.37.47-.52.21-.15.46-.28.77-.37.26-.08.51-.11.75-.11.25,0,.47.04.68.13.21.09.39.22.55.39.16.18.28.4.36.67.08.27.11.53.07.76-.04.23-.12.44-.24.63s-.29.34-.5.48c-.21.13-.44.24-.7.31-.28.08-.54.12-.79.11-.25,0-.48-.06-.68-.16-.21-.1-.38-.23-.53-.4-.15-.18-.26-.38-.33-.63ZM36.86,95.85c.21-.06.4-.14.56-.24.17-.1.3-.22.41-.35.1-.14.17-.29.21-.46.03-.17.02-.37-.05-.58-.06-.21-.16-.38-.29-.51-.13-.13-.28-.22-.44-.27-.17-.05-.35-.08-.54-.07-.19,0-.38.04-.57.1-.22.06-.41.15-.58.26-.17.11-.3.23-.4.37-.1.14-.17.29-.19.46-.03.17-.01.35.04.55.06.21.16.38.29.51.13.13.28.22.44.27.17.05.35.08.54.07.19,0,.38-.04.57-.1Z"/>
    <path class="cls-1" d="M35.56,97.73l4.82-1.65.14.4-4.81,1.66-.14-.4Z"/>
    <path class="cls-1" d="M36.11,99.29l3.43-1.28.15.4-3.43,1.27-.15-.4ZM40.29,97.71l.59-.22.16.44-.59.22-.16-.44Z"/>
    <path class="cls-1" d="M42.47,101.43l.17.39-4.68,2-.17-.39.59-.25h0c-.14-.02-.27-.05-.39-.11-.12-.05-.23-.12-.34-.2s-.19-.17-.27-.27c-.08-.1-.14-.21-.19-.31-.12-.27-.17-.52-.16-.75,0-.23.07-.44.17-.63.11-.19.25-.36.45-.51.19-.15.41-.28.66-.38.23-.1.47-.17.71-.2.24-.03.47-.02.69.04.22.05.41.15.59.3s.32.35.43.6c.1.24.15.49.13.75-.01.26-.1.5-.25.72l1.85-.79ZM39.48,102.7c.19-.08.36-.18.51-.31.15-.12.27-.26.35-.42.09-.15.14-.31.15-.49.01-.17-.01-.35-.09-.53-.09-.2-.2-.36-.34-.48-.14-.11-.3-.19-.48-.22-.18-.04-.37-.04-.57,0-.2.03-.41.1-.62.2-.21.09-.39.2-.52.33-.14.13-.24.27-.31.42-.07.15-.1.31-.1.47,0,.16.04.33.11.49.08.18.18.33.32.44.13.11.29.19.46.23.17.04.35.05.55.02.2-.02.4-.08.6-.17Z"/>
    <path class="cls-1" d="M39.46,106.88l4.45-2.47.23.42-4.09,2.27,1.32,2.39-.36.2-1.56-2.81Z"/>
    <path class="cls-1" d="M41.48,110.4l3.11-1.93.22.36-3.11,1.93-.22-.36ZM45.26,108.04l.54-.33.25.4-.54.33-.25-.4Z"/>
    <path class="cls-1" d="M42.34,111.79l4.19-2.88.24.35-2.61,1.79,2.45.49.33.48-1.87-.38-1.06,2.59-.27-.39.91-2.29-.93-.2-1.14.79-.24-.35Z"/>
    <path class="cls-1" d="M46.04,114.02c-.16.12-.29.26-.39.41s-.18.31-.21.47c-.04.16-.04.33,0,.5.04.17.12.33.24.49.17.22.38.36.62.42.24.06.48.04.73-.08l.3.37c-.17.07-.34.12-.51.14-.17.03-.34.02-.5,0-.17-.03-.33-.09-.48-.19-.16-.1-.31-.24-.45-.42-.18-.23-.3-.46-.36-.68-.06-.23-.06-.45,0-.66.05-.21.14-.42.28-.62s.32-.38.53-.55c.21-.17.43-.29.66-.38.23-.09.46-.13.69-.13.23,0,.45.05.66.15.21.1.39.25.56.46.31.39.43.81.33,1.25-.09.44-.4.87-.91,1.27l-1.78-2.22ZM47.81,115.67c.14-.11.26-.24.35-.37.09-.14.15-.28.18-.43.03-.15.03-.3-.01-.46-.04-.16-.12-.31-.23-.46-.12-.15-.25-.26-.39-.32-.15-.07-.29-.1-.45-.11-.16,0-.31.02-.47.07-.16.05-.31.12-.46.21l1.49,1.87Z"/>
    <path class="cls-1" d="M48.3,119.41l4.98-2.27.39.38-2.13,5.02-.36-.34.69-1.56-1.67-1.61-1.54.73-.36-.34ZM50.6,118.84l1.43,1.39,1.14-2.62-2.57,1.23Z"/>
    <path class="cls-1" d="M53.9,124.51l2.93-4.16.6.42-1.22,4.63h.01s3.93-2.72,3.93-2.72l.59.42-2.93,4.16-.39-.28,2.62-3.71h-.01s-3.98,2.74-3.98,2.74l-.37-.26,1.25-4.67h-.01s-2.62,3.7-2.62,3.7l-.39-.28Z"/>
    <path class="cls-1" d="M60.25,128.77c-.2-.12-.38-.26-.51-.43-.14-.17-.24-.36-.29-.58-.06-.22-.06-.45-.03-.7.04-.25.14-.52.29-.8.13-.24.28-.44.46-.61.17-.17.37-.29.58-.38.21-.08.43-.12.67-.1.23.02.47.09.72.23.25.14.44.31.58.5.14.19.22.4.26.62.04.22.03.45-.02.69-.06.24-.15.48-.28.71-.14.26-.31.47-.49.63-.18.17-.38.29-.6.36-.21.08-.43.1-.66.08-.23-.02-.45-.09-.68-.22ZM62.28,127.69c.11-.19.18-.38.23-.57.05-.19.07-.37.05-.54-.02-.17-.08-.33-.17-.47-.1-.15-.24-.27-.44-.38-.19-.11-.38-.16-.56-.16-.18,0-.35.04-.51.12-.16.08-.3.19-.43.32-.13.14-.25.3-.34.47-.11.2-.19.39-.23.59-.04.19-.06.37-.03.54.02.17.08.33.18.47.1.14.24.26.42.36.19.11.38.16.56.16s.35-.04.51-.12c.16-.08.3-.19.43-.33.13-.14.25-.29.34-.46Z"/>
    <path class="cls-1" d="M66.48,127.65l.39.18-1.51,3.33-.39-.18.21-.46c-.08.04-.17.07-.26.11-.09.04-.2.06-.3.08-.11.02-.23.02-.35,0-.13-.01-.27-.05-.41-.12-.22-.1-.4-.22-.52-.35-.12-.13-.2-.27-.25-.43-.04-.15-.05-.31-.02-.48.03-.17.08-.34.16-.51l1-2.2.39.18-.99,2.19c-.13.29-.16.54-.1.75.06.21.25.39.55.53.16.07.32.11.47.1.15,0,.3-.04.44-.12.14-.07.26-.18.38-.31.12-.13.22-.29.3-.48l.82-1.82Z"/>
    <path class="cls-1" d="M66.92,131.78l-.4-.14,1.24-3.44.4.14-.17.48c.22-.11.44-.19.64-.23.21-.04.43-.02.67.06.21.08.4.18.55.32.16.14.26.32.32.55.04.15.04.3.01.44-.03.14-.07.28-.12.42l-.81,2.25-.4-.14.81-2.25c.11-.31.13-.57.05-.77-.08-.21-.28-.36-.6-.48-.12-.04-.24-.07-.36-.06s-.23.02-.33.05c-.1.03-.2.08-.29.14-.09.06-.16.13-.22.2-.08.1-.14.19-.19.29-.05.1-.09.21-.13.33l-.67,1.86Z"/>
    <path class="cls-1" d="M71.63,133.35c-.05,0-.12,0-.21-.01s-.18-.02-.28-.05c-.2-.06-.34-.16-.42-.29-.08-.13-.08-.33,0-.59l.76-2.57-.5-.15.1-.34.49.15.29-.98.41.12-.29.98.66.19-.1.34-.66-.2-.71,2.41c-.03.09-.05.16-.06.23-.02.06-.02.12,0,.17,0,.05.04.09.08.12s.11.06.19.09c.05.02.11.03.17.04s.12.01.18.01l-.1.33Z"/>
    <path class="cls-1" d="M74.6,131.89c.08.01.18.02.29.02.11,0,.21,0,.28-.01.08-.02.13-.06.17-.13.03-.07.06-.14.07-.2.05-.21.02-.4-.08-.57-.1-.17-.32-.29-.64-.37-.14-.03-.28-.05-.4-.06s-.24.02-.34.06c-.1.04-.2.11-.28.19-.08.09-.15.21-.21.36l-.42-.1c.06-.21.16-.38.27-.5.12-.13.25-.23.41-.29.15-.06.32-.1.5-.1s.37.02.56.06c.18.04.34.1.49.18.15.08.27.17.37.28.1.11.16.25.19.41.03.16.03.34-.02.55l-.46,1.94c-.04.16-.03.27.01.33.05.06.16.07.35.05l-.08.32s-.08,0-.15,0c-.07,0-.13,0-.19-.02-.06-.01-.12-.04-.18-.06-.07-.02-.12-.06-.15-.1-.03-.04-.06-.09-.07-.15-.01-.05-.02-.11-.01-.17,0-.06.01-.12.03-.19-.22.15-.46.25-.7.3-.25.05-.5.04-.76-.02-.16-.04-.3-.09-.44-.17-.13-.08-.25-.17-.34-.28-.09-.11-.15-.24-.18-.38-.04-.14-.03-.3.01-.47.14-.6.64-.86,1.5-.78l.59.06ZM75.24,132.26c-.19.03-.38.04-.56.02-.18-.02-.37-.04-.55-.07-.32-.05-.58-.04-.79.04-.21.08-.34.24-.39.48-.03.11-.03.21,0,.3s.07.17.12.24c.06.07.13.13.22.17.09.05.18.08.28.11.17.04.33.06.5.05.17,0,.32-.03.46-.09.14-.06.26-.14.37-.26.1-.11.18-.26.22-.44l.13-.56Z"/>
    <path class="cls-1" d="M76.51,134.48l.67-3.6.42.08-.67,3.6-.42-.08ZM77.31,130.09l.12-.62.46.09-.12.62-.46-.09Z"/>
    <path class="cls-1" d="M78.55,134.84l-.42-.06.5-3.63.42.06-.07.51c.19-.15.39-.27.58-.36.19-.09.42-.11.67-.08.22.03.43.1.61.2.18.1.32.26.43.47.07.14.1.28.1.42,0,.14-.01.28-.04.43l-.33,2.37-.42-.06.33-2.37c.05-.33,0-.58-.12-.76-.12-.18-.35-.3-.69-.35-.13-.02-.25-.01-.37.01-.11.02-.22.06-.31.12-.1.05-.18.12-.25.19s-.13.16-.18.25c-.06.11-.1.22-.12.33-.02.11-.04.22-.06.35l-.27,1.95Z"/>
    <path class="cls-1" d="M83.87,135.47l2.21-5.01.54.02,1.74,5.17-.5-.02-.52-1.62-2.32-.09-.67,1.57-.49-.02ZM85.21,133.51l1.99.08-.89-2.71-1.1,2.63Z"/>
    <path class="cls-1" d="M89.58,135.62h-.42s-.04-3.66-.04-3.66h.42s0,.5,0,.5c.17-.18.34-.33.52-.44.18-.11.4-.17.65-.18.23,0,.44.03.63.11.19.08.36.21.49.4.09.13.14.27.16.4.02.14.03.28.03.43l.03,2.4h-.42s-.03-2.38-.03-2.38c0-.33-.08-.58-.23-.74s-.39-.24-.73-.24c-.13,0-.25.02-.36.06-.11.04-.21.1-.29.16-.09.07-.16.14-.22.23-.06.09-.11.18-.14.27-.04.12-.07.23-.07.34,0,.11-.01.23,0,.35l.03,1.97Z"/>
    <path class="cls-1" d="M95.7,130.3l.42-.02.27,5.08-.42.02-.03-.64h-.01c-.05.13-.13.24-.22.33-.09.1-.19.18-.31.25-.11.07-.23.12-.35.16-.12.04-.24.06-.36.07-.3.02-.55-.02-.76-.11-.21-.09-.39-.21-.53-.38-.14-.16-.25-.36-.33-.6-.07-.23-.12-.48-.13-.75-.01-.25,0-.5.06-.74.05-.24.14-.45.27-.63.12-.18.29-.33.49-.45.2-.12.44-.18.72-.2.26-.01.51.03.75.14s.44.26.59.48l-.11-2.01ZM95.87,133.54c-.01-.21-.05-.4-.12-.58-.07-.18-.16-.34-.27-.48-.11-.13-.25-.24-.41-.31-.16-.07-.33-.11-.53-.1-.22.01-.41.06-.56.16-.16.09-.28.22-.38.38-.1.16-.16.34-.2.54-.04.2-.04.42-.02.65.01.23.06.43.13.61.07.17.17.32.29.43.12.12.26.2.41.26.15.06.32.08.5.07.2,0,.37-.06.52-.15.15-.09.28-.2.37-.35.1-.14.17-.31.21-.51.04-.19.06-.4.05-.62Z"/>
    <path class="cls-1" d="M100.72,132.35l1.28-2.59.56-.06-1.55,3.04.22,2.21-.48.05-.22-2.17-2.1-2.71.55-.05,1.74,2.29Z"/>
    <path class="cls-1" d="M105.1,134.6c-.23.03-.46.02-.67-.04s-.41-.15-.58-.29c-.17-.14-.32-.32-.44-.55-.12-.23-.2-.5-.25-.82-.04-.27-.03-.52,0-.76.04-.24.12-.46.23-.65.12-.19.27-.35.47-.48.2-.13.44-.21.72-.25.28-.04.54-.02.76.05.22.07.42.18.58.34.16.15.29.34.39.56.1.22.17.47.2.74.04.29.03.56-.01.8-.05.24-.13.46-.26.65-.12.19-.29.34-.48.46-.2.12-.42.2-.67.23ZM106.08,132.52c-.03-.21-.08-.41-.15-.59s-.17-.33-.28-.46c-.12-.12-.26-.22-.42-.27-.17-.06-.36-.07-.58-.04-.22.03-.4.1-.55.2-.15.11-.26.24-.34.39s-.13.33-.15.52c-.02.19-.02.39,0,.58.03.22.08.43.16.61.08.18.18.33.3.46.12.12.26.21.43.26.17.05.35.07.55.04.22-.03.4-.1.55-.21.14-.11.26-.24.33-.4.08-.16.13-.33.15-.52.02-.19.02-.38,0-.58Z"/>
    <path class="cls-1" d="M109.44,130.12l.42-.07.61,3.61-.42.07-.08-.5c-.04.07-.1.15-.15.23-.06.08-.13.16-.21.23-.08.07-.18.14-.29.2-.11.06-.25.1-.41.13-.24.04-.45.04-.62,0-.17-.04-.32-.11-.44-.22-.12-.1-.22-.23-.29-.38-.07-.15-.12-.32-.16-.52l-.4-2.38.42-.07.4,2.37c.05.31.17.54.34.68.17.14.42.18.75.13.17-.03.32-.09.45-.18.13-.09.22-.2.3-.34s.12-.29.14-.47c.02-.18.02-.36-.02-.56l-.33-1.97Z"/>
    <path class="cls-1" d="M112,133.36l-.42.08-.72-3.59.42-.08.13.67h.01c.06-.31.17-.54.33-.69.16-.15.39-.26.69-.32l.09.45c-.24.04-.42.12-.56.23-.14.11-.24.24-.3.39-.06.15-.09.32-.09.51,0,.19.02.38.06.58l.35,1.76Z"/>
    <path class="cls-1" d="M116.04,132.5l-1.3-4.92.71-.19,2.76,3.91h.01s.43-4.76.43-4.76l.71-.19,1.3,4.92-.46.12-1.16-4.39h-.01s-.45,4.82-.45,4.82l-.44.12-2.78-3.96h-.01s1.16,4.39,1.16,4.39l-.46.12Z"/>
    <path class="cls-1" d="M120.52,126.64l-.19-.6.45-.14.18.6-.45.14ZM121.85,130.89l-1.08-3.5.41-.12,1.08,3.5-.41.13Z"/>
    <path class="cls-1" d="M123.78,130.29l-.4.14-1.18-3.46.4-.14.17.48c.1-.22.22-.42.36-.58.14-.17.32-.29.56-.37.21-.07.42-.1.63-.09.21.01.41.09.59.23.13.1.22.21.28.33s.12.26.16.4l.78,2.27-.4.14-.77-2.26c-.11-.31-.25-.52-.45-.63-.19-.11-.45-.11-.77,0-.12.04-.23.1-.32.17-.09.07-.17.16-.23.25-.06.09-.11.19-.14.29-.03.1-.05.2-.05.3,0,.13.01.24.04.35.03.11.06.22.1.34l.64,1.87Z"/>
    <path class="cls-1" d="M127.98,123.31l.39-.16,1.87,4.73-.39.16-.24-.6h-.01c-.01.14-.05.27-.1.39-.06.12-.13.23-.21.33s-.18.19-.28.26c-.1.08-.21.14-.32.18-.28.11-.53.16-.76.14-.23-.02-.44-.08-.63-.19-.19-.11-.35-.26-.5-.46-.14-.2-.26-.42-.36-.67-.09-.24-.15-.48-.18-.72-.03-.24,0-.47.05-.69.06-.21.17-.41.32-.58.15-.17.36-.31.62-.41.24-.1.49-.13.76-.11.26.02.5.11.71.27l-.74-1.87ZM129.18,126.33c-.08-.19-.17-.37-.3-.52-.12-.15-.26-.27-.41-.36-.15-.09-.31-.15-.48-.17-.17-.02-.35,0-.53.08-.21.08-.37.19-.48.33-.12.14-.2.3-.24.48-.04.18-.05.37-.02.57.03.2.09.41.18.62.09.21.19.39.31.53.12.14.26.25.41.32.15.07.31.11.47.11.16,0,.33-.03.5-.09.18-.07.33-.17.45-.31.12-.13.2-.28.24-.45.04-.17.06-.35.04-.55-.02-.2-.07-.4-.15-.6Z"/>
    <path class="cls-1" d="M133.3,126.56l-2.22-4.58,1.65-.8c.27-.13.51-.21.73-.25.22-.04.41-.03.58,0,.17.04.32.12.44.24.12.12.23.26.31.43.08.16.12.31.14.45.01.14,0,.26-.02.37-.03.11-.08.21-.14.3-.07.09-.14.16-.23.22h0c.34-.1.64-.08.89.04.25.13.45.35.6.65.11.24.17.46.18.66,0,.2-.03.39-.11.55s-.2.32-.37.45-.35.25-.57.36l-1.87.91ZM132.49,123.79l1.09-.53c.22-.11.4-.22.54-.33.13-.11.23-.23.29-.35.06-.12.08-.24.07-.37-.01-.13-.05-.26-.12-.4-.07-.14-.15-.25-.25-.33-.09-.08-.21-.12-.34-.13-.13-.01-.29,0-.46.06-.18.05-.38.13-.62.25l-1,.48.8,1.66ZM133.56,125.98l1.1-.53c.24-.11.44-.23.61-.33.17-.11.29-.22.37-.34.08-.12.12-.26.12-.4,0-.15-.05-.32-.15-.52-.09-.19-.2-.33-.32-.41-.12-.09-.26-.13-.41-.14-.15,0-.31.02-.49.08-.18.06-.37.13-.57.23l-1.15.56.88,1.82Z"/>
    <path class="cls-1" d="M137.01,122.78c.1.17.21.32.34.46.13.13.27.23.42.29.15.06.31.09.49.09.17,0,.35-.06.53-.16.24-.13.42-.31.52-.54s.12-.47.05-.73l.42-.23c.04.18.06.35.05.52,0,.17-.03.33-.09.49-.06.16-.15.31-.27.44-.12.14-.29.26-.49.37-.26.14-.5.22-.74.23-.23.02-.45-.02-.65-.1-.2-.08-.39-.21-.56-.39-.17-.17-.32-.38-.45-.61-.13-.24-.22-.48-.26-.72-.05-.24-.05-.48,0-.7.04-.22.13-.43.26-.62.13-.19.32-.35.55-.47.44-.24.87-.28,1.29-.11.42.17.78.54,1.1,1.12l-2.49,1.37ZM138.93,121.32c-.09-.16-.19-.29-.31-.41s-.25-.2-.39-.26c-.14-.05-.29-.08-.45-.07-.16.01-.32.06-.49.15-.17.09-.29.2-.39.33-.09.13-.15.27-.19.43-.03.15-.04.31-.02.48.02.17.07.33.13.49l2.1-1.15Z"/>
    <path class="cls-1" d="M142.91,121.4l-2.73-4.3,2.77-1.76.22.35-2.36,1.5.99,1.55,2.15-1.36.22.35-2.15,1.37,1.3,2.05-.41.26Z"/>
    <path class="cls-1" d="M146.64,118.98l-.35.24-2.06-3.03.35-.24.38.57h.01c-.07-.31-.06-.57.03-.77.09-.2.26-.39.51-.56l.26.38c-.2.13-.34.27-.43.43-.08.15-.12.31-.12.48,0,.17.04.33.11.51s.17.35.28.51l1.01,1.49Z"/>
    <path class="cls-1" d="M147.49,116.29c.12.16.25.3.39.41.15.11.3.19.46.24.16.04.32.05.49.03s.34-.1.5-.22c.23-.16.38-.36.45-.6.07-.24.06-.48-.04-.74l.38-.28c.06.17.1.34.12.51.02.17,0,.34-.03.5-.04.16-.11.32-.21.47-.11.15-.25.29-.44.43-.24.17-.47.28-.7.32-.23.04-.45.04-.66-.02-.21-.06-.41-.16-.6-.31-.19-.15-.36-.33-.52-.55-.16-.22-.27-.44-.35-.68-.07-.24-.11-.47-.09-.69.01-.23.07-.44.18-.65.11-.2.27-.38.48-.54.41-.3.83-.39,1.27-.27.44.11.85.44,1.23.97l-2.3,1.67ZM149.22,114.61c-.1-.14-.22-.27-.36-.37-.13-.1-.27-.17-.42-.2-.15-.04-.3-.04-.46-.01s-.31.1-.47.21-.27.24-.34.38c-.08.14-.12.29-.13.44-.01.15,0,.31.04.47.04.16.11.32.19.47l1.94-1.4Z"/>
    <path class="cls-1" d="M150.59,114.03c.12.16.26.29.4.4.15.11.3.18.46.22.16.04.32.04.5.01.17-.03.34-.11.5-.24.22-.17.37-.37.43-.61.07-.24.05-.48-.07-.74l.38-.29c.07.17.11.34.13.51.02.17.02.34-.02.5-.03.16-.1.33-.2.48-.1.15-.24.3-.43.44-.23.18-.46.29-.69.34-.23.05-.45.05-.66,0-.21-.05-.42-.15-.61-.3s-.37-.32-.54-.54c-.16-.21-.29-.44-.37-.67-.08-.23-.12-.47-.11-.69,0-.23.06-.44.16-.65.1-.21.26-.39.47-.55.4-.31.82-.41,1.26-.31.44.1.86.41,1.26.94l-2.25,1.73ZM152.26,112.29c-.11-.14-.23-.26-.37-.35-.14-.09-.28-.16-.42-.19-.15-.03-.3-.03-.46,0-.16.04-.31.11-.46.22-.15.12-.26.24-.33.39-.07.14-.11.29-.12.45,0,.16.01.31.06.47.05.16.12.32.21.47l1.89-1.46Z"/>
    <path class="cls-1" d="M156.11,111.89l-3.23-3.94.37-.3,2.97,3.62,2.11-1.73.26.32-2.48,2.04Z"/>
    <path class="cls-1" d="M156.25,105.99l-.4-.48.36-.3.4.48-.36.3ZM159.13,109.4l-2.35-2.81.33-.27,2.35,2.81-.33.27Z"/>
    <path class="cls-1" d="M160.27,108.44l-3.28-3.9.32-.27,2.04,2.42.25-2.49.44-.37-.2,1.9,2.68.8-.36.31-2.37-.68-.11.95.89,1.06-.32.27Z"/>
    <path class="cls-1" d="M162.12,104.4c.15.13.31.24.47.31.17.08.33.12.5.13.16,0,.33-.02.49-.08.16-.06.31-.17.44-.32.18-.21.29-.44.31-.68.02-.24-.05-.48-.2-.71l.31-.35c.1.15.17.31.23.47.05.16.08.33.08.5,0,.17-.04.34-.11.51-.07.17-.18.34-.33.52-.19.22-.4.37-.61.47-.22.09-.43.13-.65.12-.22-.01-.44-.07-.66-.18-.22-.1-.43-.25-.63-.42-.2-.18-.36-.38-.49-.59s-.21-.43-.24-.66c-.04-.22-.02-.45.04-.67.06-.22.18-.43.35-.63.33-.38.73-.56,1.18-.54.45.02.92.24,1.41.68l-1.88,2.13ZM163.44,102.38c-.13-.12-.28-.21-.43-.28s-.3-.1-.45-.11-.3.03-.45.09c-.15.06-.29.17-.41.31-.12.14-.21.29-.25.44-.04.16-.05.31-.03.46.02.15.07.31.14.46.08.15.17.29.29.42l1.58-1.79Z"/>
    <path class="cls-1" d="M162.89,98.33l2.21-2.98.33.25-.96,1.29,3.76,2.79-.29.39-3.76-2.79-.96,1.29-.33-.25Z"/>
    <path class="cls-1" d="M169.63,97.73l-4.25-2.8.23-.35,1.62,1.06c-.06-.24-.08-.47-.08-.68,0-.21.08-.43.22-.64.12-.19.27-.34.44-.46s.37-.18.61-.18c.16,0,.3.03.43.09.12.06.25.14.38.22l2,1.32-.23.35-2-1.31c-.28-.18-.52-.26-.74-.23-.22.03-.42.19-.61.47-.07.11-.12.22-.15.33-.03.11-.04.22-.03.33,0,.11.03.21.07.31.04.1.09.19.15.27.08.1.16.19.24.25.09.07.18.14.29.21l1.65,1.08-.23.35Z"/>
    <path class="cls-1" d="M170.48,93.19c.17.1.35.17.53.21.18.04.35.05.51.03.16-.02.32-.08.46-.18.15-.1.27-.23.37-.41.14-.24.19-.48.16-.73-.03-.24-.14-.46-.34-.65l.24-.41c.13.13.23.27.32.42.09.15.15.3.18.47.03.17.03.34,0,.52-.03.18-.11.37-.22.57-.15.25-.31.45-.5.58-.19.14-.4.22-.61.25-.22.03-.44.02-.68-.04-.23-.06-.47-.15-.7-.29s-.43-.29-.6-.48c-.17-.18-.29-.38-.37-.6-.08-.21-.11-.43-.1-.67.01-.23.09-.46.22-.69.25-.44.6-.69,1.04-.77.44-.08.95.05,1.52.38l-1.41,2.47ZM171.36,90.94c-.15-.09-.31-.15-.47-.19-.16-.03-.32-.04-.46-.01-.15.03-.29.08-.42.18-.13.09-.24.22-.34.38-.09.16-.15.33-.16.49,0,.16.01.31.06.46s.13.28.24.42c.1.13.23.25.37.35l1.19-2.07Z"/>
    <path class="cls-1" d="M173.52,87.96c.21.07.41.1.59.09.18-.01.34-.06.48-.14s.27-.19.38-.32c.11-.14.2-.29.28-.47.09-.21.14-.4.16-.57.01-.17,0-.33-.05-.46-.05-.13-.12-.25-.21-.34-.1-.1-.21-.17-.34-.23-.18-.08-.35-.1-.5-.07-.15.03-.29.1-.42.2-.13.1-.25.23-.37.38-.12.15-.24.31-.36.47-.12.16-.24.32-.38.46-.13.15-.27.26-.43.35-.15.09-.32.14-.51.16-.18.02-.39-.02-.62-.12-.16-.07-.3-.17-.42-.3-.12-.13-.21-.29-.27-.47-.06-.18-.08-.39-.06-.62.02-.23.08-.47.2-.73.12-.26.25-.48.41-.64.16-.16.33-.28.51-.36.18-.07.38-.11.57-.1.2,0,.39.05.58.14l-.18.42c-.18-.08-.34-.11-.5-.11-.16,0-.3.05-.43.12-.13.07-.24.17-.34.29-.1.12-.18.26-.25.4-.1.23-.15.43-.15.61,0,.18.02.34.08.47.06.13.14.24.25.33.11.09.22.15.35.18.16.04.31.03.44-.02.13-.06.26-.14.38-.25s.23-.24.34-.39c.11-.15.22-.3.34-.46.12-.15.24-.3.37-.44s.27-.25.42-.33c.15-.08.32-.13.5-.14.18-.01.39.03.61.13.43.19.7.48.81.89.11.4.04.87-.19,1.41-.11.24-.23.45-.39.63s-.33.32-.52.41c-.19.1-.4.15-.63.15-.22,0-.46-.05-.72-.16l.19-.43Z"/>
    <path class="cls-1" d="M176.57,84.6l-4.82-1.65.14-.4,3,1.02-1.06-2.26.19-.55.81,1.73,2.71-.69-.15.45-2.38.64.4.87,1.31.45-.14.4Z"/>
    <path class="cls-1" d="M178.72,81.23c.02-.05.04-.11.07-.16.02-.05.04-.11.06-.17.03-.11.02-.22-.04-.31-.06-.09-.13-.17-.22-.25-.09-.07-.19-.14-.29-.2-.1-.06-.19-.12-.26-.18l-3.92.48.11-.46,3.34-.37-2.77-1.9.11-.44,3.17,2.2c.2.14.38.27.54.39.16.12.29.24.4.36.1.12.18.23.22.35.04.12.04.25,0,.39-.02.07-.04.14-.07.21-.03.06-.05.12-.08.17l-.39-.1Z"/>
  </g>
</svg>