<?xml version="1.0" encoding="UTF-8"?>
<svg id="Layer_1" data-name="Layer 1" xmlns="http://www.w3.org/2000/svg" viewBox="0 0 164.33 158.4">
  <defs>
    <style>
      .cls-1 {
        fill: #34231a;
      }
    </style>
  </defs>
  <g>
    <path class="cls-1" d="M82.57,86.19c.14.2.42.74.46.98.23,1.21-.32,1.53-1.09,1.72-.72.17-1.46.18-2.19.05-1.18-.22-2.23-.29-3.26-1.22-1.46-1.32-2.35-2.87-2.9-4.75s-.72-2.99-.01-4.81c.14-.35.56-1.54,1.91-2.93.63-.65,2.85-1.83,3.73-1.94.7-.09,2.81.06,3.4-.15.54-.19.92-.54.88-.78-.06-.32-.77-1.35-4.75-1.19-1.31.05-3.01.74-4.03,1.5-.84.63-1.83,1.42-2.42,2.3-.15.22-.29.87-.61.72-.15-.07.03-.78.08-.94.09-.26.45-.64.6-.9.21-.35.18-.67.54-.98,2.24-1.92,3.25-2.23,5.73-2.68,2.01-.36,3.64.02,5.68.76,1.59.58,2.38,1.22,3.54,2.36.1.09.45,1.01.44,1.14-.02.42-.35.94-.78,1.04-1.12.28-2.14.02-3.2-.26-.68-.18-1.28-.46-1.92-.6-1.24-.25-2.54-.52-3.87-.19-.42.1-2.1.9-2.42,1.17-.23.19-1.01.94-1.18,1.15-.34.41-.9,1.81-1,2.34-.3,1.5.2,3.86.85,5.25s2.37,2.81,3.99,2.85c.49.01,1.34-.21,1.39-.72.04-.42-.08-1.09-.71-1.79-.58-.64-3.42-3.09-2.57-5.39.55-1.47,2.5-2.65,4.09-2.53.38.03.73.15,1.12.2.19.02.74.26.9.33.92.37,1.12,1.13.43.92-.11-.03-1.08-.44-1.22-.5-1.34-.51-3.91-.01-4.67,1.28-1.1,1.86,1.52,4.19,2.99,5.5.67.59,1.51.93,2.05,1.69Z"/>
    <path class="cls-1" d="M71.01,77.96h0c.09.02.16.09.17.18.01.19-.09.39-.13.57-.07.29-.11.95-.14,1.19-.07.6.11,2.51.21,3.19.42,2.77,2.16,5.34,4.44,6.88,3.41,2.3,6.96,1.26,7.09,1.23,1.27-.31,2.6-1.23,3.3-1.62.3-.16,1.01-.75,1.26-.83.45-.13.81-.14,1.28-.42.65-.39,1.56-1.92,1.93-2.61.4-.75.76-2.28.79-3.14s-.1-1.87-.57-2.6c-.6-.92-1.5-.33-1.63.73-.06.45-.2.83-.33,1.23-.29.86-.75,1.77-1.34,2.45-.21.25-.71,1.11-2.33,1.05-.26,0-1.18-.1-1.18-.38.01-.37.33-.17.48-.18.72-.07,1.71-.17,2.23-.74,1.22-1.34,1.19-1.97,1.25-2.42.02-.19-.07-.81-.09-1.01-.24-2.13.67-3.42,1.19-3.62.56-.21,1.17-.27,1.7.02.41.22.77.45.99.98,1.2,2.82.53,6.92-1.18,9.41-1.24,1.81-2.7,2.9-4.53,4.05-1.42.89-5.1,1.13-6.71.78-2.01-.44-3.38-1.28-4.93-2.59-2.88-2.43-4.65-6.87-3.81-10.62.07-.32.29-.71.42-1.04.03-.08.11-.12.19-.1Z"/>
    <path class="cls-1" d="M84.86,78.99c.27.04.5.54.56.78.28,1.01-.32,2.32-1.23,2.82-.21.11-.74.25-1.37.17s-1.61-.54-2.08-.98c-.8-.77.05-2.21,1.1-1.51.51.34.37.97.74,1.14.11.05.39.28,1.05.14.59-.13,1.2-1.08,1.13-1.66-.04-.3-.3-.51-.07-.82.05-.07.08-.1.17-.09Z"/>
    <circle class="cls-1" cx="90.95" cy="74.54" r=".86"/>
    <circle class="cls-1" cx="68.86" cy="76.33" r=".86"/>
    <circle class="cls-1" cx="79.73" cy="94.21" r=".86"/>
  </g>
  <g>
    <path class="cls-1" d="M100.42,103.68l-.45-5.45.49-.24,4,3.71-.44.22-1.23-1.18-2.08,1.02.17,1.7-.44.22ZM100.67,101.33l1.79-.88-2.07-1.96.28,2.84Z"/>
    <path class="cls-1" d="M105.63,100.95l-.36.23-1.98-3.08.36-.23.28.43c.05-.24.12-.46.21-.65s.24-.36.46-.5c.19-.12.39-.2.59-.24.21-.04.42-.01.63.08.15.06.26.15.35.26.09.11.17.23.26.35l1.29,2.02-.36.23-1.29-2.01c-.18-.28-.37-.45-.58-.51-.21-.06-.46,0-.75.19-.11.07-.2.15-.27.24-.07.09-.12.19-.16.29-.04.1-.06.21-.07.31,0,.1,0,.21.03.3.03.12.07.23.12.33.05.1.11.2.18.31l1.06,1.66Z"/>
    <path class="cls-1" d="M107.86,93.09l.33-.27,3.17,3.98-.33.26-.4-.5h-.01c.03.14.03.28.02.41-.02.13-.05.26-.11.38-.05.12-.12.23-.19.33-.08.1-.16.19-.25.26-.23.19-.46.3-.68.36-.22.05-.44.05-.65,0-.21-.05-.42-.15-.61-.29-.19-.15-.38-.32-.54-.53-.16-.2-.29-.41-.38-.64-.1-.23-.15-.45-.15-.67,0-.22.04-.44.13-.65.1-.21.25-.4.47-.58.2-.16.43-.27.69-.33.26-.06.51-.04.76.05l-1.26-1.58ZM109.89,95.63c-.13-.16-.27-.3-.43-.41-.16-.11-.33-.19-.5-.23s-.34-.05-.51-.02c-.17.03-.33.11-.48.23-.17.14-.3.29-.37.46-.07.17-.1.34-.09.53.01.18.06.37.15.55.09.19.21.37.36.54.14.18.3.32.46.42.16.1.32.16.49.19.17.02.33.01.48-.03.16-.04.31-.12.45-.23.16-.12.27-.26.34-.42.07-.16.11-.33.1-.5,0-.17-.05-.35-.12-.54s-.18-.36-.32-.54Z"/>
    <path class="cls-1" d="M113.08,91.42l-.8-2.78.37-.42.9,3.29,1.65,1.48-.32.36-1.62-1.46-3.38-.59.37-.41,2.83.53Z"/>
    <path class="cls-1" d="M117.93,89.73c-.14.19-.3.34-.49.47s-.38.2-.61.23c-.22.03-.45.02-.7-.05-.25-.07-.5-.19-.76-.38-.22-.15-.4-.33-.55-.52-.15-.19-.25-.4-.31-.61s-.07-.44-.03-.67.14-.46.31-.69c.17-.23.35-.41.56-.52.21-.12.42-.18.64-.2.22-.01.45.02.68.1.23.08.46.2.68.36.24.17.43.35.58.56s.25.41.3.63.05.44,0,.67-.14.44-.29.65ZM117.07,87.6c-.18-.12-.36-.22-.54-.29-.18-.07-.36-.11-.53-.11-.17,0-.33.04-.49.12-.16.08-.3.21-.43.4-.13.18-.2.36-.22.54-.02.18,0,.35.06.52.06.16.15.32.28.46s.27.28.43.39c.18.13.37.23.56.29.19.07.37.1.54.09.17,0,.33-.05.48-.13.15-.08.29-.21.4-.37.13-.18.2-.36.22-.54.02-.18,0-.35-.06-.52-.06-.17-.15-.32-.28-.46-.12-.14-.26-.27-.43-.39Z"/>
    <path class="cls-1" d="M117.41,83.38l.2-.37,3.21,1.76-.2.37-.45-.24c.03.08.06.17.09.26.03.1.04.2.05.31,0,.11,0,.23-.02.35-.03.13-.08.26-.15.4-.12.21-.25.38-.38.49-.14.11-.29.18-.44.21-.16.03-.32.03-.48-.01-.16-.04-.33-.11-.5-.2l-2.11-1.16.21-.37,2.11,1.16c.28.15.52.2.74.16.22-.05.41-.22.57-.51.08-.15.13-.31.14-.46,0-.16-.02-.3-.08-.44s-.16-.28-.28-.4c-.12-.13-.27-.24-.45-.34l-1.75-.96Z"/>
    <path class="cls-1" d="M121.54,83.17l-.17.39-3.36-1.46.17-.39.63.27h0c-.22-.24-.35-.46-.38-.68-.03-.22.01-.46.13-.75l.42.18c-.1.22-.14.42-.13.59.01.17.06.33.15.47.09.14.21.26.37.37.16.11.33.2.51.28l1.65.71Z"/>
    <path class="cls-1" d="M123.16,79.03l-4.95-1.19.17-.71,4.75-.57h0s-3.98-2.66-3.98-2.66l.17-.71,4.95,1.19-.11.47-4.41-1.06h0s4.02,2.7,4.02,2.7l-.11.44-4.81.57h0s4.41,1.07,4.41,1.07l-.11.47Z"/>
    <path class="cls-1" d="M120.01,72.37l-.62-.08.06-.46.62.09-.06.46ZM124.43,72.96l-3.63-.5.06-.42,3.63.5-.06.42Z"/>
    <path class="cls-1" d="M124.7,70.82l-.03.42-3.65-.25.03-.42.51.04c-.17-.18-.3-.37-.4-.56-.1-.19-.14-.41-.12-.66.01-.23.07-.43.16-.62.09-.19.24-.34.44-.46.14-.08.28-.12.42-.13.14,0,.29,0,.44,0l2.39.17-.03.42-2.38-.16c-.33-.02-.58.03-.76.17-.17.13-.27.37-.3.71,0,.13,0,.25.04.36.03.11.08.21.14.3.06.09.13.17.21.24.08.07.17.12.26.16.12.05.23.08.33.1s.22.03.35.04l1.97.14Z"/>
    <path class="cls-1" d="M119.72,64.46l-.02-.42,5.09-.22.02.42-.64.03h0c.13.07.24.14.33.24.1.09.18.2.24.31.07.11.12.23.16.35.04.12.06.24.06.36.01.3-.03.55-.12.76-.09.21-.22.39-.38.53s-.37.25-.6.32c-.23.07-.48.11-.75.12-.25.01-.5-.01-.74-.07s-.45-.15-.63-.27c-.18-.13-.33-.29-.45-.49-.11-.2-.18-.44-.19-.72-.01-.26.04-.51.14-.75.11-.24.27-.44.49-.58l-2.01.09ZM122.97,64.32c-.21,0-.4.05-.59.11-.18.06-.34.15-.48.26-.13.11-.24.25-.32.4-.07.16-.11.33-.1.53,0,.22.06.41.16.57.09.16.22.28.37.38.16.1.33.17.54.2.2.04.42.05.65.03.23,0,.43-.05.61-.12.17-.07.32-.17.44-.28.12-.12.21-.25.26-.41.06-.15.08-.32.07-.5,0-.2-.06-.37-.14-.52-.09-.15-.2-.28-.34-.37-.14-.1-.31-.17-.5-.21-.19-.05-.4-.06-.62-.06Z"/>
    <path class="cls-1" d="M124.5,60.25l-5.01.87-.32-1.81c-.05-.29-.06-.55-.04-.77.02-.22.08-.41.17-.56.09-.15.21-.27.35-.36.15-.09.31-.15.5-.18.18-.03.33-.03.47,0,.14.02.25.07.35.13.1.06.18.13.25.22.07.09.12.18.15.28h.01c0-.36.08-.64.28-.85.19-.21.46-.34.79-.4.26-.05.49-.04.68,0,.2.05.36.14.5.26.14.12.25.28.33.48.08.19.15.41.19.65l.36,2.05ZM121.62,60.26l-.21-1.2c-.04-.25-.1-.45-.17-.61-.07-.16-.16-.28-.25-.37-.1-.09-.21-.14-.34-.17-.13-.02-.27-.02-.42,0-.16.03-.29.08-.39.15-.1.07-.17.17-.22.29-.05.12-.07.28-.07.46,0,.18.02.41.07.67l.19,1.09,1.81-.31ZM124.01,59.85l-.21-1.21c-.04-.26-.1-.48-.15-.67-.06-.19-.13-.34-.23-.45s-.21-.19-.36-.23-.32-.04-.54,0c-.21.04-.37.1-.49.19-.12.09-.2.21-.24.35-.05.14-.07.31-.06.49,0,.19.03.39.07.61l.22,1.26,1.99-.35Z"/>
    <path class="cls-1" d="M121.81,55.58c.19-.06.36-.13.52-.23.16-.1.28-.22.38-.35.1-.13.16-.29.19-.46.03-.17.02-.35-.04-.55-.08-.27-.21-.47-.41-.62-.2-.15-.43-.22-.71-.21l-.13-.45c.18,0,.36.02.52.06s.32.11.46.2c.14.09.27.21.38.36.11.15.19.34.26.56.08.28.11.54.07.77-.04.23-.12.44-.24.62s-.29.33-.5.46c-.21.13-.44.23-.69.31-.26.08-.51.11-.76.1-.25,0-.48-.06-.69-.15-.21-.09-.39-.22-.55-.39-.16-.17-.27-.38-.34-.64-.14-.48-.09-.91.16-1.29.25-.37.7-.65,1.33-.83l.8,2.73ZM120.8,53.39c-.17.05-.33.12-.46.21-.14.09-.25.2-.33.33-.08.12-.14.27-.16.43-.02.16,0,.33.04.51.05.18.13.33.24.45.11.12.23.21.38.27.14.06.3.1.46.12.17.01.34,0,.51-.02l-.67-2.29Z"/>
    <path class="cls-1" d="M121.47,49.28l-4.58,2.23-1.44-2.95.37-.18,1.22,2.52,1.65-.8-1.11-2.29.37-.18,1.11,2.29,2.19-1.06.21.43Z"/>
    <path class="cls-1" d="M119.31,45.17l.22.36-3.13,1.9-.22-.36.59-.36h0c-.31.04-.56.02-.76-.08-.19-.1-.37-.28-.53-.54l.39-.24c.12.21.25.36.41.45.15.09.31.14.47.15.16,0,.33-.02.51-.09.18-.07.35-.15.53-.26l1.54-.93Z"/>
    <path class="cls-1" d="M116.61,44.12c.16-.12.29-.25.4-.4.11-.15.19-.3.23-.46.04-.16.05-.32.02-.5-.03-.17-.11-.34-.23-.5-.17-.22-.37-.37-.6-.44-.24-.07-.48-.06-.74.05l-.28-.38c.17-.06.34-.1.51-.12s.34-.01.5.02c.17.04.32.11.48.21.15.1.3.25.44.43.17.23.28.47.33.7.05.23.04.45-.01.66s-.16.41-.31.61c-.15.19-.33.37-.55.53-.21.16-.44.28-.68.36-.23.08-.47.11-.69.1-.23,0-.45-.07-.65-.17-.2-.11-.38-.26-.54-.48-.3-.4-.4-.83-.29-1.26.11-.44.43-.85.96-1.24l1.69,2.28ZM114.9,42.41c-.14.11-.27.23-.36.36-.1.13-.16.27-.2.42s-.04.3,0,.46c.03.16.1.31.22.46.11.15.24.26.38.34s.29.12.45.13c.16.01.31,0,.47-.05.16-.04.32-.11.47-.2l-1.42-1.92Z"/>
    <path class="cls-1" d="M114.1,40.9c.14-.13.26-.28.36-.44.09-.16.15-.32.18-.48s.01-.33-.04-.49c-.05-.17-.14-.32-.28-.47-.19-.2-.41-.33-.65-.37-.24-.04-.48,0-.72.14l-.32-.35c.16-.08.33-.14.49-.18.17-.04.33-.05.5-.03.17.02.33.07.5.16.16.08.32.21.48.38.2.21.33.43.41.65.07.22.09.44.06.66-.03.22-.11.43-.24.64-.13.21-.29.4-.48.59-.2.18-.41.33-.63.43-.23.1-.45.16-.68.18-.23.02-.45-.02-.67-.1-.21-.08-.41-.22-.59-.41-.34-.37-.49-.78-.43-1.22.06-.45.33-.89.81-1.34l1.94,2.08ZM112.21,39.39c-.13.12-.24.26-.32.4-.08.14-.13.29-.15.44s0,.3.05.45c.05.16.14.3.27.44.13.14.27.24.42.29.15.06.3.08.46.08.15,0,.31-.04.47-.1.16-.06.3-.14.44-.25l-1.63-1.75Z"/>
    <path class="cls-1" d="M110.95,35.42l-3.13,4.01-.38-.3,2.88-3.69-2.15-1.68.25-.32,2.53,1.98Z"/>
    <path class="cls-1" d="M105.16,36.64l-.35.52-.39-.26.35-.52.39.26ZM107.64,32.94l-2.05,3.03-.35-.24,2.05-3.03.35.24Z"/>
    <path class="cls-1" d="M106.26,32.01l-2.6,4.38-.36-.22,1.62-2.72-2.43.58-.5-.3,1.85-.44-.12-2.79.41.24.13,2.46.93-.21.71-1.19.37.22Z"/>
    <path class="cls-1" d="M101.96,31.54c.09-.18.15-.36.18-.54.03-.18.03-.35,0-.51-.04-.16-.1-.31-.21-.45-.11-.14-.25-.25-.43-.34-.25-.12-.5-.16-.74-.12s-.45.17-.63.38l-.43-.21c.12-.14.26-.25.4-.35.14-.1.29-.17.46-.21.16-.04.34-.05.52-.03s.38.08.59.19c.26.13.47.28.61.47s.24.38.29.59.05.44,0,.68c-.04.24-.12.48-.24.72-.12.24-.26.45-.44.63-.17.18-.36.32-.57.41-.21.1-.43.14-.66.14-.23,0-.46-.06-.7-.17-.45-.22-.73-.55-.84-.99-.11-.44-.01-.95.28-1.54l2.55,1.25ZM99.66,30.81c-.08.16-.13.32-.16.49-.03.16-.02.32.02.46.04.15.1.28.21.41.1.12.24.23.41.31.17.08.33.12.49.12s.31-.03.46-.09c.14-.06.28-.15.4-.26.12-.11.23-.24.33-.39l-2.15-1.05Z"/>
    <path class="cls-1" d="M95.94,32.47l-3.5-1.23.13-.39,1.52.54,1.55-4.42.45.16-1.55,4.42,1.52.53-.13.39Z"/>
    <path class="cls-1" d="M93.33,26.21l-1.33,4.91-.41-.11.51-1.87c-.21.13-.42.22-.62.29s-.43.06-.68,0c-.22-.06-.41-.15-.58-.28-.17-.13-.29-.3-.37-.52-.05-.15-.07-.3-.05-.43s.05-.28.09-.43l.63-2.31.41.11-.62,2.31c-.09.32-.08.58.02.77.1.2.31.34.64.43.13.03.25.05.36.04.12-.01.22-.04.33-.08.1-.04.19-.09.27-.16.08-.07.15-.14.21-.22.07-.1.13-.21.16-.31.04-.1.07-.21.11-.34l.52-1.9.41.11Z"/>
    <path class="cls-1" d="M88.73,26.81c.04-.2.05-.38.03-.57s-.06-.35-.14-.5c-.07-.15-.18-.27-.32-.38s-.31-.18-.5-.22c-.27-.05-.52-.03-.74.08-.22.1-.39.28-.51.53l-.46-.09c.09-.16.18-.31.29-.44.11-.13.24-.24.39-.32.15-.08.31-.14.49-.17.18-.03.39-.02.62.03.29.06.52.15.71.29.19.14.33.3.44.5.1.19.16.41.18.66.02.24,0,.5-.05.76-.05.26-.14.5-.26.72-.12.22-.27.4-.45.54-.17.15-.37.25-.6.31-.22.06-.46.06-.72.01-.5-.1-.85-.34-1.07-.74-.21-.39-.26-.92-.13-1.56l2.79.55ZM86.32,26.7c-.04.18-.04.35-.03.51.02.16.06.31.14.44.07.13.17.25.3.34.13.09.29.16.47.2.19.04.35.03.51,0,.15-.04.29-.11.42-.21.12-.1.23-.21.32-.36.09-.14.16-.3.21-.46l-2.35-.46Z"/>
    <path class="cls-1" d="M82.75,25.63c0-.23-.04-.42-.11-.59-.07-.17-.16-.3-.29-.41-.12-.11-.27-.19-.43-.25-.17-.06-.34-.09-.54-.11-.23-.02-.42,0-.59.04-.17.04-.31.11-.42.2-.11.09-.2.19-.26.32-.06.12-.09.25-.11.4-.02.2.02.36.1.49.08.13.19.24.32.33.14.09.3.17.48.23.18.06.37.12.56.18.19.06.38.13.56.21.18.08.34.17.47.29s.24.26.32.43c.08.17.1.38.08.63-.01.17-.06.34-.15.5-.09.16-.21.3-.36.41-.15.12-.34.2-.56.26-.22.06-.47.08-.76.05-.29-.02-.53-.08-.74-.18-.21-.1-.38-.22-.51-.37-.13-.15-.22-.32-.28-.51-.06-.19-.08-.39-.06-.59l.46.04c-.02.19,0,.36.06.51s.14.27.25.37c.11.1.24.17.39.23.15.05.3.09.46.1.24.02.45,0,.62-.05.17-.05.31-.13.42-.23.11-.1.19-.21.23-.34s.07-.26.05-.39c-.01-.17-.07-.3-.17-.41-.09-.11-.21-.2-.36-.27s-.31-.14-.48-.19c-.18-.05-.36-.11-.54-.17-.18-.06-.36-.13-.53-.2-.17-.08-.32-.17-.45-.28-.13-.12-.23-.26-.29-.43-.07-.17-.09-.37-.08-.62.04-.47.23-.82.57-1.05.34-.23.81-.33,1.4-.28.26.02.5.07.72.16.22.09.41.21.56.36.15.15.27.33.34.54.07.21.1.46.08.73l-.47-.04Z"/>
    <path class="cls-1" d="M78.62,23.83v5.09s-.41,0-.41,0v-3.17s-1.8,1.74-1.8,1.74h-.58s1.37-1.32,1.37-1.32l-1.54-2.34h.47s1.38,2.04,1.38,2.04l.69-.66v-1.39s.42,0,.42,0Z"/>
    <path class="cls-1" d="M74.75,22.91c-.06,0-.12,0-.17-.01-.06,0-.12,0-.18,0-.12,0-.21.05-.28.14-.07.08-.12.18-.16.29-.04.11-.07.22-.09.34s-.05.22-.09.3l1.73,3.55-.47.04-1.44-3.04-.9,3.23-.46.04,1.05-3.71c.07-.24.13-.45.19-.64.06-.19.13-.35.21-.49.08-.14.16-.24.26-.32.1-.08.22-.12.37-.13.08,0,.15,0,.22,0,.07,0,.13,0,.19.02l.03.4Z"/>
  </g>
  <g>
    <path class="cls-1" d="M86.7,53.58l-2.58,4.39-.63-.37.83-4.72h-.01s-3.69,3.04-3.69,3.04l-.63-.37,2.58-4.39.41.24-2.3,3.91h.01s3.74-3.06,3.74-3.06l.39.23-.85,4.76h.01s2.3-3.91,2.3-3.91l.41.24Z"/>
    <path class="cls-1" d="M78.85,51.85c-.08-.02-.17-.05-.28-.07-.11-.03-.2-.04-.28-.04-.08,0-.14.04-.19.1-.04.07-.08.13-.11.19-.09.2-.09.39-.02.57.07.18.26.34.56.47.13.06.26.1.39.12.12.02.24.03.35,0,.11-.02.21-.07.31-.15s.18-.18.26-.32l.4.17c-.1.19-.21.34-.35.45-.14.11-.29.18-.45.21-.16.04-.33.04-.51.01-.18-.03-.36-.08-.54-.16-.17-.07-.32-.16-.45-.26-.13-.1-.24-.21-.32-.34-.08-.13-.12-.27-.12-.43,0-.16.03-.34.12-.53l.79-1.83c.06-.15.08-.26.04-.32-.04-.06-.15-.1-.34-.11l.13-.31s.08.01.15.02c.07,0,.13.02.18.05.06.03.12.06.17.09.06.04.1.08.13.13.03.05.04.1.04.16,0,.06,0,.11-.02.17-.01.06-.03.12-.06.18.24-.11.49-.17.74-.17.25,0,.5.05.75.15.15.06.28.14.4.24.12.1.21.21.28.34.07.13.11.26.12.41.01.15-.02.3-.09.46-.24.57-.78.74-1.61.51l-.57-.16ZM78.28,51.38c.2,0,.38.03.56.08.18.05.35.11.53.17.31.11.57.14.79.1.21-.04.37-.18.47-.41.04-.1.06-.2.05-.3,0-.09-.04-.18-.08-.26-.05-.08-.11-.15-.19-.21-.08-.06-.16-.11-.25-.15-.16-.07-.32-.11-.48-.14-.16-.02-.32-.02-.47.01-.15.03-.28.09-.41.19-.12.09-.22.23-.29.39l-.23.53Z"/>
    <path class="cls-1" d="M77.68,48.03c-.05-.03-.1-.05-.16-.08-.05-.03-.11-.05-.17-.07-.11-.04-.22-.03-.31.02-.09.05-.18.12-.26.2-.08.09-.15.18-.22.28s-.13.18-.2.24l.22,3.94-.45-.15-.15-3.35-2.08,2.64-.44-.14,2.41-3.02c.15-.19.29-.37.42-.52.13-.15.26-.28.38-.37s.25-.16.37-.19c.12-.03.25-.03.39.02.07.02.14.05.2.08.06.03.12.06.17.09l-.12.38Z"/>
    <path class="cls-1" d="M69.57,49.71l-1.89,2.19-.55-.09,2.27-2.55.34-2.19.47.07-.34,2.16,1.35,3.15-.54-.09-1.1-2.66Z"/>
    <path class="cls-1" d="M65.49,46.56c.24.01.45.06.66.15.2.09.38.21.52.38.15.17.26.37.34.61.08.24.11.53.1.85-.01.27-.06.52-.13.75-.08.23-.19.43-.34.6-.15.17-.33.3-.54.39-.22.09-.47.13-.75.12-.29-.01-.54-.07-.74-.18-.21-.11-.38-.25-.51-.43-.13-.18-.23-.39-.29-.62-.06-.24-.08-.49-.07-.76.01-.29.06-.56.15-.79.09-.23.21-.43.37-.59s.34-.29.55-.37c.21-.08.45-.12.7-.11ZM64.17,48.44c0,.22,0,.42.05.61.04.19.11.36.2.5.09.14.22.26.37.34.15.09.34.13.57.14.22,0,.41-.03.57-.11.16-.08.29-.19.4-.33s.18-.3.24-.49c.05-.18.08-.38.09-.57,0-.23,0-.44-.06-.63-.05-.19-.12-.36-.22-.5-.1-.14-.22-.25-.38-.33-.15-.08-.33-.13-.53-.13-.22,0-.41.03-.57.11-.16.08-.29.19-.4.33-.1.14-.18.3-.24.49-.05.18-.08.37-.09.57Z"/>
    <path class="cls-1" d="M60.46,50.47l-.42.03-.28-3.65.42-.03.04.51c.05-.07.11-.14.17-.22.07-.08.14-.15.23-.21.09-.07.19-.12.31-.17.12-.05.26-.08.42-.09.24-.02.45,0,.62.05.17.06.31.14.42.25.11.11.19.25.25.41.06.16.09.33.11.53l.18,2.4-.42.03-.19-2.4c-.02-.31-.12-.55-.27-.71s-.4-.22-.74-.2c-.17.01-.33.06-.46.14s-.24.18-.33.31c-.09.13-.15.28-.19.45-.04.17-.05.36-.04.56l.15,1.99Z"/>
    <path class="cls-1" d="M58.03,47.13l.42-.07.62,3.61-.42.07-.12-.68h-.01c-.07.31-.18.54-.35.68s-.4.24-.7.29l-.08-.45c.24-.04.43-.11.57-.21.14-.11.24-.23.31-.38.07-.15.1-.32.11-.51,0-.19-.01-.38-.05-.58l-.3-1.77Z"/>
    <path class="cls-1" d="M53.74,48.06l1.6,4.83-3.21,1.07-.13-.39,2.76-.92-.58-1.75-2.49.83-.13-.39,2.49-.83-.64-1.92-2.83.94-.13-.39,3.28-1.09Z"/>
    <path class="cls-1" d="M49.02,48.68c-.06.02-.11.03-.17.05-.06.02-.12.04-.17.06-.11.05-.18.12-.22.22-.04.1-.06.21-.06.32,0,.12,0,.23.02.35.02.12.02.22.02.31l2.82,2.77-.43.2-2.37-2.38.23,3.35-.42.19-.25-3.85c-.02-.25-.03-.47-.04-.67,0-.2,0-.38.03-.53.03-.15.07-.28.14-.39.07-.11.17-.19.3-.25.07-.03.14-.06.2-.08.07-.02.13-.03.19-.04l.17.37Z"/>
    <path class="cls-1" d="M46.59,52.85c-.1-.17-.21-.32-.35-.45-.13-.13-.27-.22-.43-.29-.15-.06-.32-.09-.49-.08-.17,0-.35.06-.53.16-.24.14-.41.32-.51.54-.1.23-.11.47-.04.74l-.41.23c-.04-.18-.06-.35-.06-.52s.03-.34.08-.5.14-.31.27-.45c.12-.14.28-.27.48-.38.25-.14.5-.23.73-.24.23-.02.45.01.66.09.2.08.39.21.56.38.17.17.33.37.46.61.13.23.22.47.27.71.05.24.05.48.02.7-.04.23-.12.43-.25.62-.13.19-.31.35-.54.48-.44.25-.87.29-1.29.14-.42-.16-.79-.53-1.12-1.1l2.47-1.41ZM44.69,54.34c.09.16.19.29.31.4.12.11.25.2.39.25.14.05.29.07.45.06.16-.01.32-.07.49-.16.16-.09.29-.21.38-.34.09-.13.15-.28.18-.43.03-.15.03-.31,0-.48-.02-.17-.07-.33-.14-.49l-2.08,1.18Z"/>
    <path class="cls-1" d="M42.77,54.43c-.24-.22-.46-.34-.67-.34-.22,0-.46.08-.72.26-.13.09-.23.18-.3.28s-.12.19-.14.28c-.02.09-.03.18-.01.27.02.09.05.17.1.24.1.15.23.22.37.23.15,0,.3-.02.47-.08.17-.06.35-.13.54-.22.19-.09.37-.15.55-.19.18-.04.36-.04.53,0,.17.04.32.16.46.36.18.25.23.52.16.81-.07.29-.28.55-.61.79-.32.23-.64.34-.94.34-.3,0-.6-.16-.88-.47l.35-.25c.19.21.4.31.61.31s.43-.09.65-.24c.22-.15.36-.32.4-.49.05-.18.02-.34-.09-.5-.09-.14-.21-.21-.36-.21-.14,0-.3.02-.48.08-.17.06-.36.12-.55.21-.19.08-.38.14-.57.18-.19.04-.37.03-.54,0-.17-.04-.32-.16-.46-.35-.1-.14-.16-.29-.17-.44-.02-.15,0-.3.06-.45.06-.15.15-.29.27-.43.12-.14.27-.27.45-.4.18-.12.35-.21.53-.25.17-.04.34-.05.5-.03.16.03.31.08.45.17.14.09.26.2.37.34l-.35.25Z"/>
    <path class="cls-1" d="M37.53,56.87l3.43,3.76-1.36,1.24c-.22.2-.43.35-.62.45-.2.1-.39.15-.56.16-.18,0-.34-.03-.49-.1s-.29-.18-.42-.32c-.12-.13-.21-.26-.26-.39s-.08-.25-.08-.36c0-.11.01-.22.05-.32.04-.1.09-.19.15-.28h0c-.3.19-.58.26-.86.21-.28-.05-.53-.2-.76-.45-.18-.2-.3-.39-.36-.58-.06-.19-.08-.38-.05-.56.03-.18.11-.36.22-.54.12-.17.27-.34.44-.51l1.54-1.4ZM37.45,57.5l-.9.82c-.19.18-.36.34-.48.49-.13.15-.22.29-.26.43-.05.14-.05.28,0,.42.04.14.14.3.29.46.14.16.28.26.42.31.14.05.28.05.43.02.15-.04.29-.11.45-.21.15-.1.31-.23.48-.39l.95-.86-1.36-1.49ZM39.09,59.3l-.9.82c-.18.17-.33.33-.42.47-.1.15-.16.28-.18.42s0,.26.04.38c.05.12.12.24.23.35.11.12.22.2.33.25.11.05.23.06.36.03.13-.03.27-.09.43-.19.15-.1.33-.24.52-.42l.82-.75-1.24-1.36Z"/>
    <path class="cls-1" d="M35.03,61.65c-.15-.13-.31-.23-.47-.31-.17-.08-.33-.12-.5-.13-.16,0-.33.02-.49.08-.16.07-.31.18-.44.33-.18.21-.28.44-.3.68-.02.25.05.48.21.71l-.31.36c-.1-.15-.17-.31-.23-.47-.06-.16-.08-.33-.08-.5,0-.17.03-.34.1-.51.07-.17.18-.34.33-.52.19-.22.4-.38.61-.47.21-.09.43-.14.65-.13s.44.07.66.17c.22.1.43.24.63.42.2.18.37.37.49.59.13.21.21.43.25.66.04.22.03.45-.03.67s-.18.43-.35.63c-.33.38-.72.56-1.17.55-.45-.01-.92-.24-1.41-.67l1.87-2.14ZM33.72,63.68c.13.12.28.21.43.28.15.07.3.1.45.11.15,0,.3-.03.45-.09.15-.07.28-.17.41-.31s.21-.29.25-.44c.04-.15.05-.31.03-.46-.02-.15-.07-.31-.15-.45-.08-.15-.17-.29-.29-.42l-1.57,1.8Z"/>
    <path class="cls-1" d="M29.81,65.4l4.38,2.59-.88,1.5c-.07.12-.14.24-.22.35-.08.11-.16.22-.25.32-.09.1-.19.19-.3.27-.11.08-.23.15-.36.21-.19.08-.39.13-.6.13-.21,0-.41-.02-.61-.06-.2-.04-.39-.11-.58-.19-.19-.08-.35-.16-.5-.25-.15-.09-.29-.18-.43-.29-.14-.11-.27-.22-.39-.35-.12-.13-.23-.26-.32-.41-.09-.15-.16-.3-.21-.47-.05-.17-.08-.33-.08-.49s.02-.32.06-.47c.04-.15.09-.31.16-.46.07-.15.15-.3.23-.45l.88-1.5ZM29.92,66.03l-.59.99c-.11.19-.2.37-.28.55-.08.18-.12.38-.13.6-.01.19.02.37.09.54.07.17.16.32.28.46.12.14.25.27.4.39.15.12.3.22.45.31.16.09.33.18.5.26.18.08.36.13.54.16s.36.03.54,0c.18-.02.36-.09.53-.2.15-.09.28-.22.41-.38.12-.17.24-.34.35-.52l.59-.99-3.68-2.17Z"/>
    <path class="cls-1" d="M28.65,71.08c-.18-.08-.37-.13-.55-.15-.18-.02-.35-.01-.51.03-.16.04-.3.12-.44.23-.13.11-.24.26-.32.45-.11.26-.13.5-.08.74.06.24.2.44.42.61l-.18.44c-.14-.12-.26-.24-.37-.38s-.18-.28-.23-.44c-.05-.16-.07-.33-.06-.52.01-.19.06-.38.15-.6.11-.27.26-.48.43-.64.17-.16.37-.26.58-.32.21-.06.44-.07.68-.04.24.03.48.1.73.2s.46.24.65.4c.19.16.33.35.44.55.11.2.17.42.18.65.01.23-.03.47-.14.71-.2.46-.51.76-.94.89-.43.13-.95.06-1.56-.2l1.11-2.62ZM28.05,73.42c.17.07.33.11.49.13.17.02.32,0,.46-.04.14-.04.28-.12.4-.23.12-.11.22-.25.29-.42.07-.17.11-.34.1-.5,0-.16-.05-.31-.12-.45-.07-.14-.16-.27-.28-.38s-.26-.22-.41-.3l-.93,2.2Z"/>
    <path class="cls-1" d="M27.16,74.87c-.19-.06-.38-.08-.56-.08-.18,0-.35.03-.5.09-.15.06-.29.15-.41.28-.12.13-.21.29-.26.48-.08.27-.08.52,0,.75.08.23.25.42.49.56l-.13.45c-.15-.1-.29-.21-.41-.33-.12-.12-.21-.26-.28-.41-.07-.15-.11-.32-.12-.51,0-.18.02-.39.08-.61.08-.28.2-.51.36-.68.15-.18.33-.3.54-.39.2-.08.43-.12.67-.12.24,0,.49.04.75.12s.49.18.69.33c.2.14.37.31.5.49.13.19.21.4.25.62s.02.47-.05.72c-.14.48-.42.81-.83.99-.41.18-.94.17-1.57-.02l.8-2.73ZM26.82,77.26c.17.05.34.07.51.07.17,0,.32-.03.46-.09s.26-.15.37-.27c.11-.12.19-.27.24-.45.05-.18.07-.35.04-.51-.03-.16-.08-.3-.17-.43-.08-.13-.19-.25-.32-.35-.13-.1-.28-.19-.44-.26l-.67,2.29Z"/>
    <path class="cls-1" d="M22.93,78.47l.07-.42,5.03.88-.07.42-.63-.11h0c.11.09.2.19.27.3.08.11.13.23.17.35.04.12.07.25.08.38.01.13,0,.25-.01.36-.05.29-.14.53-.28.72-.13.19-.29.33-.49.43-.19.1-.41.16-.65.18s-.5,0-.76-.04c-.25-.04-.49-.12-.71-.22-.22-.11-.41-.24-.56-.4-.15-.16-.26-.35-.33-.57-.07-.22-.08-.47-.03-.74.04-.26.14-.49.3-.71.16-.21.36-.37.6-.47l-2-.35ZM26.14,79.03c-.2-.04-.4-.04-.6-.02-.19.02-.37.08-.52.16-.15.08-.29.19-.39.32-.11.14-.18.3-.21.49-.04.21-.03.41.03.58.06.17.15.33.28.45.13.13.29.23.48.31.19.08.4.14.63.17.23.04.43.04.62.01.19-.03.35-.09.49-.18.14-.09.25-.2.34-.34.09-.14.15-.29.18-.47.03-.19.03-.38-.03-.54-.05-.17-.14-.31-.26-.44s-.27-.23-.45-.32c-.18-.09-.38-.15-.6-.19Z"/>
    <path class="cls-1" d="M23.55,85.02l5.09.1v.48s-4.69-.09-4.69-.09l-.05,2.73h-.41s.06-3.22.06-3.22Z"/>
    <path class="cls-1" d="M23.56,89.14l3.66-.16.02.42-3.66.16-.02-.42ZM28.01,88.92l.63-.03.02.47-.63.03-.02-.47Z"/>
    <path class="cls-1" d="M23.63,90.78l5.06-.51.04.42-3.15.31,1.91,1.61.06.58-1.45-1.23-2.18,1.76-.05-.47,1.9-1.57-.72-.62-1.38.14-.04-.42Z"/>
    <path class="cls-1" d="M25.8,94.49c-.2.03-.38.09-.54.18-.16.08-.3.18-.41.31-.11.12-.19.27-.24.43-.05.17-.06.35-.02.55.05.27.16.5.34.67.18.17.41.26.68.28l.08.47c-.18-.02-.35-.06-.51-.12-.16-.06-.31-.14-.44-.24-.13-.11-.24-.24-.33-.4-.09-.16-.16-.36-.2-.58-.05-.29-.05-.54.01-.77.06-.23.16-.42.31-.59.15-.17.33-.3.55-.41.22-.11.46-.18.72-.23.27-.05.52-.05.77-.02.25.04.47.11.67.22.2.11.37.26.5.45.14.19.23.41.27.67.09.5-.01.92-.3,1.26s-.76.57-1.41.68l-.5-2.8ZM26.57,96.78c.18-.03.34-.08.48-.16.15-.08.27-.17.37-.29.1-.11.17-.25.21-.41s.05-.33.01-.51c-.03-.19-.1-.34-.19-.47-.09-.13-.21-.23-.34-.31-.13-.08-.28-.14-.45-.17-.16-.03-.33-.04-.51-.03l.42,2.35Z"/>
    <path class="cls-1" d="M30.1,98.83l1.05,3.55-.39.12-.46-1.55-4.49,1.33-.14-.46,4.49-1.33-.46-1.55.39-.12Z"/>
    <path class="cls-1" d="M26.56,104.63l4.76-1.79.15.4-1.81.68c.23.1.43.21.6.34.17.13.3.31.39.55.08.21.12.42.11.63,0,.21-.07.41-.21.6-.09.13-.2.23-.33.29-.12.06-.26.12-.4.18l-2.24.84-.15-.4,2.24-.84c.31-.12.51-.27.62-.47.1-.2.1-.45-.02-.77-.05-.12-.11-.23-.18-.32-.08-.09-.16-.16-.25-.22-.09-.06-.19-.1-.29-.13-.1-.03-.2-.04-.3-.04-.12,0-.24.02-.34.05-.11.03-.22.07-.34.11l-1.85.69-.15-.4Z"/>
    <path class="cls-1" d="M29.73,108c-.18.08-.34.18-.48.31-.14.12-.25.25-.32.4-.08.15-.12.31-.12.48s.03.35.12.54c.12.25.28.44.5.56.21.12.46.15.73.1l.2.43c-.18.03-.36.03-.53.02s-.33-.06-.49-.13c-.15-.07-.29-.17-.42-.3-.13-.13-.24-.3-.34-.51-.12-.27-.18-.52-.18-.75,0-.23.05-.45.15-.65.1-.2.24-.37.43-.53.18-.16.4-.29.64-.4.24-.11.49-.18.74-.21s.48-.01.7.04c.22.06.42.16.6.3.18.15.32.34.43.58.21.46.22.89.02,1.3-.19.41-.59.75-1.19,1.02l-1.19-2.58ZM31.05,110.02c.16-.07.31-.17.43-.28.12-.11.22-.23.28-.37s.1-.29.1-.45c0-.16-.04-.33-.12-.5-.08-.17-.18-.31-.3-.41-.12-.1-.26-.17-.41-.22-.15-.04-.31-.06-.47-.05-.17,0-.33.04-.5.1l1,2.17Z"/>
    <path class="cls-1" d="M32.27,113.54c-.18.13-.32.28-.41.43-.09.15-.15.31-.16.47-.02.16,0,.33.05.5.05.17.13.33.23.5.12.19.25.35.38.46s.27.19.41.22c.14.04.27.04.41.02.13-.02.26-.07.38-.15.17-.1.28-.23.34-.37.06-.14.08-.29.07-.46,0-.16-.04-.34-.1-.52s-.12-.37-.18-.56c-.06-.19-.12-.38-.16-.57-.05-.19-.06-.37-.05-.55.01-.18.07-.35.16-.51.09-.16.24-.31.46-.44.15-.09.31-.15.49-.17.18-.02.36,0,.54.05.18.06.36.16.54.3.18.14.34.34.49.58.15.24.25.48.29.7.04.22.04.43,0,.63-.04.19-.12.37-.25.52-.12.16-.27.29-.44.4l-.24-.39c.17-.1.29-.22.37-.35.08-.13.13-.27.15-.42.01-.15,0-.3-.04-.45-.04-.15-.11-.29-.19-.43-.13-.21-.27-.37-.41-.47s-.29-.17-.44-.2c-.14-.03-.28-.02-.41.01-.13.04-.25.1-.35.19-.13.11-.2.24-.23.38-.03.14-.03.29,0,.45.02.16.07.33.13.51.06.18.12.36.18.54.06.18.11.37.15.55.04.18.05.36.04.53-.02.17-.07.33-.17.49-.1.16-.25.3-.46.43-.4.25-.8.3-1.19.16-.39-.14-.74-.46-1.05-.96-.14-.22-.24-.45-.3-.68-.06-.23-.07-.45-.04-.66s.11-.41.24-.6c.13-.19.31-.35.54-.5l.24.4Z"/>
    <path class="cls-1" d="M34.85,117.17c-.16.12-.29.26-.4.4-.11.15-.18.3-.23.46-.04.16-.05.32-.01.5.03.17.11.34.23.5.17.22.37.37.61.43.24.07.48.05.73-.06l.29.38c-.17.06-.34.11-.51.13-.17.02-.34.02-.5-.02-.16-.03-.32-.1-.48-.2-.15-.1-.3-.24-.44-.43-.18-.23-.29-.46-.34-.69-.05-.23-.05-.45,0-.66.05-.21.15-.42.3-.61.15-.19.33-.37.54-.53s.44-.29.67-.37c.23-.08.47-.12.69-.11.23,0,.45.06.65.17.21.1.39.26.55.47.31.4.41.82.31,1.26-.1.44-.42.86-.94,1.25l-1.72-2.26ZM36.58,118.85c.14-.11.26-.23.36-.37.09-.13.16-.28.19-.42.03-.15.03-.3,0-.46-.04-.16-.11-.31-.22-.46-.12-.15-.24-.26-.39-.33-.14-.07-.29-.11-.45-.12-.16,0-.31,0-.47.06-.16.05-.32.11-.47.21l1.45,1.9Z"/>
    <path class="cls-1" d="M38.57,121.11c.06.05.13.12.22.19.09.07.17.12.24.15.07.03.14.03.21-.01.07-.04.13-.08.18-.12.16-.14.25-.31.26-.51.01-.2-.09-.42-.31-.67-.1-.11-.2-.2-.29-.28-.1-.08-.2-.13-.31-.15-.11-.03-.22-.03-.34,0-.12.03-.25.08-.38.18l-.28-.32c.17-.13.34-.22.52-.25.17-.04.34-.04.5,0,.16.04.32.11.47.21.15.1.29.23.42.38.12.14.22.28.3.43.08.15.12.3.13.45s-.01.3-.08.44c-.07.15-.18.29-.34.43l-1.5,1.31c-.12.11-.18.2-.18.27,0,.07.09.16.26.25l-.25.22s-.07-.05-.13-.08c-.06-.04-.1-.08-.15-.12-.04-.05-.08-.1-.11-.16-.04-.06-.06-.12-.06-.17,0-.05,0-.11.03-.16.02-.05.05-.1.09-.15.04-.05.08-.09.13-.13-.27,0-.52-.06-.75-.17-.23-.11-.43-.26-.61-.46-.11-.12-.19-.25-.26-.39-.07-.14-.1-.28-.11-.43,0-.14.02-.28.07-.42.05-.13.15-.26.28-.38.47-.41,1.03-.33,1.67.24l.45.39ZM38.88,121.79c-.17-.08-.33-.19-.47-.31-.14-.12-.27-.25-.41-.38-.23-.23-.45-.37-.67-.43-.21-.06-.41,0-.6.16-.08.07-.14.16-.18.24-.03.09-.04.18-.04.27,0,.09.03.18.08.27.04.09.1.17.16.25.11.13.24.24.37.33.14.09.28.16.43.19.15.04.3.04.45,0s.29-.11.43-.23l.43-.38Z"/>
    <path class="cls-1" d="M38.92,124.96c-.15.14-.3.22-.46.24-.16.02-.3-.01-.44-.09l.19-.18c.07.02.14.02.22.01.08,0,.18-.06.28-.16l.17-.17-.17-.17.45-.43.36.37-.6.58Z"/>
  </g>
  <g>
    <path class="cls-1" d="M60.25,97.38l2.54,1.39.03.56-2.97-1.68-2.22.12-.03-.48,2.18-.12,2.8-1.98.03.55-2.36,1.64Z"/>
    <path class="cls-1" d="M58.02,102.01c-.03-.23-.03-.46.02-.67.04-.21.13-.41.27-.59.13-.18.31-.33.53-.46.22-.13.49-.22.81-.27.27-.04.52-.05.76-.02.24.03.46.1.66.21.2.11.36.26.5.46s.23.43.27.71c.05.28.04.54-.03.76-.06.23-.17.42-.32.59-.15.17-.33.3-.55.41-.22.11-.46.18-.73.23-.29.05-.55.05-.8.01-.25-.04-.46-.12-.66-.24-.19-.12-.35-.27-.48-.46-.13-.19-.21-.41-.25-.66ZM60.13,102.92c.21-.04.41-.09.59-.17.18-.08.33-.18.45-.3.12-.12.21-.26.26-.43.05-.17.06-.36.02-.59-.04-.22-.11-.4-.22-.54-.11-.14-.25-.25-.41-.32-.16-.07-.33-.12-.52-.13-.19-.02-.38,0-.58.03-.22.04-.42.1-.6.18-.18.08-.33.19-.45.32-.12.12-.2.27-.25.44-.05.17-.06.35-.02.55.04.22.11.4.22.54.11.14.25.25.41.32.16.07.33.12.52.13.19.02.38,0,.58-.03Z"/>
    <path class="cls-1" d="M62.83,106.15l.11.41-3.53.96-.11-.41.49-.13c-.08-.04-.16-.08-.25-.13-.09-.05-.17-.11-.25-.18-.08-.07-.16-.16-.23-.27-.07-.11-.13-.24-.17-.39-.06-.24-.08-.44-.06-.62.02-.18.08-.33.17-.46.09-.13.21-.24.36-.32.14-.09.31-.15.5-.21l2.33-.63.11.41-2.32.63c-.31.08-.52.22-.64.4-.12.18-.14.44-.05.76.05.17.12.31.22.43s.22.2.37.26c.14.06.3.09.48.1.18,0,.36-.02.56-.07l1.92-.52Z"/>
    <path class="cls-1" d="M59.97,109.15l-.14-.4,3.45-1.24.14.4-.64.23h0c.31.03.56.1.73.24.17.14.31.35.41.64l-.43.15c-.08-.23-.18-.4-.31-.52-.13-.12-.27-.2-.43-.24-.16-.04-.33-.04-.52-.01-.19.03-.38.08-.57.15l-1.69.61Z"/>
    <path class="cls-1" d="M61.61,113.24l4.47-2.44.23.42-1.92,1.05,1.44,2.64,1.92-1.05.23.42-4.47,2.44-.23-.42,2.19-1.19-1.44-2.64-2.19,1.19-.23-.42Z"/>
    <path class="cls-1" d="M65.89,117.15c-.16.12-.3.25-.41.39-.11.15-.19.3-.24.46-.04.16-.05.32-.02.49.03.17.1.34.22.5.16.22.36.37.6.45.24.08.48.06.74-.04l.28.38c-.17.06-.34.1-.51.12-.17.02-.34,0-.5-.03-.16-.04-.32-.11-.47-.21-.15-.11-.3-.25-.43-.44-.17-.24-.28-.47-.33-.7-.04-.23-.04-.45.02-.66.06-.21.16-.41.31-.6.15-.19.33-.36.55-.52s.44-.28.68-.35c.24-.08.47-.11.7-.09.23.01.44.07.65.18.21.11.38.27.54.48.3.41.39.83.28,1.27-.11.44-.44.85-.97,1.23l-1.67-2.3ZM67.58,118.88c.14-.11.27-.22.37-.36.1-.13.17-.27.2-.42.04-.15.04-.3,0-.46-.03-.16-.1-.31-.21-.47-.11-.15-.24-.27-.38-.34-.14-.07-.29-.12-.45-.13-.16-.01-.31,0-.48.04-.16.04-.32.11-.47.19l1.41,1.93Z"/>
    <path class="cls-1" d="M69.61,121.15c.06.05.14.11.23.18s.17.12.24.15c.07.03.14.03.21-.02.07-.04.13-.08.18-.13.16-.15.24-.32.25-.52,0-.2-.1-.42-.32-.66-.1-.11-.2-.2-.3-.27-.1-.07-.21-.12-.32-.15-.11-.02-.22-.02-.34,0s-.24.09-.37.18l-.29-.32c.17-.14.34-.23.51-.27.17-.04.34-.04.5-.01.16.03.32.1.47.2.15.1.3.22.43.37.12.14.23.28.31.42.08.15.13.29.15.44.02.15,0,.3-.07.45-.06.15-.17.3-.33.44l-1.47,1.35c-.12.11-.18.21-.17.28,0,.07.1.15.27.24l-.24.23s-.07-.04-.13-.08c-.06-.04-.11-.07-.15-.12-.04-.05-.08-.1-.11-.15-.04-.06-.06-.12-.07-.17,0-.05,0-.11.02-.16.02-.05.05-.1.08-.15.04-.05.08-.09.13-.14-.27,0-.52-.05-.75-.15-.23-.1-.44-.25-.62-.45-.11-.12-.2-.25-.27-.38-.07-.14-.11-.28-.12-.42-.01-.14,0-.28.06-.42.05-.14.14-.26.27-.39.46-.42,1.02-.36,1.68.19l.46.38ZM69.94,121.82c-.18-.08-.34-.18-.48-.3-.14-.12-.28-.24-.42-.37-.24-.22-.46-.36-.68-.41-.21-.05-.41,0-.59.18-.08.08-.14.16-.17.25-.03.09-.04.18-.03.27,0,.09.04.18.08.27.05.09.1.17.17.24.12.12.24.23.38.32.14.09.28.15.43.18.15.03.3.03.45,0,.15-.04.29-.12.43-.24l.42-.39Z"/>
    <path class="cls-1" d="M70.18,124.71l-.32-.29,2.45-2.72.31.28-.46.51h.01c.28-.13.53-.18.75-.14.21.04.44.16.66.37l-.31.34c-.17-.17-.35-.27-.52-.31s-.33-.05-.49,0c-.16.04-.31.12-.47.23s-.29.25-.43.4l-1.2,1.33Z"/>
    <path class="cls-1" d="M72.75,126.89s-.11-.05-.19-.09c-.08-.03-.16-.08-.24-.15-.17-.13-.26-.27-.28-.43-.02-.15.05-.33.23-.55l1.67-2.1-.4-.32.22-.28.4.32.63-.8.33.26-.63.8.54.43-.22.28-.54-.43-1.56,1.96c-.06.07-.1.13-.14.19-.04.05-.06.11-.07.15s0,.09.03.14c.03.04.08.1.15.15.04.04.09.07.14.1.05.03.1.06.16.08l-.22.27Z"/>
    <path class="cls-1" d="M75.3,128.7l2.58-4.39,1.59.93c.26.15.46.31.61.47.15.16.26.32.32.49.06.17.07.33.05.5-.03.17-.09.33-.18.5-.09.15-.19.28-.29.36-.11.09-.21.15-.32.19-.11.04-.22.05-.33.05s-.21-.03-.31-.06h0c.28.24.44.49.47.77.03.28-.04.57-.21.86-.13.23-.28.4-.45.52-.16.12-.34.19-.52.21-.18.02-.38,0-.58-.06-.2-.06-.41-.15-.61-.27l-1.79-1.05ZM75.93,128.59l1.05.62c.23.13.43.24.61.32.18.08.34.12.49.12.15,0,.28-.04.4-.12.12-.08.24-.22.35-.41.11-.18.16-.35.17-.5,0-.15-.03-.29-.11-.41s-.19-.25-.33-.36-.32-.23-.51-.34l-1.1-.65-1.02,1.74ZM77.16,126.49l1.05.62c.21.13.41.21.58.26.17.05.32.07.45.05.13-.02.25-.07.35-.15.1-.08.19-.19.27-.32.08-.14.13-.27.14-.39.01-.12-.01-.24-.08-.36-.06-.12-.17-.23-.31-.35-.14-.12-.32-.24-.55-.38l-.96-.56-.93,1.59Z"/>
    <path class="cls-1" d="M80.62,129.68c-.08.18-.14.36-.16.54s-.02.35.02.51c.04.16.11.31.22.44.11.14.26.25.44.33.25.11.5.15.74.09.24-.05.45-.19.62-.4l.43.2c-.12.14-.25.26-.39.36-.14.1-.29.17-.45.22-.16.05-.33.07-.52.05-.18-.02-.38-.07-.59-.17-.27-.12-.48-.27-.63-.45s-.26-.37-.31-.59-.06-.44-.03-.68c.04-.24.11-.48.22-.73.11-.24.25-.46.42-.64.17-.18.35-.32.56-.43.2-.1.42-.16.65-.16.23,0,.47.04.71.15.46.21.75.53.87.96s.04.95-.24,1.55l-2.59-1.17ZM82.94,130.34c.07-.16.12-.33.14-.49s0-.32-.03-.46c-.04-.15-.11-.28-.22-.4-.11-.12-.24-.22-.42-.3-.17-.08-.34-.12-.5-.11-.16,0-.31.04-.45.11-.14.07-.27.16-.39.27-.12.12-.23.25-.31.4l2.18.99Z"/>
    <path class="cls-1" d="M86.15,132.16c-.05.22-.05.42-.02.6.04.17.1.33.19.46.09.13.22.24.37.34s.32.17.5.22c.22.07.41.09.59.09.18,0,.33-.04.45-.1.13-.06.23-.15.32-.26.08-.11.15-.23.19-.36.06-.19.06-.36.01-.5-.05-.14-.13-.27-.25-.39-.11-.12-.25-.22-.42-.32-.17-.1-.33-.2-.51-.3-.18-.1-.34-.21-.5-.32-.16-.11-.29-.24-.4-.38-.11-.14-.18-.3-.22-.48-.04-.18-.02-.39.05-.63.05-.17.13-.32.25-.46.12-.14.26-.25.44-.33.17-.08.38-.13.61-.14.23,0,.48.03.75.11.28.08.5.19.69.33.18.14.32.29.42.47.1.17.15.36.17.55.01.2,0,.39-.07.59l-.44-.13c.06-.18.07-.35.05-.51-.03-.16-.08-.29-.17-.41-.09-.12-.2-.22-.33-.3-.13-.08-.28-.15-.43-.2-.23-.07-.44-.1-.62-.08-.18.02-.33.06-.46.14-.13.08-.23.17-.3.29-.08.11-.12.24-.13.37-.02.17,0,.31.08.44.07.12.17.24.3.34.13.1.27.2.43.29.16.09.33.18.49.28.17.1.33.2.48.31.15.11.28.23.38.37.1.14.17.3.2.48.03.18.01.39-.06.62-.14.45-.4.75-.78.91-.39.15-.86.15-1.43-.02-.25-.08-.48-.18-.67-.31-.2-.13-.36-.29-.47-.47s-.19-.38-.22-.61c-.03-.22,0-.47.08-.73l.45.13Z"/>
    <path class="cls-1" d="M91.33,135.18c-.23-.05-.44-.13-.62-.25s-.34-.27-.46-.46c-.12-.19-.2-.41-.24-.66-.04-.25-.03-.54.03-.85.05-.26.13-.5.25-.72.11-.22.26-.4.43-.54.17-.14.37-.25.6-.3.23-.06.48-.06.76,0,.28.05.52.15.71.29.19.14.34.31.44.5.11.2.17.42.19.66s0,.5-.04.76c-.06.29-.15.54-.27.75-.12.22-.27.39-.45.53-.18.14-.38.23-.6.28-.22.05-.46.05-.71,0ZM92.92,133.52c.04-.21.06-.42.05-.61-.01-.19-.05-.37-.12-.52-.07-.16-.17-.29-.31-.4-.14-.11-.32-.18-.54-.23-.22-.04-.41-.04-.58.02-.17.06-.32.14-.44.27-.12.12-.23.27-.31.44-.08.17-.14.36-.18.55-.04.22-.06.43-.04.63.02.2.06.37.14.53.08.15.18.28.32.39.14.1.31.17.51.21.22.04.41.04.58-.02.17-.05.32-.15.44-.27.12-.12.23-.27.31-.44.08-.17.14-.35.18-.55Z"/>
    <path class="cls-1" d="M94.08,135.52l.6-5.05.42.05-.6,5.05-.42-.05Z"/>
    <path class="cls-1" d="M95.78,135.69l.28-3.65.42.03-.28,3.65-.42-.03ZM96.09,131.24l.05-.63.47.04-.05.63-.47-.04Z"/>
    <path class="cls-1" d="M100.32,130.72h.42s.04,5.09.04,5.09h-.42s0-.64,0-.64h-.01c-.06.12-.14.23-.24.32-.09.09-.2.17-.32.23s-.23.11-.36.14c-.12.03-.24.05-.36.05-.3,0-.55-.04-.76-.14-.21-.1-.38-.23-.52-.4-.13-.17-.23-.38-.3-.61-.06-.24-.1-.49-.1-.75,0-.26.03-.5.09-.74.06-.24.16-.44.3-.62.13-.18.3-.32.51-.43s.45-.16.72-.16c.26,0,.51.05.75.17s.43.28.57.51l-.02-2.01ZM100.35,133.96c0-.21-.03-.4-.09-.59-.06-.19-.14-.35-.25-.49-.11-.14-.24-.25-.39-.33-.15-.08-.33-.12-.52-.12-.22,0-.41.05-.57.14-.16.09-.29.21-.39.36-.1.15-.18.33-.22.53-.05.2-.06.42-.05.65,0,.23.03.43.1.61.06.18.15.33.27.45.11.12.25.21.4.28.15.06.32.09.5.09.2,0,.38-.04.53-.12s.28-.19.39-.33c.1-.14.18-.31.23-.5s.08-.4.08-.62Z"/>
    <path class="cls-1" d="M104.4,135.44l-.94-5,.47-.09.87,4.6,2.68-.51.07.4-3.15.59Z"/>
    <path class="cls-1" d="M107.29,130.26l-.17-.61.45-.12.17.61-.45.12ZM108.49,134.56l-.97-3.53.41-.11.97,3.53-.41.11Z"/>
    <path class="cls-1" d="M110.13,134.1l-1.7-4.8.4-.14,1.06,2.99,1.11-2.24.55-.19-.85,1.7,2.23,1.69-.45.16-1.98-1.47-.43.85.46,1.31-.4.14Z"/>
    <path class="cls-1" d="M113.25,131.07c.08.18.19.34.31.48.12.14.26.24.4.32.15.07.31.11.48.12s.35-.04.54-.12c.25-.12.43-.29.55-.5s.15-.46.09-.73l.43-.2c.03.18.04.35.02.53s-.05.33-.12.49c-.07.15-.17.3-.3.43-.13.13-.3.24-.51.34-.26.13-.51.19-.75.19-.24,0-.45-.05-.65-.14-.2-.1-.38-.24-.54-.42-.16-.18-.3-.4-.41-.64-.12-.24-.19-.49-.22-.73-.03-.25-.02-.48.04-.7.05-.22.15-.42.3-.6.14-.18.33-.33.57-.44.45-.22.89-.23,1.3-.04.41.19.75.58,1.03,1.18l-2.57,1.22ZM115.26,129.73c-.08-.16-.17-.3-.28-.43s-.24-.21-.37-.28c-.14-.06-.29-.09-.45-.09-.16,0-.33.04-.5.12-.17.08-.31.18-.41.31-.1.12-.17.26-.21.41-.04.15-.06.31-.04.48.01.17.05.33.1.5l2.16-1.02Z"/>
    <path class="cls-1" d="M119.07,130.02l-1.22-5.33.45-.31,4.49,3.1-.41.28-1.39-.99-1.91,1.31.41,1.66-.41.28ZM118.97,127.65l1.65-1.13-2.33-1.64.69,2.77Z"/>
    <path class="cls-1" d="M125.2,125.52l-3.5-3.7.53-.5,4.3,2.11h0s-1.9-4.4-1.9-4.4l.53-.5,3.5,3.7-.35.33-3.12-3.29h0s1.91,4.45,1.91,4.45l-.33.31-4.34-2.14h-.01s3.12,3.3,3.12,3.3l-.35.33Z"/>
    <path class="cls-1" d="M130.61,120.19c-.16.17-.34.31-.53.42-.2.1-.4.16-.62.17-.22,0-.45-.03-.69-.12-.24-.09-.48-.24-.72-.45-.2-.18-.37-.37-.5-.57s-.21-.42-.25-.64c-.04-.22-.03-.44.04-.67.06-.23.19-.45.37-.66.19-.22.39-.37.61-.46.21-.09.43-.14.66-.13.22,0,.45.06.67.16.22.1.44.24.64.42.22.19.39.4.52.61.13.21.2.43.23.66.03.22.01.44-.06.66-.07.22-.19.42-.35.62ZM129.98,117.98c-.16-.14-.33-.26-.5-.35-.17-.09-.34-.14-.51-.16-.17-.02-.34,0-.5.07-.16.06-.32.18-.47.35-.15.17-.24.34-.28.51-.04.18-.04.35,0,.52.04.17.12.33.23.49.11.16.24.3.39.43.17.15.35.26.53.35.18.08.35.13.53.14s.34-.02.5-.08c.16-.07.3-.18.44-.33.15-.17.24-.34.28-.51.04-.18.03-.35-.01-.52-.04-.17-.12-.33-.23-.49-.11-.16-.24-.3-.38-.43Z"/>
    <path class="cls-1" d="M130.84,113.87l.26-.34,2.93,2.2-.25.34-.41-.31c.02.08.04.18.05.28.01.1.02.2,0,.31,0,.11-.03.23-.07.35-.04.12-.11.25-.21.38-.15.2-.3.34-.45.43-.15.09-.31.14-.47.15-.16,0-.32-.02-.47-.08s-.31-.15-.47-.27l-1.93-1.45.25-.34,1.92,1.44c.25.19.49.28.71.26.22-.02.43-.16.63-.43.1-.14.17-.29.2-.44.03-.15.02-.3-.02-.45-.04-.15-.12-.3-.22-.44-.1-.14-.24-.28-.4-.4l-1.59-1.2Z"/>
    <path class="cls-1" d="M134.97,114.35l-.23.36-3.08-1.99.23-.36.43.28c-.06-.24-.09-.47-.08-.68,0-.21.07-.43.21-.64.12-.19.27-.35.44-.46.17-.12.37-.18.61-.19.16,0,.3.03.43.09s.25.13.38.22l2.01,1.3-.23.36-2.01-1.3c-.28-.18-.53-.25-.74-.22-.22.03-.42.19-.6.48-.07.11-.12.22-.14.34-.03.11-.03.22-.03.33,0,.11.03.21.07.31s.09.19.15.26c.08.1.16.18.24.25.09.07.18.13.29.2l1.66,1.07Z"/>
    <path class="cls-1" d="M137.55,110.13s-.04.12-.06.2c-.02.08-.06.17-.11.26-.1.18-.23.3-.38.34-.15.04-.34,0-.58-.14l-2.33-1.33-.26.45-.31-.17.26-.45-.88-.5.21-.37.88.5.34-.6.31.18-.34.59,2.18,1.25c.08.04.15.08.21.11.06.03.11.04.16.04.05,0,.09-.02.13-.05.04-.03.08-.09.13-.17.03-.05.05-.1.07-.16.02-.06.04-.11.06-.17l.3.17Z"/>
    <path class="cls-1" d="M136.81,106.9c.03-.08.06-.17.09-.28.03-.11.05-.2.05-.28,0-.08-.03-.14-.09-.19-.06-.05-.12-.09-.18-.12-.2-.1-.38-.11-.57-.05-.19.06-.35.24-.5.54-.07.13-.11.26-.15.38s-.04.24-.02.35.06.22.13.32c.07.1.17.19.3.28l-.19.39c-.19-.11-.33-.24-.43-.38-.1-.14-.16-.3-.19-.46-.03-.16-.02-.33.02-.51.04-.18.1-.36.19-.53.08-.17.18-.31.29-.44.11-.13.23-.23.36-.29.13-.07.28-.1.44-.1.16,0,.34.05.53.15l1.79.89c.15.07.26.09.32.06.07-.03.11-.14.13-.33l.3.15s-.02.08-.03.15-.03.13-.06.18c-.03.06-.06.11-.1.16-.04.06-.08.1-.14.12-.05.02-.1.03-.16.04-.06,0-.11,0-.17-.03-.06-.02-.12-.04-.17-.07.1.25.14.5.13.75,0,.25-.07.5-.19.74-.07.14-.16.27-.26.39-.1.11-.22.2-.35.26-.13.06-.27.09-.42.09-.15,0-.3-.04-.46-.12-.56-.28-.7-.82-.42-1.64l.19-.56ZM137.32,106.35c-.01.19-.05.38-.11.55-.06.17-.13.35-.2.52-.12.3-.17.56-.14.78.03.22.15.38.38.49.1.05.2.07.29.07.09,0,.18-.03.26-.07.08-.04.16-.1.22-.17.07-.07.12-.16.17-.25.08-.15.13-.31.16-.47s.04-.32.02-.47c-.02-.15-.08-.29-.16-.42-.09-.13-.21-.23-.38-.31l-.51-.25Z"/>
    <path class="cls-1" d="M135.65,103.86l-.58-.25.18-.43.58.25-.18.43ZM139.76,105.6l-3.37-1.44.17-.39,3.37,1.44-.17.39Z"/>
    <path class="cls-1" d="M140.57,103.64l-.14.4-3.45-1.22.14-.4.48.17c-.11-.22-.19-.43-.24-.64-.05-.21-.03-.43.06-.67.08-.21.18-.4.32-.55.14-.16.32-.26.55-.32.16-.04.3-.05.44-.02.14.03.28.07.42.12l2.26.8-.14.4-2.25-.8c-.31-.11-.57-.12-.77-.04-.21.08-.36.28-.48.6-.04.12-.06.24-.06.36,0,.12.02.23.05.33s.08.2.14.29c.06.09.13.16.21.22.1.08.2.14.29.19.1.04.21.09.33.13l1.86.66Z"/>
  </g>
</svg>